<?xml version="1.0" standalone="no"?>
<!DOCTYPE svg PUBLIC "-//W3C//DTD SVG 1.1//EN" "http://www.w3.org/Graphics/SVG/1.1/DTD/svg11.dtd" >
<svg xmlns="http://www.w3.org/2000/svg" xmlns:xlink="http://www.w3.org/1999/xlink" version="1.1">
<metadata>
Created by FontForge 20170731 at Thu Sep  2 14:49:30 2021
 By Aleksey,,,
</metadata>
<defs>
<font id="BastardoGroteskish-Thin" horiz-adv-x="278" >
  <font-face 
    font-family="Bastardo"
    font-weight="400"
    font-stretch="normal"
    units-per-em="1000"
    panose-1="0 0 0 0 0 0 0 0 0 0"
    ascent="750"
    descent="-250"
    x-height="499"
    cap-height="700"
    bbox="-81 -307 1703 962"
    underline-thickness="50"
    underline-position="-175"
    unicode-range="U+000D-1F408"
  />
<missing-glyph horiz-adv-x="500" 
 />
    <glyph glyph-name=".notdef" horiz-adv-x="500" 
 />
    <glyph glyph-name="uni0000" horiz-adv-x="0" 
 />
    <glyph glyph-name="uni000D" unicode="&#xd;" horiz-adv-x="0" 
 />
    <glyph glyph-name="space" unicode=" " 
 />
    <glyph glyph-name="exclam" unicode="!" horiz-adv-x="301" 
d="M126 719h55l-3 -547h-49zM193 87v-87h-77v87h77z" />
    <glyph glyph-name="quotedbl" unicode="&#x22;" horiz-adv-x="408" 
d="M191 700v-93h-79v93h79zM318 700v-93h-79v93h79z" />
    <glyph glyph-name="numbersign" unicode="#" horiz-adv-x="710" 
d="M538 700l-42 -224h121v-49h-130l-31 -161h141v-49h-150l-38 -217h-50l38 217h-153l-40 -217h-50l40 217h-102v49h111l29 161h-120v49h131l41 224h50l-41 -224h153l42 224h50zM253 266h153l31 161h-154z" />
    <glyph glyph-name="dollar" unicode="$" horiz-adv-x="665" 
d="M246 87v268l-4 1q-54 17 -80 50.5t-26 90.5q0 55 26 97.5t80 60.5l4 1v44h36v-35l5 1q5 0 8.5 0.5t7.5 0.5h17h12t11 -1t10.5 -1.5t11.5 -1.5h8v37h35v-51l3 -1q28 -11 49 -32q31 -23 50 -62t24 -77l-52 -1q-5 40 -19 67.5t-46 53.5l-9 7v-247l4 -2q17 -4 35.5 -13
t34.5 -21t28.5 -27.5t17.5 -33.5q9 -28 9 -59v-12q0 -3 -0.5 -6.5t-0.5 -8.5q-1 -4 -1.5 -8.5t-2.5 -9.5q-1 -5 -2 -9t-3 -9q-18 -40 -43.5 -64t-69.5 -35q-2 0 -4 -3l-2 -1v-35h-35v31h-6q-3 0 -4 -1h-9q-1 -1 -4 -1q-16 0 -31.5 0.5t-31.5 2.5h-5v-32h-36v43l-3 1
q-60 25 -92 69t-41 107h53q3 -38 22 -74t53 -54zM282 623v-229l91 -27v250l-2 1q-3 3 -5 3q-23 5 -45 5q-18 0 -35 -3h-4zM237 407l9 -8v215l-8 -5q-34 -22 -46 -47q-14 -25 -14 -64q0 -29 13.5 -53t40.5 -36h1v-1zM282 345v-271l4 -1q8 -2 14.5 -2.5t13.5 -1.5
q8 0 15.5 -0.5t16.5 -0.5q6 0 10 1h3l6 1h3l5 1v248zM408 307v-227l8 3q37 19 58.5 46.5t21.5 70.5q0 24 -10 46q-12 20 -29 36h-1q-15 12 -38 22z" />
    <glyph glyph-name="percent" unicode="%" horiz-adv-x="724" 
d="M587 713h54l-471 -713h-59zM106 519q0 51 30.5 81.5t81.5 30.5t82 -30.5t31 -81.5t-31 -82t-82 -31t-81.5 31t-30.5 82zM218 593q-33 0 -53 -20.5t-20 -53.5q0 -34 20 -54t53 -20q34 0 54 20t20 54q0 33 -20 53.5t-54 20.5zM449 227q0 51 30.5 81.5t81.5 30.5t82 -30.5
t31 -81.5t-31 -82t-82 -31t-81.5 31t-30.5 82zM561 301q-33 0 -53 -20.5t-20 -53.5q0 -34 20 -54t53 -20q34 0 54 20t20 54q0 33 -20 53.5t-54 20.5z" />
    <glyph glyph-name="ampersand" unicode="&#x26;" horiz-adv-x="676" 
d="M517 146q-9 -36 -30.5 -62.5t-51 -44t-63.5 -26.5t-69 -9q-38 0 -78 11.5t-69 35.5q-34 26 -50 62.5t-16 78.5q0 34 10 64.5t28 57t42 48.5t52 39l6 4l-27 28q-53 56 -53 126q0 33 13.5 59t36 44t51.5 28t59 10q69 0 117 -38.5t65 -104.5h-58q-11 45 -45.5 70.5
t-79.5 25.5q-48 0 -79 -24.5t-31 -75.5q0 -53 66 -112l222 -193l-12 137h57v-170l128 -108l-32 -44l-107 92zM259 371q-23 -12 -44.5 -30t-38 -40t-26 -47.5t-9.5 -52.5q0 -33 12.5 -62t39.5 -49q23 -20 53.5 -28.5t59.5 -8.5q15 0 30 1.5t29 6.5q47 11 76.5 45t35.5 81v4
l-214 182z" />
    <glyph glyph-name="quotesingle" unicode="'" horiz-adv-x="189" 
d="M136 700v-93h-79v93h79z" />
    <glyph glyph-name="parenleft" unicode="(" horiz-adv-x="257" 
d="M226 644q-36 -28 -64 -65t-46.5 -80t-28.5 -89.5t-10 -94.5q-2 -100 35 -189t114 -149l-29 -43q-41 29 -72 67.5t-53 83.5t-34 94.5t-15 100.5q-3 59 6 117t31 111.5t57 99t82 78.5z" />
    <glyph glyph-name="parenright" unicode=")" horiz-adv-x="295" 
d="M107 706q47 -33 82 -78.5t57 -99t31 -111.5t6 -117q-3 -51 -15 -100.5t-33.5 -94.5t-53 -83.5t-72.5 -67.5l-29 43q77 60 114 149t35 189q0 48 -10 94.5t-28.5 89.5t-46.5 80t-64 65z" />
    <glyph glyph-name="asterisk" unicode="*" horiz-adv-x="762" 
d="M408 643l-8 -268l177 184l38 -38l-186 -175l227 5v-54l-227 5l184 -175l-37 -38l-176 184l8 -268h-58l7 268l-176 -182l-37 36l184 175l-227 -5v54l227 -5l-186 175l39 38l176 -184l-7 268h58z" />
    <glyph glyph-name="plus" unicode="+" horiz-adv-x="743" 
d="M639 344v-49h-253v-253h-49v253h-253v49h253v253h49v-253h253z" />
    <glyph glyph-name="comma" unicode="," horiz-adv-x="234" 
d="M155 0q0 -20 -7 -32.5t-17.5 -20t-24 -10.5t-27.5 -3v25q18 0 32.5 9t14.5 32h-52v84h81v-9v-75z" />
    <glyph glyph-name="hyphen" unicode="-" horiz-adv-x="801" 
d="M682 339v-49h-565v49h565z" />
    <glyph glyph-name="period" unicode="." horiz-adv-x="216" 
d="M148 83v-83h-87v83h87z" />
    <glyph glyph-name="slash" unicode="/" horiz-adv-x="609" 
d="M504 713h59l-471 -713h-64z" />
    <glyph glyph-name="zero" unicode="0" horiz-adv-x="574" 
d="M290 700q49 0 85.5 -15t63.5 -41t44.5 -60.5t28 -73.5t14.5 -80t4 -80q0 -61 -10 -123.5t-37 -112.5t-73.5 -82t-119.5 -32t-119.5 32.5t-73.5 83.5t-37 113t-10 121q0 60 10.5 122.5t37.5 113t73.5 82.5t118.5 32zM102 350q0 -47 7 -100.5t27.5 -98.5t57.5 -75t96 -30
q60 0 97 30t57 75t27 98.5t7 100.5q0 49 -6.5 102.5t-26.5 98t-57 73.5t-98 29q-60 0 -96.5 -29.5t-57 -74.5t-27.5 -98t-7 -101z" />
    <glyph glyph-name="one" unicode="1" horiz-adv-x="331" 
d="M176 582q37 15 50.5 48t13.5 70h42v-700h-52v524h-190v39q32 2 69.5 4t66.5 15z" />
    <glyph glyph-name="two" unicode="2" horiz-adv-x="603" 
d="M128 42l391 15v-57h-449q3 71 34.5 124t85.5 97q27 18 54 35.5t54 34.5q23 14 47.5 32.5t45.5 40t38 46t25 51.5q14 50 2 91q-7 27 -22.5 46t-36 31t-45 17.5t-50.5 5.5q-36 0 -64 -14t-47.5 -37.5t-30 -54t-12.5 -63.5h-65q2 47 19.5 86.5t47 68.5t69.5 45.5t86 16.5
q98 0 154.5 -46.5t56.5 -145.5q0 -42 -13 -80q-15 -33 -38 -61t-50.5 -52t-58 -45t-60.5 -39q-25 -15 -52.5 -33.5t-51.5 -41t-41 -49.5t-22 -58z" />
    <glyph glyph-name="three" unicode="3" horiz-adv-x="535" 
d="M351 374q22 2 44.5 -6.5t42.5 -24.5t35 -38t22 -48q8 -30 8 -54q0 -49 -18.5 -87t-49.5 -64t-72.5 -39t-86.5 -13q-53 0 -96.5 15t-74 43.5t-47.5 70t-17 93.5h59q-3 -45 10 -77q10 -26 27 -44t39 -29.5t47.5 -16.5t51.5 -5q35 0 67 9t57 27.5t40 46.5t15 65q0 52 -26 91
t-79 52l-119 -6v67l105 -3q48 15 71 44t23 80q0 32 -13.5 55t-35.5 39t-49.5 23.5t-55.5 7.5q-79 0 -118.5 -43.5t-41.5 -120.5h-59q2 48 18.5 87.5t45 68t68 44.5t86.5 16q26 0 54 -6.5t53.5 -19t46 -31.5t32.5 -44q16 -34 16 -71t-14 -69t-42 -55.5t-69 -29.5z" />
    <glyph glyph-name="four" unicode="4" horiz-adv-x="562" 
d="M418 700v-481l106 3v-48h-107l10 -174h-67l6 174h-324v57l327 469h49zM97 219h268v403z" />
    <glyph glyph-name="five" unicode="5" horiz-adv-x="557" 
d="M514 238q0 -52 -18 -96t-50.5 -75.5t-76 -49t-94.5 -17.5q-81 0 -142 40t-84 120l54 23q2 -11 5 -21.5t8 -19.5q13 -31 39 -52q25 -23 58.5 -33.5t66.5 -10.5q43 0 76 15.5t55.5 41.5t34 61.5t11.5 74.5q0 85 -47 135t-134 50q-27 0 -49.5 -4t-41 -13t-35.5 -23.5
t-34 -36.5h-45l7 353h341v-55l-298 5l5 -249q26 38 69.5 54.5t87.5 16.5q52 0 94.5 -16.5t73 -47t47 -74t16.5 -96.5z" />
    <glyph glyph-name="six" unicode="6" horiz-adv-x="506" 
d="M83 455q-4 -27 -5.5 -54t0.5 -54v-23q11 23 23.5 42.5t27.5 34.5t34.5 26t44.5 18q27 8 53 8q50 0 90 -17.5t68 -48t42.5 -72t14.5 -88.5q0 -49 -16.5 -90.5t-45.5 -72t-70 -47.5t-89 -17q-94 0 -147 51t-67 139q-6 47 -9 102q-2 28 -1.5 56t2.5 57q3 54 16 106.5
t39 94.5t68.5 68t103.5 26q64 0 110.5 -21.5t82.5 -77.5q5 -8 9 -16t7 -16l-58 -28q-4 25 -15.5 44.5t-28.5 34.5q-41 33 -101 32q-44 0 -75.5 -16.5t-53.5 -44.5t-35 -63t-19 -73zM93 223q0 -83 41.5 -129.5t126.5 -46.5q55 0 92 30t57 78q11 33 11 68t-9 67.5t-31 61.5
q-24 28 -54.5 40.5t-66.5 12.5q-40 0 -71 -14.5t-52.5 -39t-32.5 -57.5t-11 -71z" />
    <glyph glyph-name="seven" unicode="7" horiz-adv-x="475" 
d="M416 649l-396 -2v53h453v-52l-295 -648h-60z" />
    <glyph glyph-name="eight" unicode="8" horiz-adv-x="518" 
d="M354 372q68 -14 101 -58t33 -112q0 -52 -18 -90t-49.5 -63t-73 -37t-88.5 -12q-48 0 -90 13t-73 38.5t-48.5 63t-17.5 87.5q2 45 20 84.5t57 64.5q18 11 36 15.5t37 11.5q-14 7 -27 12.5t-24.5 12t-22.5 15t-21 22.5q-28 37 -28 93q0 43 17 74.5t45.5 52t64.5 30.5t74 10
q59 0 106.5 -21t78.5 -72q16 -31 16 -74q0 -55 -27 -93q-20 -29 -44.5 -39.5t-55.5 -22.5zM259 399q32 0 59.5 8.5t47.5 25.5t31.5 42t11.5 58q0 35 -13 57q-9 19 -24.5 31.5t-33.5 20.5t-38.5 11.5t-40.5 3.5q-27 0 -54 -7t-49 -24q-24 -16 -36 -40.5t-12 -52.5
q0 -34 12 -59t32 -41.5t48 -25t59 -8.5zM259 43q39 0 71.5 10t56 30t36.5 50t13 69q0 51 -29 90t-77 53q-31 11 -64 11h-14q-30 0 -61.5 -9t-54.5 -30q-28 -21 -41 -50.5t-13 -64.5q0 -40 14 -70t38 -50t56 -29.5t69 -9.5z" />
    <glyph glyph-name="nine" unicode="9" horiz-adv-x="505" 
d="M426 245q4 27 5.5 54t-0.5 54v23q-22 -46 -51 -76.5t-79 -44.5q-27 -8 -53 -8q-50 0 -90 17.5t-67.5 48t-42.5 72t-15 88.5q0 49 16.5 90.5t45.5 72t70 47.5t89 17q136 0 193 -115q15 -34 21 -75q6 -46 9 -102q2 -28 1.5 -56t-2.5 -57q-3 -54 -16 -106.5t-39 -94.5
t-68 -68t-104 -26q-64 0 -110.5 21.5t-82.5 77.5q-5 8 -9 16t-7 16l58 28q4 -25 15.5 -44.5t28.5 -34.5q41 -33 101 -32q44 0 75.5 16.5t53.5 44.5t35 63.5t19 72.5zM416 477q0 83 -41.5 129.5t-126.5 46.5q-40 0 -78.5 -20.5t-56.5 -57.5q-5 -7 -8 -14t-6 -15v-1
q-11 -33 -11 -68t9 -67.5t31 -61.5q24 -28 54.5 -40.5t66.5 -12.5q40 0 71 14.5t52.5 39t32.5 58t11 70.5z" />
    <glyph glyph-name="colon" unicode=":" horiz-adv-x="170" 
d="M126 504v-83h-79v83h79zM126 83v-83h-79v83h79z" />
    <glyph glyph-name="semicolon" unicode=";" horiz-adv-x="220" 
d="M149 504v-83h-79v83h79zM155 0q0 -20 -7 -32.5t-17.5 -20t-24 -10.5t-27.5 -3v25q18 0 32.5 9t14.5 32h-52v84h81v-9v-75z" />
    <glyph glyph-name="less" unicode="&#x3c;" horiz-adv-x="479" 
d="M352 549l36 -36l-198 -198l198 -198l-34 -34l-234 234z" />
    <glyph glyph-name="equal" unicode="=" horiz-adv-x="853" 
d="M709 427v-49h-565v49h565zM709 233v-49h-565v49h565z" />
    <glyph glyph-name="greater" unicode="&#x3e;" horiz-adv-x="472" 
d="M406 317l-234 -234l-34 34l198 198l-198 198l36 36z" />
    <glyph glyph-name="question" unicode="?" horiz-adv-x="537" 
d="M384 528q0 38 -13 66.5t-35 47.5t-49.5 28t-56.5 9q-28 0 -54.5 -8.5t-47.5 -26t-33.5 -42.5t-12.5 -58h-52q2 45 20 79t46.5 57t64.5 34.5t73 11.5q44 0 81 -14t64 -39.5t42.5 -61t15.5 -79.5q0 -45 -18 -82t-45 -70t-59 -62.5t-61 -58.5l-1 -110h-53v128q26 23 58 50.5
t60 59t47 67t19 74.5zM267 83v-83h-77v83h77z" />
    <glyph glyph-name="at" unicode="@" horiz-adv-x="848" 
d="M425 599q51 0 97 -7.5t85 -28.5q67 -35 108.5 -94.5t41.5 -136.5q0 -40 -10.5 -77t-32.5 -64.5t-54.5 -44t-76.5 -16.5q-10 0 -21 4t-20 11.5t-15 20t-6 28.5v176h-53v35h53v74h38v-74h74v-35h-74v-169q0 -17 11.5 -25.5t28.5 -8.5q21 0 47 13t46 39t25 53.5t5 44.5
q0 25 -8 60q-15 53 -43 88.5t-66 57t-84 31t-96 9.5q-58 0 -114 -17.5t-100 -51.5t-71 -83t-27 -111q1 -85 44.5 -141.5t112.5 -89.5q35 -17 75.5 -24t83.5 -7q87 0 139 33v-46q-60 -24 -139 -24q-67 0 -131 19.5t-114 57.5t-80 93.5t-30 128.5t30 128.5t79.5 93.5
t112.5 57.5t129 19.5zM314 302q3 0 14.5 1.5t25 3t25.5 4t17 5.5q8 3 10.5 16t-3 26.5t-20 24.5t-41.5 11q-31 0 -53 -15t-23 -42l-37 -1q1 20 11.5 36t26.5 27.5t36 17.5t40 6q42 0 68 -18t26 -63v-190h-44l11 39q-17 -23 -41 -33t-52 -10q-36 0 -62 18.5t-26 56.5
q0 69 91 79zM406 290q-17 -9 -42.5 -11.5t-49 -6t-40.5 -14t-18 -36.5q0 -23 17.5 -32.5t37.5 -9.5q17 0 33.5 6t30.5 16.5t22.5 25.5t8.5 33v29z" />
    <glyph glyph-name="A" unicode="A" horiz-adv-x="706" 
d="M403 700l297 -700h-74l-52 185h-412l-53 -185h-74l297 700h71zM184 228h367l-141 334l-42 95z" />
    <glyph glyph-name="B" unicode="B" horiz-adv-x="640" 
d="M344 0h-319v700h319q43 0 86 -7.5t77.5 -26t56 -51t21.5 -83.5q0 -29 -10 -52q-8 -23 -24 -43t-37 -34.5t-45 -23t-48 -8.5q39 -5 74 -16.5t62 -32.5t42.5 -52t15.5 -74q0 -17 -3 -38q-2 -5 -3 -10.5t-3 -10.5q-2 -6 -3.5 -11t-3.5 -10q-17 -36 -45.5 -59t-63 -35.5
t-72.5 -17t-74 -4.5zM78 657v-271h266q32 0 64.5 6.5t58.5 21.5t43 40t17 62q0 141 -183 141h-266zM78 317v-274h266q27 0 55 2.5t53.5 10.5t47.5 22.5t38 39.5q19 33 19 80q0 73 -57 109q-15 11 -39 21t-58 15z" />
    <glyph glyph-name="C" unicode="C" horiz-adv-x="702" 
d="M384 -11q-81 0 -143 27t-104 75.5t-63.5 116t-21.5 148.5q0 75 23 138.5t66 109t104.5 71t138.5 25.5q48 0 95 -13t85.5 -39t65.5 -64.5t35 -88.5h-62q-4 31 -21.5 58t-43.5 48t-56.5 34t-59.5 16q-19 3 -38 3q-61 0 -111.5 -21.5t-86.5 -61t-56 -94.5t-22 -121
q-1 -70 16.5 -129t53 -101.5t87.5 -66t119 -23.5q49 0 89 15t69.5 42.5t49 66t26.5 84.5h57q-18 -118 -92.5 -186.5t-198.5 -68.5z" />
    <glyph glyph-name="D" unicode="D" horiz-adv-x="662" 
d="M290 0h-259v699l259 1q174 -5 261 -89.5t87 -260.5t-87 -260.5t-261 -89.5zM85 43h168q85 0 147 17t102 54t59 95.5t19 140.5q0 88 -21.5 147t-63 94.5t-102.5 50.5t-140 15h-168v-614z" />
    <glyph glyph-name="E" unicode="E" horiz-adv-x="578" 
d="M544 700v-45h-464v-272h434v-54l-434 23v-307h469v-45h-524v700h519z" />
    <glyph glyph-name="F" unicode="F" horiz-adv-x="534" 
d="M505 700v-43h-420v-274h379v-57l-379 26v-352h-55v700h475z" />
    <glyph glyph-name="G" unicode="G" horiz-adv-x="712" 
d="M27 346q0 77 23.5 142t67 112t105.5 73.5t139 26.5q53 0 102 -13.5t88 -40.5t66.5 -67.5t38.5 -94.5h-54q-3 29 -17 52t-33 45q-42 38 -88 57.5t-103 19.5q-70 0 -122.5 -25t-87.5 -67.5t-53 -99t-18 -120.5q0 -63 16 -114.5t56 -100.5q17 -20 39 -37.5t47.5 -30t52 -19
t52.5 -5.5q62 3 102.5 25t64 57t32 82t7.5 99h-176v41h294l-4 -341h-68l39 300h-38q2 -62 -10.5 -117.5t-41 -97.5t-74 -67.5t-109.5 -28.5q-77 0 -139 26.5t-105.5 74t-67 112.5t-23.5 142z" />
    <glyph glyph-name="H" unicode="H" horiz-adv-x="645" 
d="M622 700v-700h-71l29 336h-508l27 -336h-69v700h53v-321h486v321h53z" />
    <glyph glyph-name="I" unicode="I" horiz-adv-x="117" 
d="M26 699v-700v700zM29 700h51v-700h-51v700z" />
    <glyph glyph-name="J" unicode="J" horiz-adv-x="491" 
d="M245 48q52 0 84.5 18t51 48.5t25.5 70.5t7 85v430h51v-444q0 -55 -12.5 -102t-39 -81t-68 -53.5t-99.5 -19.5q-54 0 -93.5 17.5t-66 48.5t-40.5 73.5t-17 92.5h52q3 -37 14 -70t30.5 -58.5t49.5 -40.5t71 -15z" />
    <glyph glyph-name="K" unicode="K" horiz-adv-x="643" 
d="M105 700l-1 -360l415 357h81l-252 -215l269 -482h-67l-238 450l-209 -182l1 -267h-56v699h57z" />
    <glyph glyph-name="L" unicode="L" horiz-adv-x="545" 
d="M85 700v-666l436 26v-60h-491v700h55z" />
    <glyph glyph-name="M" unicode="M" horiz-adv-x="843" 
d="M169 626l-10 -626h-62l25 700h78l254 -640l247 640h81l23 -700h-62l-9 643l-258 -643h-48z" />
    <glyph glyph-name="N" unicode="N" horiz-adv-x="650" 
d="M624 700v-700h-71l-477 650l16 -650h-62v700h71l477 -650l-17 650h63z" />
    <glyph glyph-name="O" unicode="O" horiz-adv-x="724" 
d="M702 350q0 -77 -23 -141t-66 -110.5t-104 -72.5t-138 -26q-79 0 -140.5 27t-104 74t-65 111t-22.5 138q0 77 23 141.5t66 111t104.5 72t138.5 25.5q78 0 139 -26.5t104 -73.5t65.5 -111t22.5 -139zM646 350q0 65 -18 121t-53 97.5t-86.5 65t-117.5 23.5
q-69 0 -120.5 -24.5t-86 -66.5t-52 -97.5t-17.5 -118.5q0 -65 18 -121t53.5 -97.5t87 -65.5t117.5 -24q68 0 119.5 24.5t86 66.5t52 98t17.5 119z" />
    <glyph glyph-name="P" unicode="P" horiz-adv-x="610" 
d="M361 308h-292l14 -307h-58v700h336q42 0 84.5 -10.5t74.5 -39.5q33 -26 48 -65.5t15 -81.5q0 -50 -17.5 -87t-47.5 -61t-70.5 -36t-86.5 -12zM78 350h266q38 0 69 9q17 4 31 11t27 16q29 23 41.5 52.5t12.5 65.5q0 42 -14.5 71t-39.5 47.5t-58 27t-69 8.5h-266v-308z" />
    <glyph glyph-name="Q" unicode="Q" horiz-adv-x="693" 
d="M513 50q-62 -43 -159 -43q-76 0 -133 28.5t-95 76t-57 110t-19 131.5q0 71 20 134t58.5 110.5t95 75t130.5 27.5q76 0 133.5 -28.5t95.5 -76t57.5 -110.5t19.5 -132q0 -72 -22.5 -140t-73.5 -121l-8 -6l107 -71l-40 -55l-106 93zM522 119q47 47 66 108t19 126
q0 58 -15 112.5t-46 96.5t-79 67.5t-113 25.5q-66 0 -113.5 -25.5t-78 -67.5t-45 -96.5t-14.5 -112.5q0 -60 15 -114.5t46 -96t78.5 -66t111.5 -24.5q70 0 118 29l9 6l-80 69l18 24l95 -65z" />
    <glyph glyph-name="R" unicode="R" horiz-adv-x="654" 
d="M24 700h347q41 0 84 -9.5t76 -33.5v-1q35 -22 51 -58t16 -76q0 -45 -17 -83.5t-55 -64.5l-20 -14h92v-360h-66l31 318h-484v-318h-55v700zM369 361q33 0 65 9t57 27.5t40 46t15 63.5q0 42 -14 71t-38 46.5t-56 25t-69 7.5h-290v-296h290z" />
    <glyph glyph-name="S" unicode="S" horiz-adv-x="627" 
d="M136 54q-40 31 -63 66.5t-33 85.5l64 1q5 -44 26.5 -76t53.5 -52.5t71.5 -30.5t79.5 -10q34 0 71.5 8t69 26t52 46.5t20.5 68.5q0 32 -15 54t-37.5 37t-50 24.5t-53.5 15.5l-161 37q-33 9 -61.5 20.5t-50 29.5t-33.5 44.5t-12 63.5q0 46 22.5 86.5t63.5 63.5
q71 35 152 35q47 0 95 -13t88 -39t67.5 -64t34.5 -89l-61 -1q-6 42 -27.5 73.5t-53 51.5t-70 30t-77.5 10q-23 0 -47 -3.5t-46 -12t-40.5 -22.5t-30.5 -36q-14 -23 -17 -49t5 -49.5t25.5 -42.5t43.5 -28l42 -12l177 -42q34 -7 66.5 -20t58 -34t41 -50t15.5 -68
q0 -36 -13 -69q-17 -35 -44.5 -58.5t-61.5 -38t-71 -20.5t-73 -6q-57 0 -105.5 13.5t-96.5 44.5z" />
    <glyph glyph-name="T" unicode="T" horiz-adv-x="650" 
d="M627 700v-58l-272 25v-667h-58v667l-272 -25v58h602z" />
    <glyph glyph-name="U" unicode="U" horiz-adv-x="625" 
d="M522 164q12 22 15 49q4 23 4 57v430h55v-444q0 -66 -20.5 -114.5t-57.5 -80t-88 -46.5t-111 -15q-63 0 -114 16.5t-87 48.5t-55.5 80t-19.5 111v444h55v-430q0 -34 4 -57q5 -42 31 -77.5t61 -56.5q53 -31 125 -31q70 0 120.5 25.5t82.5 90.5z" />
    <glyph glyph-name="V" unicode="V" horiz-adv-x="695" 
d="M676 700l-281 -700h-75l-280 700h66l254 -662l250 662h66z" />
    <glyph glyph-name="W" unicode="W" horiz-adv-x="874" 
d="M419 680h48l258 -623l9 643h62l-23 -700h-81l-247 620l-254 -620h-78l-25 700h62l10 -626z" />
    <glyph glyph-name="X" unicode="X" horiz-adv-x="673" 
d="M638 700l-269 -341l284 -359h-79l-239 321l-242 -321h-73l281 361l-266 339h77l223 -305l231 305h72z" />
    <glyph glyph-name="Y" unicode="Y" horiz-adv-x="672" 
d="M622 700l-287 -421v-279h-52v279l-284 421h71l240 -370l239 370h73z" />
    <glyph glyph-name="Z" unicode="Z" horiz-adv-x="640" 
d="M602 700v-50l-518 -613l530 26v-63h-588v50l518 612l-483 -25v63h541z" />
    <glyph glyph-name="bracketleft" unicode="[" horiz-adv-x="329" 
d="M236 700v-51h-102v-598h102v-51h-151v700h151z" />
    <glyph glyph-name="backslash" unicode="\" horiz-adv-x="603" 
d="M578 0h-64l-471 713h59z" />
    <glyph glyph-name="bracketright" unicode="]" horiz-adv-x="329" 
d="M251 700v-700h-151v51h102v598h-102v51h151z" />
    <glyph glyph-name="asciicircum" unicode="^" horiz-adv-x="645" 
d="M329 768l234 -234l-34 -34l-198 198l-198 -198l-36 36z" />
    <glyph glyph-name="underscore" unicode="_" horiz-adv-x="1632" 
d="M1549 48v-48h-1448v48h1448z" />
    <glyph glyph-name="grave" unicode="`" horiz-adv-x="281" 
d="M140 652l68 -102h-59l-67 102h58z" />
    <glyph glyph-name="a" unicode="a" horiz-adv-x="496" 
d="M280 500q38 0 69.5 -7.5t54 -24.5t35.5 -45.5t13 -69.5v-353l-70 1l28 96l-20 -26q-31 -42 -75.5 -60.5t-95.5 -18.5q-31 0 -59.5 8t-50.5 24.5t-35 42.5t-13 61q0 121 166 143l79 10q9 1 21 3t24.5 5t23.5 7t17 10q15 12 15 49q-1 26 -12.5 45t-29.5 31.5t-40.5 18.5
t-46.5 6q-54 0 -94 -26.5t-54 -80.5h-61q6 39 26.5 67.5t49.5 47t64 27.5t71 9zM404 266l-9 -5q-8 -5 -21 -9t-28 -7.5t-30.5 -5.5t-27.5 -4q-15 -2 -30.5 -4t-30.5 -4t-29 -5.5t-27 -8.5q-27 -12 -42.5 -35t-17.5 -48t11 -47.5t43 -32.5q29 -9 54 -9q33 0 66.5 11.5
t59.5 32.5t42.5 50.5t16.5 65.5v65z" />
    <glyph glyph-name="b" unicode="b" horiz-adv-x="564" 
d="M165 1h-65v699h45v-315l10 19q13 22 32 38.5t41 27.5t46.5 16.5t49.5 5.5q44 0 77.5 -14t59 -38.5t42 -58t25.5 -72.5q6 -36 6 -69q0 -54 -12.5 -99.5t-39 -78.5t-66.5 -51.5t-96 -18.5q-60 0 -107 31t-72 97zM324 35q42 0 72 18t50 46.5t29.5 64.5t9.5 72q0 40 -10.5 78
t-32 68t-53.5 48t-76 18q-44 -1 -73.5 -19t-47.5 -46.5t-25.5 -64.5t-7.5 -73q0 -26 4.5 -53t14.5 -51.5t26 -46t39 -36.5q27 -20 70 -23h11z" />
    <glyph glyph-name="c" unicode="c" horiz-adv-x="521" 
d="M270 462q-46 -1 -78 -19t-51.5 -47t-28 -66.5t-8.5 -77.5q0 -42 9 -79.5t28.5 -66t51.5 -45.5t77 -17q62 0 104.5 33.5t56.5 93.5h55q-17 -82 -76 -126.5t-140 -44.5q-58 0 -100 20t-68.5 54.5t-39 80t-12.5 97.5q0 51 14.5 97t42 81t68.5 55.5t95 20.5q84 0 139.5 -36.5
t76.5 -119.5h-60q-11 50 -50 82t-106 30z" />
    <glyph glyph-name="d" unicode="d" horiz-adv-x="615" 
d="M481 121q-25 -66 -72 -97t-107 -31q-57 0 -98 20t-66.5 53.5t-37.5 78.5t-12 96q0 33 6 69q9 39 26 72.5t42.5 58t59.5 38.5t77 14q50 0 96 -22.5t72 -65.5l11 -19v315h44v-699h-68zM309 37q42 2 70 22q23 15 39 36.5t26 46t14.5 51.5t4.5 53q0 39 -8 75t-26 64
t-47.5 45.5t-72.5 18.5q-44 0 -76.5 -18.5t-53.5 -48.5t-31.5 -68t-10.5 -77q0 -38 9.5 -74t29.5 -64t50.5 -45t72.5 -17h10z" />
    <glyph glyph-name="e" unicode="e" horiz-adv-x="500" 
d="M24 251q0 51 14.5 97.5t42.5 82t69 56.5t95 21q61 0 101 -22t64 -58.5t34.5 -83.5t11.5 -98h-382v-6q0 -40 11.5 -75.5t34 -62t54.5 -41.5t74 -15q26 0 48 7q12 3 23 8.5t21 11.5q22 15 37 35q7 10 12 21.5t10 23.5h61q-10 -36 -31 -64.5t-50 -48t-63.5 -30t-70.5 -10.5
q-55 0 -96.5 19t-69.5 53t-41.5 79.5t-13.5 99.5zM81 293l322 -8v7q0 36 -11.5 66.5t-32.5 52.5t-50.5 34.5t-65.5 12.5q-35 0 -63 -12.5t-48 -34.5t-32.5 -50.5t-17.5 -60.5z" />
    <glyph glyph-name="f" unicode="f" horiz-adv-x="315" 
d="M140 0v474l-74 -13v52h74v6q0 30 1.5 61t11.5 60q12 34 37 47.5t59 13.5q10 0 18.5 -1t16.5 -3v-41q-10 3 -24 3q-47 0 -64 -47q-7 -22 -8 -45q0 -11 -0.5 -23.5t-0.5 -24.5v-6h78v-53l-76 14v-474h-49z" />
    <glyph glyph-name="g" unicode="g" horiz-adv-x="575" 
d="M509 488v-442q0 -119 -53 -182t-176 -63q-31 0 -67.5 7.5t-68.5 23.5t-56.5 40.5t-32.5 58.5h63q8 -23 26 -39.5t42 -27t50.5 -15.5t51.5 -5q15 0 28.5 2t24.5 5q41 12 65 35t36.5 55t16 72t3.5 86l-11 -19q-28 -45 -74.5 -67.5t-98.5 -22.5q-56 0 -97 21.5t-67.5 57
t-39.5 81.5t-13 96q0 56 13 102.5t40 80.5t68.5 53t98.5 19q58 0 103.5 -25t74.5 -76l-21 88h71zM288 45q43 0 75 16.5t53.5 44t32 63t10.5 74.5q0 14 -1.5 28t-3.5 29q-7 32 -20 60.5t-33 49.5t-48 33.5t-65 12.5q-59 0 -105.5 -33.5t-59.5 -92.5q-9 -39 -9 -85
q0 -44 10 -80.5t31.5 -63t54.5 -41.5t78 -15z" />
    <glyph glyph-name="h" unicode="h" horiz-adv-x="484" 
d="M271 452q-42 0 -71.5 -17.5t-48.5 -45t-28 -63t-9 -71.5v-255h-54v700h47v-300l11 15q57 81 157 81q46 -2 84 -16t65 -53q18 -29 21 -55t3 -58v-314h-49v303q0 34 -6 61.5t-21 47t-39.5 30t-61.5 10.5z" />
    <glyph glyph-name="i" unicode="i" horiz-adv-x="186" 
d="M61 639h67v-65h-67v65zM69 502h51v-502h-51v502z" />
    <glyph glyph-name="j" unicode="j" horiz-adv-x="159" 
d="M38 639h67v-65h-67v65zM98 -58q0 -41 -4.5 -69t-19 -44.5t-42 -21.5t-74.5 0v47q18 -3 31 -3q34 0 45.5 19.5t11.5 61.5v568h52v-558z" />
    <glyph glyph-name="k" unicode="k" horiz-adv-x="487" 
d="M113 700v-451l260 252l65 -3l-186 -179l211 -319h-62l-183 279l-105 -99l20 -180h-67v700h47z" />
    <glyph glyph-name="l" unicode="l" horiz-adv-x="217" 
d="M88 700h51v-700h-51v700z" />
    <glyph glyph-name="m" unicode="m" horiz-adv-x="811" 
d="M117 258l1 -258h-51v495h66l-19 -92q52 102 166 102q27 0 51.5 -6t47.5 -21q35 -28 46 -67l5 -13l6 12q50 95 163 95q38 0 70 -12t54 -44q18 -32 23.5 -67t5.5 -70v-312h-50v331q0 54 -30 90.5t-85 36.5q-44 0 -73 -16.5t-46.5 -43.5t-24.5 -62t-7 -72l1 -264h-53v317
q0 29 -6.5 55t-20.5 45t-36 30t-53 11q-43 0 -72.5 -17.5t-46.5 -46t-24.5 -64t-7.5 -72.5z" />
    <glyph glyph-name="n" unicode="n" horiz-adv-x="487" 
d="M443 376q3 -27 3 -60v-319h-49v308q0 32 -7.5 59t-23.5 47t-40 31.5t-57 11.5q-42 0 -72.5 -16.5t-51 -44t-30 -63t-9.5 -72.5v-258h-50v488h67l-29 -99l20 28q59 81 158 81q49 -2 85 -16q15 -6 29.5 -17t26.5 -25t20 -30.5t10 -33.5z" />
    <glyph glyph-name="o" unicode="o" horiz-adv-x="508" 
d="M48 136q-18 51 -18 112q0 53 14.5 99t42.5 80t69.5 54t95.5 20q57 0 99 -20.5t69.5 -55t40.5 -80.5t13 -97q0 -52 -14.5 -98.5t-42.5 -81t-69.5 -54.5t-95.5 -20q-76 2 -125.5 37t-78.5 105zM88 195q15 -66 54.5 -108.5t109.5 -42.5q62 0 104.5 36t54.5 96q5 18 7.5 37
t2.5 39q0 58 -18.5 109.5t-71.5 81.5l-1 1q-34 16 -78 16q-43 0 -73.5 -16.5t-56.5 -48.5q-5 -8 -9 -16l-8 -16t-6 -17.5t-4 -17.5q-12 -36 -12 -76q0 -14 1.5 -28.5t3.5 -28.5z" />
    <glyph glyph-name="p" unicode="p" horiz-adv-x="572" 
d="M135 370q24 66 71.5 97t107.5 31q57 0 97.5 -20t66 -53.5t37.5 -78.5t12 -96q0 -33 -6 -69q-9 -39 -26 -72.5t-42 -58t-59 -38.5t-77 -14q-49 0 -96 22.5t-73 65.5l-10 19v-299h-45v693h72zM306 455q-41 -2 -70 -23q-23 -15 -39 -36t-26 -46t-14.5 -52t-4.5 -53
q0 -39 8 -75t26 -64t47.5 -45t72.5 -19q44 0 76.5 18.5t53.5 48.5t31.5 68t10.5 77q0 38 -9.5 74t-29.5 64t-50.5 45.5t-71.5 17.5h-11z" />
    <glyph glyph-name="q" unicode="q" horiz-adv-x="548" 
d="M450 499h72v-693h-44v299l-11 -19q-26 -43 -72 -65.5t-96 -22.5q-43 0 -77.5 14t-59.5 38.5t-42 58t-26 72.5q-6 36 -6 69q0 54 12.5 99.5t39 78.5t67 51.5t95.5 18.5q60 0 107 -31t72 -97zM299 455q-42 0 -72.5 -17.5t-50.5 -46t-29.5 -64.5t-9.5 -73q0 -40 10.5 -78
t32 -68t54 -48t75.5 -18q44 2 73.5 19.5t47.5 46t25.5 64.5t7.5 73q0 26 -4.5 53t-14.5 52t-26 46t-39 36q-29 21 -70 23h-10z" />
    <glyph glyph-name="r" unicode="r" horiz-adv-x="320" 
d="M115 398q26 57 70.5 80t104.5 23v-52q-25 0 -41 -4q-19 -3 -36 -12t-31.5 -22.5t-24.5 -30t-16 -34.5q-8 -26 -12 -48.5t-4 -53.5v-244h-50v480h60z" />
    <glyph glyph-name="s" unicode="s" horiz-adv-x="447" 
d="M123 373q-1 -24 7 -38.5t21.5 -24t30.5 -16t34 -12.5q19 -6 38.5 -10t39.5 -9q9 -2 17 -4l16 -4q46 -13 73 -39.5t27 -76.5q-2 -35 -15.5 -64t-45.5 -46q-13 -8 -27.5 -13.5t-30.5 -9.5q-33 -6 -67 -6q-55 0 -104 23.5t-78 71.5q-16 29 -19 61h55q6 -29 22 -50.5
t37.5 -35.5t48 -20.5t54.5 -6.5q20 0 39 4t35 13t28 23.5t17 35.5q9 31 -10 62q-10 17 -31 27t-39 15q-19 5 -38 8.5t-38 7.5q-29 6 -56 14t-47.5 22.5t-33 37t-12.5 55.5q0 35 14 60t37 41t52.5 23.5t60.5 7.5q52 0 99.5 -17t77.5 -62q15 -26 21 -61h-57q-11 55 -49.5 78.5
t-91.5 23.5q-20 0 -40 -5.5t-35.5 -16.5t-25.5 -27.5t-11 -39.5z" />
    <glyph glyph-name="t" unicode="t" horiz-adv-x="299" 
d="M170 631v-129h91v-51l-91 12v-371q0 -10 2 -18.5t5 -16.5q4 -6 11 -12t21 -6q10 0 23 3v-38q-12 -4 -27 -4q-39 0 -62 16.5t-23 58.5v388l-88 -12v51h88v129h50z" />
    <glyph glyph-name="u" unicode="u" horiz-adv-x="483" 
d="M351 93q20 29 27.5 64t7.5 70v276h52v-502h-70l30 108l-23 -38q-25 -43 -66.5 -61.5t-89.5 -18.5q-88 0 -130 45.5t-42 132.5v334h53l-5 -331q0 -60 35 -97.5t96 -37.5q40 0 69.5 12.5t55.5 43.5z" />
    <glyph glyph-name="v" unicode="v" horiz-adv-x="492" 
d="M471 499l-194 -499h-57l-192 499h56l165 -438l167 438h55z" />
    <glyph glyph-name="w" unicode="w" horiz-adv-x="786" 
d="M741 502l-163 -502h-54l-116 438l-121 -438h-64l-153 502h55l129 -448l125 445h57l118 -442l130 445h57z" />
    <glyph glyph-name="x" unicode="x" horiz-adv-x="529" 
d="M476 502l-180 -241l188 -261h-66l-154 221l-159 -221h-65l193 261l-176 241h65l141 -203l144 203h69z" />
    <glyph glyph-name="y" unicode="y" horiz-adv-x="510" 
d="M123 500l158 -430l159 430h58l-186 -478q-9 -22 -17 -44t-16 -45q-12 -31 -25 -56q-14 -23 -32 -41t-44 -28q-23 -10 -57 -10h-15v47q41 0 67.5 12.5t46.5 48.5q4 8 7.5 17t7.5 17q3 9 6 18.5t6 17.5q2 10 5 17.5t5 14.5l1 2l-195 490h60z" />
    <glyph glyph-name="z" unicode="z" horiz-adv-x="491" 
d="M444 500v-44l-340 -418l363 11v-49h-427v44l339 418l-327 -11v49h392z" />
    <glyph glyph-name="braceleft" unicode="{" horiz-adv-x="343" 
d="M160 229q0 43 -23.5 69t-67.5 26h-9v52h9q44 0 67.5 26t23.5 69v130q0 44 20 71.5t67 27.5h40v-44h-32q-26 0 -33.5 -16t-7.5 -39v-144q0 -44 -27 -71.5t-68 -35.5q41 -9 68 -36t27 -72v-143q0 -27 9 -42q10 -13 32 -13h32v-44h-40q-47 0 -67 27.5t-20 71.5v130z" />
    <glyph glyph-name="bar" unicode="|" horiz-adv-x="332" 
d="M148 833h51v-1024h-51v1024z" />
    <glyph glyph-name="braceright" unicode="}" horiz-adv-x="343" 
d="M187 99q0 -44 -20 -71.5t-67 -27.5h-40v44h32q22 0 32 13q9 15 9 42v143q0 45 27 72t68 36q-41 8 -68 35.5t-27 71.5v144q0 23 -7.5 39t-33.5 16h-32v44h40q47 0 67 -27.5t20 -71.5v-130q0 -43 23.5 -69t67.5 -26h9v-52h-9q-44 0 -67.5 -26t-23.5 -69v-130z" />
    <glyph glyph-name="asciitilde" unicode="~" horiz-adv-x="572" 
d="M204 365q-26 0 -32 -14.5t-6 -36.5h-63q0 51 26 73.5t74 22.5q37 0 61 -9.5t41 -20.5t31.5 -20.5t32.5 -9.5q26 0 34 15t8 43h66q0 -49 -28 -77t-83 -28q-31 0 -53.5 9.5t-40.5 21.5t-34 21.5t-34 9.5z" />
    <glyph glyph-name="uni00A0" unicode="&#xa0;" horiz-adv-x="260" 
 />
    <glyph glyph-name="exclamdown" unicode="&#xa1;" horiz-adv-x="358" 
d="M137 328v87h77v-87h-77zM150 243h49l3 -547h-55z" />
    <glyph glyph-name="cent" unicode="&#xa2;" horiz-adv-x="649" 
d="M306 544h49v-44q72 -7 115 -40.5t62 -102.5h-59q-13 45 -44.5 72t-73.5 28v-375q48 9 81 37.5t41 77.5h55q-6 -31 -21 -57q-10 -21 -27 -39.5t-37.5 -32t-44 -21.5t-47.5 -8v-39h-49v39q-23 3 -44 9t-37 17q-27 16 -45 39t-29.5 50t-16 56.5t-4.5 58.5q0 43 11 82t33 70
t55 52t77 27v44zM188 208q11 -52 38.5 -83.5t79.5 -42.5v374q-25 -2 -44.5 -13.5t-34 -29t-24 -39.5t-15.5 -44q-5 -32 -5.5 -61t5.5 -61z" />
    <glyph glyph-name="sterling" unicode="&#xa3;" horiz-adv-x="628" 
d="M131 45l463 2v-47h-504v61q14 8 40 19q12 6 24.5 12t25.5 13q12 8 23.5 15t22.5 15q53 38 53 103q0 25 -7 45q-3 11 -8 23t-11 22h-163v42h137l-24 40q-8 14 -15 26.5t-12 21.5q-9 19 -16 38.5t-9 39t2 39.5t16 39q16 24 38 40.5t48 26.5t54 14.5t55 4.5q117 0 198 -54
v-56q-15 11 -33 21q-37 19 -79 31t-84 12q-29 0 -61 -8q-27 -6 -53 -25q-28 -19 -38 -43t-7.5 -50t14.5 -53t28 -51q5 -8 9.5 -15t8.5 -13q4 -7 7.5 -13t7.5 -12l1 -2l186 1v-42h-164l4 -8q19 -41 19 -79q0 -35 -12 -65q-7 -14 -15.5 -27.5t-19.5 -24.5q-20 -23 -51 -40
q-28 -17 -61 -27z" />
    <glyph glyph-name="currency" unicode="&#xa4;" horiz-adv-x="572" 
d="M128 454q0 63 31 106l-40 41l33 34l41 -41q43 32 107 32q32 0 59.5 -8.5t48.5 -23.5l41 40l34 -33l-42 -42q31 -43 31 -105q0 -63 -31 -106l41 -42l-33 -34l-42 42q-43 -32 -107 -32t-107 32l-41 -41l-34 33l41 41q-31 45 -31 107zM300 578q-57 0 -90.5 -33.5
t-33.5 -90.5t33.5 -90.5t90.5 -33.5t90.5 33.5t33.5 90.5t-33.5 90.5t-90.5 33.5z" />
    <glyph glyph-name="yen" unicode="&#xa5;" horiz-adv-x="814" 
d="M727 700l-249 -375h191v-57h-229v-88h229v-56h-229v-124h-55v124h-228v56h228v88h-228v57h190l-247 375h75l239 -386l236 386h77z" />
    <glyph glyph-name="section" unicode="&#xa7;" horiz-adv-x="513" 
d="M160 278q-33 20 -55.5 46.5t-22.5 68.5q0 38 23.5 66.5t57.5 42.5q-17 20 -28 40q-12 20 -12 48q0 29 12 49.5t31.5 34t44.5 20t50 6.5q66 0 98.5 -36.5t32.5 -99.5h-41q-2 48 -23.5 71.5t-70.5 23.5q-36 0 -60.5 -17.5t-24.5 -56.5q0 -20 14.5 -38t34.5 -34t42.5 -28.5
t38.5 -21.5q21 -11 43.5 -24.5t42 -31t32 -39t12.5 -48.5q0 -32 -14.5 -54.5t-37.5 -41.5l-4 -2t-4 -3l-16 -12l-4 -2t-4 -3l5 -5t7 -6q8 -7 15 -18q8 -15 12.5 -26.5t4.5 -28.5q0 -29 -11 -51t-29 -37t-42 -22.5t-51 -7.5q-66 0 -102.5 36t-39.5 102h46q0 -97 96 -97
q21 0 44.5 10t32.5 31q8 14 8 31q0 15 -8 33q-5 8 -9.5 14.5t-11.5 12.5q-12 12 -27 22t-29 20zM190 478q-26 -12 -46.5 -29.5t-20.5 -49.5q0 -20 12.5 -38.5t29.5 -29.5q11 -9 23 -17l135 -87q13 5 25 14.5t22 19.5q21 24 21 52q0 17 -7 27q-8 18 -26.5 32.5t-35.5 24.5z
" />
    <glyph glyph-name="dieresis" unicode="&#xa8;" 
d="M31 647h76v-75h-76v75zM171 647h76v-75h-76v75z" />
    <glyph glyph-name="copyright" unicode="&#xa9;" horiz-adv-x="832" 
d="M424 50q-73 0 -137 28t-111.5 75.5t-75 111.5t-27.5 136q0 73 28 136.5t76 111t111.5 74.5t135.5 27q73 0 136.5 -27.5t111 -75t74.5 -111t27 -135.5t-27 -136t-74.5 -111.5t-111 -75.5t-136.5 -28zM725 401q0 65 -23 121.5t-63 98.5t-95 66t-120 24q-66 0 -122 -24.5
t-96 -66.5t-62.5 -98.5t-22.5 -120.5q0 -66 23 -123t63.5 -99t96 -66t120.5 -24q67 0 122.5 24.5t95 67t61.5 99.5t22 121zM599 332q-5 -30 -16 -50q-20 -39 -60 -59t-83 -20q-44 0 -79.5 16t-60.5 43t-38.5 63.5t-13.5 78.5q0 44 13 80.5t37.5 62.5t59.5 40.5t79 14.5
q63 0 106.5 -30.5t54.5 -94.5h-42q-9 44 -41.5 68t-76.5 24q-37 0 -64 -13t-45 -35.5t-26.5 -52.5t-8.5 -63q0 -34 10 -63q14 -48 50.5 -77t85.5 -29q43 0 76 27t40 69h43z" />
    <glyph glyph-name="guillemotleft" unicode="&#xab;" horiz-adv-x="636" 
d="M326 469l36 -36l-198 -199l197 -197l-34 -34l-233 233zM515 469l36 -36l-198 -199l197 -197l-34 -34l-233 233z" />
    <glyph glyph-name="logicalnot" unicode="&#xac;" horiz-adv-x="572" 
d="M542 153h-49v137h-446v49h495v-186z" />
    <glyph glyph-name="registered" unicode="&#xae;" horiz-adv-x="832" 
d="M404 743q73 0 136.5 -27.5t111 -75t74.5 -111t27 -135.5q0 -73 -27.5 -137t-74.5 -111.5t-111 -75t-136 -27.5q-73 0 -137 28t-111.5 75.5t-75 111.5t-27.5 136q0 73 28 136.5t76 111t111.5 74.5t135.5 27zM404 82q67 0 122.5 24.5t95 67t61.5 99.5t22 121
q0 65 -23 121.5t-63 98.5t-95 66t-120 24q-67 0 -122.5 -24t-95.5 -66t-62.5 -98.5t-22.5 -121.5t22.5 -122t63 -99t96 -66.5t121.5 -24.5zM568 395v-175h-50l17 140h-225v-140h-40v353h175q24 0 45.5 -4t38 -15t26.5 -29.5t11 -48.5q1 -25 -8 -46t-29 -35h39zM310 540v-141
h127q16 0 31 4.5t27 13t19.5 21.5t8.5 30q1 21 -5.5 35t-18.5 22.5t-28 11.5t-34 3h-127z" />
    <glyph glyph-name="macron" unicode="&#xaf;" 
d="M235 634v-53h-192v53h192z" />
    <glyph glyph-name="degree" unicode="&#xb0;" horiz-adv-x="467" 
d="M64 570q0 39 12.5 71t35 54.5t54 34.5t70.5 12t71 -12t54.5 -34.5t34.5 -54.5t12 -71t-12 -70.5t-34.5 -54t-54.5 -35t-71 -12.5t-70.5 12.5t-54 35t-35 54t-12.5 70.5zM236 694q-57 0 -90.5 -33.5t-33.5 -90.5t33.5 -90.5t90.5 -33.5t90.5 33.5t33.5 90.5t-33.5 90.5
t-90.5 33.5z" />
    <glyph glyph-name="plusminus" unicode="&#xb1;" horiz-adv-x="862" 
d="M660 414v-42h-215v-205h-48v205h-215v42h215v220h48v-220h215zM660 112v-40h-478v40h478z" />
    <glyph glyph-name="twosuperior" unicode="&#xb2;" horiz-adv-x="788" 
d="M46 401q0 73 28 136.5t76 111t111.5 74.5t135.5 27q73 0 136.5 -27.5t111 -75t74.5 -111t27 -135.5q0 -73 -27.5 -137t-74.5 -111.5t-111 -75t-136 -27.5q-73 0 -137 28t-111.5 75.5t-75 111.5t-27.5 136zM698 401q0 65 -23 121.5t-63 98.5t-95 66t-120 24
q-66 0 -121.5 -24.5t-96 -66.5t-63 -98.5t-22.5 -120.5q0 -66 23 -123t63.5 -99t96 -66t120.5 -24t120.5 24t95.5 66t62.5 99t22.5 123zM541 483q0 -37 -14 -63t-43 -48q-7 -8 -15.5 -14t-17.5 -12q-10 -6 -19.5 -12t-18.5 -11q-10 -6 -24.5 -16t-28.5 -22t-24 -25.5
t-12 -26.5v-4l209 9v-40h-257q2 19 6.5 35.5t13.5 30.5q16 27 40 45t50 34.5t51 34t43 42.5q11 13 17 30t6 35t-7 34.5t-22 27.5q-11 11 -31 16.5t-35 5.5q-24 0 -42 -9.5t-30 -25.5t-18.5 -36t-8.5 -41h-48q2 28 14.5 54t33 46.5t47 32.5t54.5 12q24 0 45 -7
q41 -11 61.5 -42t24.5 -70z" />
    <glyph glyph-name="threesuperior" unicode="&#xb3;" horiz-adv-x="755" 
d="M388 50q-73 0 -137 28t-111.5 75.5t-75 111.5t-27.5 136q0 73 28 136.5t76 111t111.5 74.5t135.5 27q73 0 136.5 -27.5t111 -75t74.5 -111t27 -135.5q0 -73 -27.5 -137t-74.5 -111.5t-111 -75t-136 -27.5zM388 711q-66 0 -121.5 -24.5t-96 -66.5t-63 -98.5t-22.5 -120.5
q0 -66 23 -123t63.5 -99t96 -66t120.5 -24q67 0 122.5 24.5t95 67t61.5 99.5t22 121q0 65 -23 121.5t-63 98.5t-95 66t-120 24zM466 249q21 14 29 35.5t5 43.5t-18 40t-41 25h-1l-69 -1v44l60 -1h1q24 8 37.5 25t13.5 42q0 26 -14.5 45.5t-40.5 24.5q-16 4 -32 4
q-20 0 -37.5 -6.5t-30.5 -21.5q-9 -9 -17 -32q-5 -22 -5 -40v-1h-38v1q0 60 34 96t94 36h12t12 -1q14 0 32.5 -7t29.5 -15q39 -30 39 -79q0 -34 -17 -55.5t-47 -34.5l11 -3q34 -8 51 -35.5t17 -60.5q0 -44 -23.5 -72.5t-62.5 -42.5q-24 -7 -53 -7t-54.5 8.5t-44 24t-29.5 39
t-11 53.5l1 12h38v-1q0 -46 24.5 -75t74.5 -29q39 0 70 22z" />
    <glyph glyph-name="acute" unicode="&#xb4;" horiz-adv-x="189" 
d="M165 652l-67 -102h-59l68 102h58z" />
    <glyph glyph-name="paragraph" unicode="&#xb6;" horiz-adv-x="655" 
d="M285 390q-30 0 -57.5 3.5t-51 14t-42.5 28.5t-31 48q-13 25 -13 59q0 51 18 82t48.5 47.5t70.5 22t83 5.5h176v-700h-49v646h-103v-646h-49v390z" />
    <glyph glyph-name="periodcentered" unicode="&#xb7;" horiz-adv-x="339" 
d="M214 316v-93h-79v93h79z" />
    <glyph glyph-name="cedilla" unicode="&#xb8;" 
d="M128 41q19 0 36 -7.5t29.5 -20t20 -29.5t7.5 -36t-7.5 -36t-20 -29.5t-29.5 -20t-36 -7.5t-36 7.5t-29.5 20t-20 29.5t-7.5 36h43q0 -20 15 -35t35 -15t35 15t15 35q0 19 -13 33t-31 16z" />
    <glyph glyph-name="onesuperior" unicode="&#xb9;" horiz-adv-x="767" 
d="M30 401q0 73 28 136.5t76 111t111.5 74.5t135.5 27q73 0 136.5 -27.5t111 -75t74.5 -111t27 -135.5q0 -73 -27.5 -137t-74.5 -111.5t-111 -75t-136 -27.5t-136 27.5t-112 75.5t-75.5 112t-27.5 136zM381 89q67 0 122.5 24.5t95 67t61.5 99.5t22 121q0 65 -23 121.5
t-63 98.5t-95 66t-120 24q-66 0 -121.5 -24.5t-96 -66.5t-63 -98.5t-22.5 -120.5q0 -65 22.5 -122t63 -99t96 -66.5t121.5 -24.5zM421 597v-391h-41v286h-108v29q19 0 38.5 1.5t37.5 8.5q20 9 27 27t9 39h37z" />
    <glyph glyph-name="ordmasculine" unicode="&#xba;" horiz-adv-x="467" 
d="M64 570q0 39 12.5 71t35 54.5t54 34.5t70.5 12t71 -12t54.5 -34.5t34.5 -54.5t12 -71t-12 -70.5t-34.5 -54t-54.5 -35t-71 -12.5t-70.5 12.5t-54 35t-35 54t-12.5 70.5zM236 694q-57 0 -90.5 -33.5t-33.5 -90.5t33.5 -90.5t90.5 -33.5t90.5 33.5t33.5 90.5t-33.5 90.5
t-90.5 33.5z" />
    <glyph glyph-name="guillemotright" unicode="&#xbb;" horiz-adv-x="636" 
d="M551 236l-233 -233l-34 34l197 197l-198 199l36 36zM362 236l-233 -233l-34 34l197 197l-198 199l36 36z" />
    <glyph glyph-name="onequarter" unicode="&#xbc;" horiz-adv-x="818" 
d="M207 751v-421h-45v302h-115v38q24 1 45.5 2t38 8.5t26.5 23.5t10 47h40zM589 714h54l-471 -713h-59zM679 473v-299l68 5v-48h-68l6 -113h-51l7 113h-210v40l210 302h38zM485 176h151v218h-2z" />
    <glyph glyph-name="onehalf" unicode="&#xbd;" horiz-adv-x="957" 
d="M214 751v-421h-45v302h-115v38q24 1 45.5 2t38 8.5t26.5 23.5t10 47h40zM586 714h54l-471 -713h-59zM558 24q2 45 22.5 77.5t55.5 58.5q11 8 22 15t22 15q24 16 45 31q32 21 54.5 48.5t22.5 66.5q0 10 -1.5 19t-7.5 17q-6 19 -20 28q-14 12 -32 17.5t-37 5.5
q-24 0 -43 -10t-32 -26.5t-20 -38.5t-7 -45h-59q0 32 14 61.5t37 52.5t52 37t60 14q32 0 58.5 -10.5t46 -29.5t30.5 -45.5t11 -58.5q0 -22 -9.5 -45t-17.5 -34q-9 -10 -18 -18l-18 -16q-16 -15 -36.5 -27.5t-40.5 -23.5q-12 -8 -27 -18.5t-29 -23t-24.5 -25.5t-13.5 -27
l224 9v-51h-284z" />
    <glyph glyph-name="threequarters" unicode="&#xbe;" horiz-adv-x="887" 
d="M277 562q35 -8 51.5 -35t16.5 -61q0 -30 -11 -52.5t-29.5 -38t-43.5 -23.5t-53 -8q-27 0 -52 8t-44 24t-30 38.5t-11 50.5q0 4 0.5 8t0.5 7v5h44v-5q0 -23 4.5 -37t18.5 -34q29 -26 68 -26q9 0 17.5 1.5t17.5 3.5q27 10 42.5 28t15.5 47q0 22 -6 34q-5 13 -19 24
q-13 11 -26 14l-70 -1v51l61 -2q23 8 35 22.5t12 39.5q0 19 -7 29q-9 23 -29.5 30.5t-43.5 7.5q-32 0 -49.5 -13t-28.5 -41q-2 -9 -3 -18.5t-1 -20.5v-4h-45v4q0 28 9 52t25.5 42t40 28t52.5 10q45 0 85 -23q38 -30 38 -80q0 -27 -13.5 -51t-39.5 -35zM656 714h54l-471 -713
h-59zM739 473v-299l68 5v-48h-68l6 -113h-51l7 113h-210v40l210 302h38zM545 176h151v218h-2z" />
    <glyph glyph-name="questiondown" unicode="&#xbf;" horiz-adv-x="590" 
d="M283 336v83h77v-83h-77zM166 -109q0 -38 13 -66.5t35 -47.5t49.5 -28t56.5 -9q28 0 54.5 8.5t47.5 26t33.5 42.5t12.5 58h52q-2 -45 -20 -79t-46.5 -57t-64 -34.5t-73.5 -11.5q-44 0 -81 14t-64 39.5t-42.5 61t-15.5 79.5q0 45 18 82t45 70t59 62.5t61 58.5l1 110h53
v-128q-26 -23 -58 -50.5t-60 -59t-47 -67t-19 -74.5z" />
    <glyph glyph-name="Agrave" unicode="&#xc0;" horiz-adv-x="706" 
d="M403 700l297 -700h-74l-52 185h-412l-53 -185h-74l297 700h71zM184 228h367l-141 334l-42 95zM323 852l68 -102h-59l-67 102h58z" />
    <glyph glyph-name="Aacute" unicode="&#xc1;" horiz-adv-x="706" 
d="M403 700l297 -700h-74l-52 185h-412l-53 -185h-74l297 700h71zM184 228h367l-141 334l-42 95zM474 854l-67 -102h-59l68 102h58z" />
    <glyph glyph-name="Acircumflex" unicode="&#xc2;" horiz-adv-x="706" 
d="M403 700l297 -700h-74l-52 185h-412l-53 -185h-74l297 700h71zM184 228h367l-141 334l-42 95zM367 882l115 -132h-62l-66 82l-68 -82h-61l115 132h27z" />
    <glyph glyph-name="Atilde" unicode="&#xc3;" horiz-adv-x="706" 
d="M403 700l297 -700h-74l-52 185h-412l-53 -185h-74l297 700h71zM184 228h367l-141 334l-42 95zM292 800q-20 0 -24 -12.5t-4 -28.5h-45q0 40 18.5 63t53.5 23q26 0 43 -7.5t29.5 -17t23 -17t23.5 -7.5q18 0 23.5 12t5.5 35h48q0 -45 -20.5 -69t-59.5 -24q-22 0 -38 8
t-29 17t-24 17t-24 8z" />
    <glyph glyph-name="Adieresis" unicode="&#xc4;" horiz-adv-x="706" 
d="M403 700l297 -700h-74l-52 185h-412l-53 -185h-74l297 700h71zM184 228h367l-141 334l-42 95zM258 711v-83h-79v83h79zM557 711v-83h-79v83h79z" />
    <glyph glyph-name="Aring" unicode="&#xc5;" horiz-adv-x="706" 
d="M403 700l297 -700h-74l-52 185h-412l-53 -185h-74l297 700h71zM184 228h367l-141 334l-42 95zM272 866q0 42 27 69t70 27t70 -27t27 -69q0 -45 -27 -71.5t-70 -26.5t-70 26.5t-27 71.5zM316 865q0 -23 15 -38t38 -15t38 15t15 38q0 24 -15 38.5t-38 14.5t-38 -14.5
t-15 -38.5z" />
    <glyph glyph-name="Ccedilla" unicode="&#xc7;" horiz-adv-x="702" 
d="M384 -11q-81 0 -143 27t-104 75.5t-63.5 116t-21.5 148.5q0 75 23 138.5t66 109t104.5 71t138.5 25.5q48 0 95 -13t85.5 -39t65.5 -64.5t35 -88.5h-62q-4 31 -21.5 58t-43.5 48t-56.5 34t-59.5 16q-19 3 -38 3q-61 0 -111.5 -21.5t-86.5 -61t-56 -94.5t-22 -121
q-1 -70 16.5 -129t53 -101.5t87.5 -66t119 -23.5q49 0 89 15t69.5 42.5t49 66t26.5 84.5h57q-18 -118 -92.5 -186.5t-198.5 -68.5zM351 41q19 0 36 -7.5t29.5 -20t20 -29.5t7.5 -36t-7.5 -36t-20 -29.5t-29.5 -20t-36 -7.5t-36 7.5t-29.5 20t-20 29.5t-7.5 36h43
q0 -20 15 -35t35 -15t35 15t15 35q0 19 -13 33t-31 16z" />
    <glyph glyph-name="Egrave" unicode="&#xc8;" horiz-adv-x="568" 
d="M564 700v-45h-464v-272h434v-54l-434 23v-307h469v-45h-524v700h519zM304 852l68 -102h-59l-67 102h58z" />
    <glyph glyph-name="Eacute" unicode="&#xc9;" horiz-adv-x="568" 
d="M564 700v-45h-464v-272h434v-54l-434 23v-307h469v-45h-524v700h519zM372 851l-67 -102h-59l68 102h58z" />
    <glyph glyph-name="Ecircumflex" unicode="&#xca;" horiz-adv-x="568" 
d="M564 700v-45h-464v-272h434v-54l-434 23v-307h469v-45h-524v700h519zM323 882l115 -132h-62l-66 82l-68 -82h-61l115 132h27z" />
    <glyph glyph-name="Edieresis" unicode="&#xcb;" horiz-adv-x="568" 
d="M564 700v-45h-464v-272h434v-54l-434 23v-307h469v-45h-524v700h519zM197 847v-83h-79v83h79zM496 847v-83h-79v83h79z" />
    <glyph glyph-name="Igrave" unicode="&#xcc;" horiz-adv-x="117" 
d="M26 699v-700v700zM29 700h51v-700h-51v700zM13 862l68 -102h-59l-67 102h58z" />
    <glyph glyph-name="Iacute" unicode="&#xcd;" horiz-adv-x="117" 
d="M26 699v-700v700zM29 700h51v-700h-51v700zM151 851l-67 -102h-59l68 102h58z" />
    <glyph glyph-name="Icircumflex" unicode="&#xce;" horiz-adv-x="117" 
d="M26 699v-700v700zM29 700h51v-700h-51v700zM72 882l115 -132h-62l-66 82l-68 -82h-61l115 132h27z" />
    <glyph glyph-name="Idieresis" unicode="&#xcf;" horiz-adv-x="117" 
d="M-2 834v-83h-79v83h79zM187 834v-83h-79v83h79zM29 700h51v-700h-51v700z" />
    <glyph glyph-name="Eth" unicode="&#xd0;" horiz-adv-x="682" 
d="M310 0h-259v699l259 1q174 -5 261 -89.5t87 -260.5t-87 -260.5t-261 -89.5zM105 43h168q85 0 147 17t102 54t59 95.5t19 140.5q0 88 -21.5 147t-63 94.5t-102.5 50.5t-140 15h-168v-614zM305.058 389v-49h-304.087v49h304.087z" />
    <glyph glyph-name="Ntilde" unicode="&#xd1;" horiz-adv-x="650" 
d="M624 700v-700h-71l-477 650l16 -650h-62v700h71l477 -650l-17 650h63zM264 800q-20 0 -24 -12.5t-4 -28.5h-45q0 40 18.5 63t53.5 23q26 0 43 -7.5t29.5 -17t23 -17t23.5 -7.5q18 0 23.5 12t5.5 35h48q0 -45 -20.5 -69t-59.5 -24q-22 0 -38 8t-29 17t-24 17t-24 8z" />
    <glyph glyph-name="Ograve" unicode="&#xd2;" horiz-adv-x="684" 
d="M702 350q0 -77 -23 -141t-66 -110.5t-104 -72.5t-138 -26q-79 0 -140.5 27t-104 74t-65 111t-22.5 138q0 77 23 141.5t66 111t104.5 72t138.5 25.5q78 0 139 -26.5t104 -73.5t65.5 -111t22.5 -139zM646 350q0 65 -18 121t-53 97.5t-86.5 65t-117.5 23.5
q-69 0 -120.5 -24.5t-86 -66.5t-52 -97.5t-17.5 -118.5q0 -65 18 -121t53.5 -97.5t87 -65.5t117.5 -24q68 0 119.5 24.5t86 66.5t52 98t17.5 119zM327 852l68 -102h-59l-67 102h58z" />
    <glyph glyph-name="Oacute" unicode="&#xd3;" horiz-adv-x="684" 
d="M702 350q0 -77 -23 -141t-66 -110.5t-104 -72.5t-138 -26q-79 0 -140.5 27t-104 74t-65 111t-22.5 138q0 77 23 141.5t66 111t104.5 72t138.5 25.5q78 0 139 -26.5t104 -73.5t65.5 -111t22.5 -139zM646 350q0 65 -18 121t-53 97.5t-86.5 65t-117.5 23.5
q-69 0 -120.5 -24.5t-86 -66.5t-52 -97.5t-17.5 -118.5q0 -65 18 -121t53.5 -97.5t87 -65.5t117.5 -24q68 0 119.5 24.5t86 66.5t52 98t17.5 119zM467 851l-67 -102h-59l68 102h58z" />
    <glyph glyph-name="Ocircumflex" unicode="&#xd4;" horiz-adv-x="684" 
d="M702 350q0 -77 -23 -141t-66 -110.5t-104 -72.5t-138 -26q-79 0 -140.5 27t-104 74t-65 111t-22.5 138q0 77 23 141.5t66 111t104.5 72t138.5 25.5q78 0 139 -26.5t104 -73.5t65.5 -111t22.5 -139zM646 350q0 65 -18 121t-53 97.5t-86.5 65t-117.5 23.5
q-69 0 -120.5 -24.5t-86 -66.5t-52 -97.5t-17.5 -118.5q0 -65 18 -121t53.5 -97.5t87 -65.5t117.5 -24q68 0 119.5 24.5t86 66.5t52 98t17.5 119zM376 882l115 -132h-62l-66 82l-68 -82h-61l115 132h27z" />
    <glyph glyph-name="Otilde" unicode="&#xd5;" horiz-adv-x="684" 
d="M702 350q0 -77 -23 -141t-66 -110.5t-104 -72.5t-138 -26q-79 0 -140.5 27t-104 74t-65 111t-22.5 138q0 77 23 141.5t66 111t104.5 72t138.5 25.5q78 0 139 -26.5t104 -73.5t65.5 -111t22.5 -139zM646 350q0 65 -18 121t-53 97.5t-86.5 65t-117.5 23.5
q-69 0 -120.5 -24.5t-86 -66.5t-52 -97.5t-17.5 -118.5q0 -65 18 -121t53.5 -97.5t87 -65.5t117.5 -24q68 0 119.5 24.5t86 66.5t52 98t17.5 119zM301 800q-20 0 -24 -12.5t-4 -28.5h-45q0 40 18.5 63t53.5 23q26 0 43 -7.5t29.5 -17t23 -17t23.5 -7.5q18 0 23.5 12t5.5 35
h48q0 -45 -20.5 -69t-59.5 -24q-22 0 -38 8t-29 17t-24 17t-24 8z" />
    <glyph glyph-name="Odieresis" unicode="&#xd6;" horiz-adv-x="734" 
d="M722 350q0 -77 -23 -141t-66 -110.5t-104 -72.5t-138 -26q-79 0 -140.5 27t-104 74t-65 111t-22.5 138q0 77 23 141.5t66 111t104.5 72t138.5 25.5q78 0 139 -26.5t104 -73.5t65.5 -111t22.5 -139zM115 700v-83h-79v83h79zM743 700v-83h-79v83h79zM666 350q0 65 -18 121
t-53 97.5t-86.5 65t-117.5 23.5q-69 0 -120.5 -24.5t-86 -66.5t-52 -97.5t-17.5 -118.5q0 -65 18 -121t53.5 -97.5t87 -65.5t117.5 -24q68 0 119.5 24.5t86 66.5t52 98t17.5 119z" />
    <glyph glyph-name="multiply" unicode="&#xd7;" horiz-adv-x="572" 
d="M370 593l27 -27l-92 -92h127v-37h-124l85 -85l-29 -29l-86 86v-121h-41v118l-85 -85l-27 26l91 90h-131v37h127l-93 94l29 29l89 -89v127h41v-134z" />
    <glyph glyph-name="Oslash" unicode="&#xd8;" horiz-adv-x="704" 
d="M702 350q0 -77 -23 -141t-66 -110.5t-104 -72.5t-138 -26q-79 0 -140.5 27t-104 74t-65 111t-22.5 138q0 77 23 141.5t66 111t104.5 72t138.5 25.5q78 0 139 -26.5t104 -73.5t65.5 -111t22.5 -139zM646 350q0 65 -18 121t-53 97.5t-86.5 65t-117.5 23.5
q-69 0 -120.5 -24.5t-86 -66.5t-52 -97.5t-17.5 -118.5q0 -65 18 -121t53.5 -97.5t87 -65.5t117.5 -24q68 0 119.5 24.5t86 66.5t52 98t17.5 119zM571 713h59l-471 -713h-64z" />
    <glyph glyph-name="Ugrave" unicode="&#xd9;" horiz-adv-x="605" 
d="M522 164q12 22 15 49q4 23 4 57v430h55v-444q0 -66 -20.5 -114.5t-57.5 -80t-88 -46.5t-111 -15q-63 0 -114 16.5t-87 48.5t-55.5 80t-19.5 111v444h55v-430q0 -34 4 -57q5 -42 31 -77.5t61 -56.5q53 -31 125 -31q70 0 120.5 25.5t82.5 90.5zM288 805l68 -102h-59
l-67 102h58z" />
    <glyph glyph-name="Uacute" unicode="&#xda;" horiz-adv-x="605" 
d="M522 164q12 22 15 49q4 23 4 57v430h55v-444q0 -66 -20.5 -114.5t-57.5 -80t-88 -46.5t-111 -15q-63 0 -114 16.5t-87 48.5t-55.5 80t-19.5 111v444h55v-430q0 -34 4 -57q5 -42 31 -77.5t61 -56.5q53 -31 125 -31q70 0 120.5 25.5t82.5 90.5zM409 803l-67 -102h-59
l68 102h58z" />
    <glyph glyph-name="Ucircumflex" unicode="&#xdb;" horiz-adv-x="605" 
d="M522 164q12 22 15 49q4 23 4 57v430h55v-444q0 -66 -20.5 -114.5t-57.5 -80t-88 -46.5t-111 -15q-63 0 -114 16.5t-87 48.5t-55.5 80t-19.5 111v444h55v-430q0 -34 4 -57q5 -42 31 -77.5t61 -56.5q53 -31 125 -31q70 0 120.5 25.5t82.5 90.5zM326 882l115 -132h-62
l-66 82l-68 -82h-61l115 132h27z" />
    <glyph glyph-name="Udieresis" unicode="&#xdc;" horiz-adv-x="605" 
d="M243 701v-83h-79v83h79zM482 701v-83h-79v83h79zM522 164q12 22 15 49q4 23 4 57v430h55v-444q0 -66 -20.5 -114.5t-57.5 -80t-88 -46.5t-111 -15q-63 0 -114 16.5t-87 48.5t-55.5 80t-19.5 111v444h55v-430q0 -34 4 -57q5 -42 31 -77.5t61 -56.5q53 -31 125 -31
q70 0 120.5 25.5t82.5 90.5z" />
    <glyph glyph-name="Yacute" unicode="&#xdd;" horiz-adv-x="672" 
d="M622 700l-287 -421v-279h-52v279l-284 421h71l240 -370l239 370h73zM399 851l-67 -102h-59l68 102h58z" />
    <glyph glyph-name="germandbls" unicode="&#xdf;" horiz-adv-x="490" 
d="M196 396l78 -3q14 3 32 15t33.5 30.5t27 42.5t11.5 51q0 25 -10.5 47.5t-28.5 39t-42.5 26t-51.5 9.5q-34 0 -62 -10t-48 -29.5t-31 -47.5t-11 -65l5 -502h-51v517q0 45 15.5 78.5t42.5 55.5t62.5 33t74.5 11q35 0 68.5 -11t59 -32.5t40.5 -54t13 -76.5q-1 -27 -9 -48
t-20.5 -37.5t-29.5 -28.5t-36 -22q27 -8 49 -26t37.5 -41.5t24 -49.5t9.5 -50q2 -50 -9 -91t-35.5 -70.5t-63 -45.5t-90.5 -16q-19 0 -34 5v44q18 -3 35 -3q65 0 105 40.5t42 112.5q3 135 -127 161l-75 -6v47z" />
    <glyph glyph-name="agrave" unicode="&#xe0;" horiz-adv-x="496" 
d="M280 500q38 0 69.5 -7.5t54 -24.5t35.5 -45.5t13 -69.5v-353l-70 1l28 96l-20 -26q-31 -42 -75.5 -60.5t-95.5 -18.5q-31 0 -59.5 8t-50.5 24.5t-35 42.5t-13 61q0 121 166 143l79 10q9 1 21 3t24.5 5t23.5 7t17 10q15 12 15 49q-1 26 -12.5 45t-29.5 31.5t-40.5 18.5
t-46.5 6q-54 0 -94 -26.5t-54 -80.5h-61q6 39 26.5 67.5t49.5 47t64 27.5t71 9zM404 266l-9 -5q-8 -5 -21 -9t-28 -7.5t-30.5 -5.5t-27.5 -4q-15 -2 -30.5 -4t-30.5 -4t-29 -5.5t-27 -8.5q-27 -12 -42.5 -35t-17.5 -48t11 -47.5t43 -32.5q29 -9 54 -9q33 0 66.5 11.5
t59.5 32.5t42.5 50.5t16.5 65.5v65zM250 652l68 -102h-59l-67 102h58z" />
    <glyph glyph-name="aacute" unicode="&#xe1;" horiz-adv-x="496" 
d="M280 500q38 0 69.5 -7.5t54 -24.5t35.5 -45.5t13 -69.5v-353l-70 1l28 96l-20 -26q-31 -42 -75.5 -60.5t-95.5 -18.5q-31 0 -59.5 8t-50.5 24.5t-35 42.5t-13 61q0 121 166 143l79 10q9 1 21 3t24.5 5t23.5 7t17 10q15 12 15 49q-1 26 -12.5 45t-29.5 31.5t-40.5 18.5
t-46.5 6q-54 0 -94 -26.5t-54 -80.5h-61q6 39 26.5 67.5t49.5 47t64 27.5t71 9zM404 266l-9 -5q-8 -5 -21 -9t-28 -7.5t-30.5 -5.5t-27.5 -4q-15 -2 -30.5 -4t-30.5 -4t-29 -5.5t-27 -8.5q-27 -12 -42.5 -35t-17.5 -48t11 -47.5t43 -32.5q29 -9 54 -9q33 0 66.5 11.5
t59.5 32.5t42.5 50.5t16.5 65.5v65zM365 654l-67 -102h-59l68 102h58z" />
    <glyph glyph-name="acircumflex" unicode="&#xe2;" horiz-adv-x="496" 
d="M280 500q38 0 69.5 -7.5t54 -24.5t35.5 -45.5t13 -69.5v-353l-70 1l28 96l-20 -26q-31 -42 -75.5 -60.5t-95.5 -18.5q-31 0 -59.5 8t-50.5 24.5t-35 42.5t-13 61q0 121 166 143l79 10q9 1 21 3t24.5 5t23.5 7t17 10q15 12 15 49q-1 26 -12.5 45t-29.5 31.5t-40.5 18.5
t-46.5 6q-54 0 -94 -26.5t-54 -80.5h-61q6 39 26.5 67.5t49.5 47t64 27.5t71 9zM404 266l-9 -5q-8 -5 -21 -9t-28 -7.5t-30.5 -5.5t-27.5 -4q-15 -2 -30.5 -4t-30.5 -4t-29 -5.5t-27 -8.5q-27 -12 -42.5 -35t-17.5 -48t11 -47.5t43 -32.5q29 -9 54 -9q33 0 66.5 11.5
t59.5 32.5t42.5 50.5t16.5 65.5v65zM262 700l115 -132h-62l-66 82l-68 -82h-61l115 132h27z" />
    <glyph glyph-name="atilde" unicode="&#xe3;" horiz-adv-x="496" 
d="M280 500q38 0 69.5 -7.5t54 -24.5t35.5 -45.5t13 -69.5v-353l-70 1l28 96l-20 -26q-31 -42 -75.5 -60.5t-95.5 -18.5q-31 0 -59.5 8t-50.5 24.5t-35 42.5t-13 61q0 121 166 143l79 10q9 1 21 3t24.5 5t23.5 7t17 10q15 12 15 49q-1 26 -12.5 45t-29.5 31.5t-40.5 18.5
t-46.5 6q-54 0 -94 -26.5t-54 -80.5h-61q6 39 26.5 67.5t49.5 47t64 27.5t71 9zM404 266l-9 -5q-8 -5 -21 -9t-28 -7.5t-30.5 -5.5t-27.5 -4q-15 -2 -30.5 -4t-30.5 -4t-29 -5.5t-27 -8.5q-27 -12 -42.5 -35t-17.5 -48t11 -47.5t43 -32.5q29 -9 54 -9q33 0 66.5 11.5
t59.5 32.5t42.5 50.5t16.5 65.5v65zM187 617q-20 0 -23.5 -13t-3.5 -28h-45q0 40 18.5 57.5t53.5 17.5q26 0 43 -7.5t29.5 -16.5t22.5 -16.5t23 -7.5q18 0 24 11.5t6 34.5h47q0 -38 -20 -60t-59 -22q-22 0 -38 8t-28.5 17t-24 17t-25.5 8z" />
    <glyph glyph-name="adieresis" unicode="&#xe4;" horiz-adv-x="496" 
d="M280 500q38 0 69.5 -7.5t54 -24.5t35.5 -45.5t13 -69.5v-353l-70 1l28 96l-20 -26q-31 -42 -75.5 -60.5t-95.5 -18.5q-31 0 -59.5 8t-50.5 24.5t-35 42.5t-13 61q0 121 166 143l79 10q9 1 21 3t24.5 5t23.5 7t17 10q15 12 15 49q-1 26 -12.5 45t-29.5 31.5t-40.5 18.5
t-46.5 6q-54 0 -94 -26.5t-54 -80.5h-61q6 39 26.5 67.5t49.5 47t64 27.5t71 9zM404 266l-9 -5q-8 -5 -21 -9t-28 -7.5t-30.5 -5.5t-27.5 -4q-15 -2 -30.5 -4t-30.5 -4t-29 -5.5t-27 -8.5q-27 -12 -42.5 -35t-17.5 -48t11 -47.5t43 -32.5q29 -9 54 -9q33 0 66.5 11.5
t59.5 32.5t42.5 50.5t16.5 65.5v65zM170 647h76v-75h-76v75zM310 647h76v-75h-76v75z" />
    <glyph glyph-name="aring" unicode="&#xe5;" horiz-adv-x="496" 
d="M280 500q38 0 69.5 -7.5t54 -24.5t35.5 -45.5t13 -69.5v-353l-70 1l28 96l-20 -26q-31 -42 -75.5 -60.5t-95.5 -18.5q-31 0 -59.5 8t-50.5 24.5t-35 42.5t-13 61q0 121 166 143l79 10q9 1 21 3t24.5 5t23.5 7t17 10q15 12 15 49q-1 26 -12.5 45t-29.5 31.5t-40.5 18.5
t-46.5 6q-54 0 -94 -26.5t-54 -80.5h-61q6 39 26.5 67.5t49.5 47t64 27.5t71 9zM404 266l-9 -5q-8 -5 -21 -9t-28 -7.5t-30.5 -5.5t-27.5 -4q-15 -2 -30.5 -4t-30.5 -4t-29 -5.5t-27 -8.5q-27 -12 -42.5 -35t-17.5 -48t11 -47.5t43 -32.5q29 -9 54 -9q33 0 66.5 11.5
t59.5 32.5t42.5 50.5t16.5 65.5v65zM201 679q0 33 21.5 54.5t55.5 21.5t55.5 -21.5t21.5 -54.5q0 -35 -21.5 -56.5t-55.5 -21.5t-55.5 21.5t-21.5 56.5zM236 678q0 -18 11.5 -30t30.5 -12q18 0 30 12t12 30q0 19 -12 30.5t-30 11.5q-19 0 -30.5 -11.5t-11.5 -30.5z" />
    <glyph glyph-name="ae" unicode="&#xe6;" horiz-adv-x="996" 
d="M427 124q-31 -66 -83.5 -99t-124.5 -33q-31 0 -59.5 8t-50.5 24.5t-35 42.5t-13 61q0 121 166 143l79 10q9 1 21 3t24.5 5t23.5 7t17 10q15 12 15 49q-1 26 -12.5 45t-29.5 31.5t-40.5 18.5t-46.5 6q-54 0 -94 -26.5t-54 -80.5l-71 -3q3 25 17.5 48.5t35 43t45 33.5
t48.5 20q35 9 75 9q64 0 108.5 -22.5t58.5 -79.5q28 50 76.5 76t104.5 26q61 0 101 -22t64 -58.5t34.5 -83.5t11.5 -98h-382v-6q0 -40 11.5 -75.5t34 -62t54.5 -41.5t74 -15q26 0 48 7q12 3 23 8.5t21 11.5q22 15 37 35q7 10 12 21.5t10 23.5h61q-10 -36 -31 -64.5t-50 -48
t-63.5 -30t-70.5 -10.5q-72 0 -122 32t-79 100zM464 285l322 -8v7q0 36 -11.5 66.5t-32.5 52.5t-50.5 34.5t-65.5 12.5q-35 0 -63 -12.5t-48 -34.5t-32.5 -50.5t-17.5 -60.5zM407 268q-21 -16 -54 -22.5t-65 -10.5q-15 -2 -30.5 -4t-30.5 -4t-29 -5.5t-27 -8.5
q-27 -12 -42.5 -35t-17.5 -48t11 -47.5t43 -32.5q29 -9 54 -9q35 0 67.5 11.5t58 32.5t42 50.5t17.5 65.5z" />
    <glyph glyph-name="ccedilla" unicode="&#xe7;" horiz-adv-x="492" 
d="M249 462q-46 -1 -78 -19t-51.5 -47t-28 -66.5t-8.5 -77.5q0 -42 9 -79.5t28.5 -66t51.5 -45.5t77 -17q62 0 104.5 33.5t56.5 93.5h55q-17 -82 -76 -126.5t-140 -44.5q-58 0 -100 20t-68.5 54.5t-39 80t-12.5 97.5q0 51 14.5 97t42 81t68.5 55.5t95 20.5q84 0 139.5 -36.5
t76.5 -119.5h-60q-11 50 -50 82t-106 30zM244.008 40.5186q16.9229 0 32.0645 -6.68066q15.1416 -6.67969 26.2754 -17.8135t17.8135 -26.2754q6.68066 -15.1416 6.68066 -32.0645t-6.68066 -32.0654q-6.67969 -15.1416 -17.8135 -26.2744
q-11.1338 -11.1338 -26.2754 -17.8145q-15.1416 -6.67969 -32.0645 -6.67969t-32.0645 6.67969q-15.1416 6.68066 -26.2754 17.8145q-11.1338 11.1328 -17.8135 26.2744q-6.68066 15.1426 -6.68066 32.0654h38.2998q0 -17.8135 13.3604 -31.1738t31.1738 -13.3604
t31.1738 13.3604t13.3604 31.1738q0 16.9229 -11.5791 29.3926q-11.5781 12.4697 -27.6113 14.251z" />
    <glyph glyph-name="egrave" unicode="&#xe8;" horiz-adv-x="500" 
d="M24 251q0 51 14.5 97.5t42.5 82t69 56.5t95 21q61 0 101 -22t64 -58.5t34.5 -83.5t11.5 -98h-382v-6q0 -40 11.5 -75.5t34 -62t54.5 -41.5t74 -15q26 0 48 7q12 3 23 8.5t21 11.5q22 15 37 35q7 10 12 21.5t10 23.5h61q-10 -36 -31 -64.5t-50 -48t-63.5 -30t-70.5 -10.5
q-55 0 -96.5 19t-69.5 53t-41.5 79.5t-13.5 99.5zM81 293l322 -8v7q0 36 -11.5 66.5t-32.5 52.5t-50.5 34.5t-65.5 12.5q-35 0 -63 -12.5t-48 -34.5t-32.5 -50.5t-17.5 -60.5zM205 652l68 -102h-59l-67 102h58z" />
    <glyph glyph-name="eacute" unicode="&#xe9;" horiz-adv-x="490" 
d="M31 251q0 51 14.5 97.5t42.5 82t69 56.5t95 21q61 0 101 -22t64 -58.5t34.5 -83.5t11.5 -98h-382v-6q0 -40 11.5 -75.5t34 -62t54.5 -41.5t74 -15q26 0 48 7q12 3 23 8.5t21 11.5q22 15 37 35q7 10 12 21.5t10 23.5h61q-10 -36 -31 -64.5t-50 -48t-63.5 -30t-70.5 -10.5
q-55 0 -96.5 19t-69.5 53t-41.5 79.5t-13.5 99.5zM88 293l322 -8v7q0 36 -11.5 66.5t-32.5 52.5t-50.5 34.5t-65.5 12.5q-35 0 -63 -12.5t-48 -34.5t-32.5 -50.5t-17.5 -60.5zM350 652l-67 -102h-59l68 102h58z" />
    <glyph glyph-name="ecircumflex" unicode="&#xea;" horiz-adv-x="500" 
d="M24 251q0 51 14.5 97.5t42.5 82t69 56.5t95 21q61 0 101 -22t64 -58.5t34.5 -83.5t11.5 -98h-382v-6q0 -40 11.5 -75.5t34 -62t54.5 -41.5t74 -15q26 0 48 7q12 3 23 8.5t21 11.5q22 15 37 35q7 10 12 21.5t10 23.5h61q-10 -36 -31 -64.5t-50 -48t-63.5 -30t-70.5 -10.5
q-55 0 -96.5 19t-69.5 53t-41.5 79.5t-13.5 99.5zM81 293l322 -8v7q0 36 -11.5 66.5t-32.5 52.5t-50.5 34.5t-65.5 12.5q-35 0 -63 -12.5t-48 -34.5t-32.5 -50.5t-17.5 -60.5zM264 700l115 -132h-62l-66 82l-68 -82h-61l115 132h27z" />
    <glyph glyph-name="edieresis" unicode="&#xeb;" horiz-adv-x="500" 
d="M24 251q0 51 14.5 97.5t42.5 82t69 56.5t95 21q61 0 101 -22t64 -58.5t34.5 -83.5t11.5 -98h-382v-6q0 -40 11.5 -75.5t34 -62t54.5 -41.5t74 -15q26 0 48 7q12 3 23 8.5t21 11.5q22 15 37 35q7 10 12 21.5t10 23.5h61q-10 -36 -31 -64.5t-50 -48t-63.5 -30t-70.5 -10.5
q-55 0 -96.5 19t-69.5 53t-41.5 79.5t-13.5 99.5zM81 293l322 -8v7q0 36 -11.5 66.5t-32.5 52.5t-50.5 34.5t-65.5 12.5q-35 0 -63 -12.5t-48 -34.5t-32.5 -50.5t-17.5 -60.5zM142 647h76v-75h-76v75zM282 647h76v-75h-76v75z" />
    <glyph glyph-name="igrave" unicode="&#xec;" horiz-adv-x="186" 
d="M58 652l68 -102h-59l-67 102h58zM69 502h51v-502h-51v502z" />
    <glyph glyph-name="iacute" unicode="&#xed;" horiz-adv-x="186" 
d="M69 502h51v-502h-51v502zM195 652l-67 -102h-59l68 102h58z" />
    <glyph glyph-name="icircumflex" unicode="&#xee;" horiz-adv-x="186" 
d="M69 502h51v-502h-51v502zM106 700l115 -132h-62l-66 82l-68 -82h-61l115 132h27z" />
    <glyph glyph-name="idieresis" unicode="&#xef;" horiz-adv-x="186" 
d="M69 502h51v-502h-51v502zM-15 647h76v-75h-76v75zM125 647h76v-75h-76v75z" />
    <glyph glyph-name="ntilde" unicode="&#xf1;" horiz-adv-x="487" 
d="M443 376q3 -27 3 -60v-319h-49v308q0 32 -7.5 59t-23.5 47t-40 31.5t-57 11.5q-42 0 -72.5 -16.5t-51 -44t-30 -63t-9.5 -72.5v-258h-50v488h67l-29 -99l20 28q59 81 158 81q49 -2 85 -16q15 -6 29.5 -17t26.5 -25t20 -30.5t10 -33.5zM182 617q-20 0 -23.5 -13t-3.5 -28
h-45q0 40 18.5 57.5t53.5 17.5q26 0 43 -7.5t29.5 -16.5t22.5 -16.5t23 -7.5q18 0 24 11.5t6 34.5h47q0 -38 -20 -60t-59 -22q-22 0 -38 8t-28.5 17t-24 17t-25.5 8z" />
    <glyph glyph-name="ograve" unicode="&#xf2;" horiz-adv-x="508" 
d="M48 136q-18 51 -18 112q0 53 14.5 99t42.5 80t69.5 54t95.5 20q57 0 99 -20.5t69.5 -55t40.5 -80.5t13 -97q0 -52 -14.5 -98.5t-42.5 -81t-69.5 -54.5t-95.5 -20q-76 2 -125.5 37t-78.5 105zM88 195q15 -66 54.5 -108.5t109.5 -42.5q62 0 104.5 36t54.5 96q5 18 7.5 37
t2.5 39q0 58 -18.5 109.5t-71.5 81.5l-1 1q-34 16 -78 16q-43 0 -73.5 -16.5t-56.5 -48.5q-5 -8 -9 -16l-8 -16t-6 -17.5t-4 -17.5q-12 -36 -12 -76q0 -14 1.5 -28.5t3.5 -28.5zM209 652l68 -102h-59l-67 102h58z" />
    <glyph glyph-name="oacute" unicode="&#xf3;" horiz-adv-x="508" 
d="M48 136q-18 51 -18 112q0 53 14.5 99t42.5 80t69.5 54t95.5 20q57 0 99 -20.5t69.5 -55t40.5 -80.5t13 -97q0 -52 -14.5 -98.5t-42.5 -81t-69.5 -54.5t-95.5 -20q-76 2 -125.5 37t-78.5 105zM88 195q15 -66 54.5 -108.5t109.5 -42.5q62 0 104.5 36t54.5 96q5 18 7.5 37
t2.5 39q0 58 -18.5 109.5t-71.5 81.5l-1 1q-34 16 -78 16q-43 0 -73.5 -16.5t-56.5 -48.5q-5 -8 -9 -16l-8 -16t-6 -17.5t-4 -17.5q-12 -36 -12 -76q0 -14 1.5 -28.5t3.5 -28.5zM347 652l-67 -102h-59l68 102h58z" />
    <glyph glyph-name="ocircumflex" unicode="&#xf4;" horiz-adv-x="508" 
d="M48 136q-18 51 -18 112q0 53 14.5 99t42.5 80t69.5 54t95.5 20q57 0 99 -20.5t69.5 -55t40.5 -80.5t13 -97q0 -52 -14.5 -98.5t-42.5 -81t-69.5 -54.5t-95.5 -20q-76 2 -125.5 37t-78.5 105zM88 195q15 -66 54.5 -108.5t109.5 -42.5q62 0 104.5 36t54.5 96q5 18 7.5 37
t2.5 39q0 58 -18.5 109.5t-71.5 81.5l-1 1q-34 16 -78 16q-43 0 -73.5 -16.5t-56.5 -48.5q-5 -8 -9 -16l-8 -16t-6 -17.5t-4 -17.5q-12 -36 -12 -76q0 -14 1.5 -28.5t3.5 -28.5zM268 700l115 -132h-62l-66 82l-68 -82h-61l115 132h27z" />
    <glyph glyph-name="otilde" unicode="&#xf5;" horiz-adv-x="508" 
d="M48 136q-18 51 -18 112q0 53 14.5 99t42.5 80t69.5 54t95.5 20q57 0 99 -20.5t69.5 -55t40.5 -80.5t13 -97q0 -52 -14.5 -98.5t-42.5 -81t-69.5 -54.5t-95.5 -20q-76 2 -125.5 37t-78.5 105zM88 195q15 -66 54.5 -108.5t109.5 -42.5q62 0 104.5 36t54.5 96q5 18 7.5 37
t2.5 39q0 58 -18.5 109.5t-71.5 81.5l-1 1q-34 16 -78 16q-43 0 -73.5 -16.5t-56.5 -48.5q-5 -8 -9 -16l-8 -16t-6 -17.5t-4 -17.5q-12 -36 -12 -76q0 -14 1.5 -28.5t3.5 -28.5zM193 617q-20 0 -23.5 -13t-3.5 -28h-45q0 40 18.5 57.5t53.5 17.5q26 0 43 -7.5t29.5 -16.5
t22.5 -16.5t23 -7.5q18 0 24 11.5t6 34.5h47q0 -38 -20 -60t-59 -22q-22 0 -38 8t-28.5 17t-24 17t-25.5 8z" />
    <glyph glyph-name="odieresis" unicode="&#xf6;" horiz-adv-x="508" 
d="M48 136q-18 51 -18 112q0 53 14.5 99t42.5 80t69.5 54t95.5 20q57 0 99 -20.5t69.5 -55t40.5 -80.5t13 -97q0 -52 -14.5 -98.5t-42.5 -81t-69.5 -54.5t-95.5 -20q-76 2 -125.5 37t-78.5 105zM88 195q15 -66 54.5 -108.5t109.5 -42.5q62 0 104.5 36t54.5 96q5 18 7.5 37
t2.5 39q0 58 -18.5 109.5t-71.5 81.5l-1 1q-34 16 -78 16q-43 0 -73.5 -16.5t-56.5 -48.5q-5 -8 -9 -16l-8 -16t-6 -17.5t-4 -17.5q-12 -36 -12 -76q0 -14 1.5 -28.5t3.5 -28.5zM146 647h76v-75h-76v75zM286 647h76v-75h-76v75z" />
    <glyph glyph-name="divide" unicode="&#xf7;" horiz-adv-x="680" 
d="M232 534q0 51 30.5 81.5t81.5 30.5t82 -30.5t31 -81.5t-31 -82t-82 -31t-81.5 31t-30.5 82zM344 608q-33 0 -53 -20.5t-20 -53.5q0 -34 20 -54t53 -20q34 0 54 20t20 54q0 33 -20 53.5t-54 20.5zM625 346v-46h-565v46h565zM232 123q0 51 30.5 81.5t81.5 30.5t82 -30.5
t31 -81.5t-31 -82t-82 -31t-81.5 31t-30.5 82zM344 197q-33 0 -53 -20.5t-20 -53.5q0 -34 20 -54t53 -20q34 0 54 20t20 54q0 33 -20 53.5t-54 20.5z" />
    <glyph glyph-name="oslash" unicode="&#xf8;" horiz-adv-x="508" 
d="M48 136q-18 51 -18 112q0 53 14.5 99t42.5 80t69.5 54t95.5 20q57 0 99 -20.5t69.5 -55t40.5 -80.5t13 -97q0 -52 -14.5 -98.5t-42.5 -81t-69.5 -54.5t-95.5 -20q-76 2 -125.5 37t-78.5 105zM88 195q15 -66 54.5 -108.5t109.5 -42.5q62 0 104.5 36t54.5 96q5 18 7.5 37
t2.5 39q0 58 -18.5 109.5t-71.5 81.5l-1 1q-34 16 -78 16q-43 0 -73.5 -16.5t-56.5 -48.5q-5 -8 -9 -16l-8 -16t-6 -17.5t-4 -17.5q-12 -36 -12 -76q0 -14 1.5 -28.5t3.5 -28.5zM457.755 500.022h58.5029l-467.033 -500.022h-63.4609z" />
    <glyph glyph-name="ugrave" unicode="&#xf9;" horiz-adv-x="483" 
d="M351 93q20 29 27.5 64t7.5 70v276h52v-502h-70l30 108l-23 -38q-25 -43 -66.5 -61.5t-89.5 -18.5q-88 0 -130 45.5t-42 132.5v334h53l-5 -331q0 -60 35 -97.5t96 -37.5q40 0 69.5 12.5t55.5 43.5zM207 652l68 -102h-59l-67 102h58z" />
    <glyph glyph-name="uacute" unicode="&#xfa;" horiz-adv-x="483" 
d="M351 93q20 29 27.5 64t7.5 70v276h52v-502h-70l30 108l-23 -38q-25 -43 -66.5 -61.5t-89.5 -18.5q-88 0 -130 45.5t-42 132.5v334h53l-5 -331q0 -60 35 -97.5t96 -37.5q40 0 69.5 12.5t55.5 43.5zM335 652l-67 -102h-59l68 102h58z" />
    <glyph glyph-name="ucircumflex" unicode="&#xfb;" horiz-adv-x="483" 
d="M351 93q20 29 27.5 64t7.5 70v276h52v-502h-70l30 108l-23 -38q-25 -43 -66.5 -61.5t-89.5 -18.5q-88 0 -130 45.5t-42 132.5v334h53l-5 -331q0 -60 35 -97.5t96 -37.5q40 0 69.5 12.5t55.5 43.5zM255 700l115 -132h-62l-66 82l-68 -82h-61l115 132h27z" />
    <glyph glyph-name="udieresis" unicode="&#xfc;" horiz-adv-x="483" 
d="M351 93q20 29 27.5 64t7.5 70v276h52v-502h-70l30 108l-23 -38q-25 -43 -66.5 -61.5t-89.5 -18.5q-88 0 -130 45.5t-42 132.5v334h53l-5 -331q0 -60 35 -97.5t96 -37.5q40 0 69.5 12.5t55.5 43.5zM134 647h76v-75h-76v75zM274 647h76v-75h-76v75z" />
    <glyph glyph-name="yacute" unicode="&#xfd;" horiz-adv-x="510" 
d="M123 500l158 -430l159 430h58l-186 -478q-9 -22 -17 -44t-16 -45q-12 -31 -25 -56q-14 -23 -32 -41t-44 -28q-23 -10 -57 -10h-15v47q41 0 67.5 12.5t46.5 48.5q4 8 7.5 17t7.5 17q3 9 6 18.5t6 17.5q2 10 5 17.5t5 14.5l1 2l-195 490h60zM358 652l-67 -102h-59l68 102
h58z" />
    <glyph glyph-name="ydieresis" unicode="&#xff;" horiz-adv-x="510" 
d="M123 500l158 -430l159 430h58l-186 -478q-9 -22 -17 -44t-16 -45q-12 -31 -25 -56q-14 -23 -32 -41t-44 -28q-23 -10 -57 -10h-15v47q41 0 67.5 12.5t46.5 48.5q4 8 7.5 17t7.5 17q3 9 6 18.5t6 17.5q2 10 5 17.5t5 14.5l1 2l-195 490h60zM175 647h76v-75h-76v75z
M315 647h76v-75h-76v75z" />
    <glyph glyph-name="Amacron" unicode="&#x100;" horiz-adv-x="706" 
d="M403 700l297 -700h-74l-52 185h-412l-53 -185h-74l297 700h71zM184 228h367l-141 334l-42 95zM449 803v-53h-192v53h192z" />
    <glyph glyph-name="amacron" unicode="&#x101;" horiz-adv-x="496" 
d="M280 500q38 0 69.5 -7.5t54 -24.5t35.5 -45.5t13 -69.5v-353l-70 1l28 96l-20 -26q-31 -42 -75.5 -60.5t-95.5 -18.5q-31 0 -59.5 8t-50.5 24.5t-35 42.5t-13 61q0 121 166 143l79 10q9 1 21 3t24.5 5t23.5 7t17 10q15 12 15 49q-1 26 -12.5 45t-29.5 31.5t-40.5 18.5
t-46.5 6q-54 0 -94 -26.5t-54 -80.5h-61q6 39 26.5 67.5t49.5 47t64 27.5t71 9zM404 266l-9 -5q-8 -5 -21 -9t-28 -7.5t-30.5 -5.5t-27.5 -4q-15 -2 -30.5 -4t-30.5 -4t-29 -5.5t-27 -8.5q-27 -12 -42.5 -35t-17.5 -48t11 -47.5t43 -32.5q29 -9 54 -9q33 0 66.5 11.5
t59.5 32.5t42.5 50.5t16.5 65.5v65zM374 634v-53h-192v53h192z" />
    <glyph glyph-name="Abreve" unicode="&#x102;" horiz-adv-x="706" 
d="M403 700l297 -700h-74l-52 185h-412l-53 -185h-74l297 700h71zM184 228h367l-141 334l-42 95zM294 864q0 -14 3 -28t10 -25t18.5 -17.5t28.5 -6.5t28.5 6.5t18 17.5t9.5 25t3 28h46q0 -33 -15.5 -62t-48.5 -41q-19 -9 -41 -9q-20 0 -40.5 8.5t-34.5 23.5
q-17 15 -24.5 36.5t-7.5 43.5h47z" />
    <glyph glyph-name="abreve" unicode="&#x103;" horiz-adv-x="496" 
d="M280 500q38 0 69.5 -7.5t54 -24.5t35.5 -45.5t13 -69.5v-353l-70 1l28 96l-20 -26q-31 -42 -75.5 -60.5t-95.5 -18.5q-31 0 -59.5 8t-50.5 24.5t-35 42.5t-13 61q0 121 166 143l79 10q9 1 21 3t24.5 5t23.5 7t17 10q15 12 15 49q-1 26 -12.5 45t-29.5 31.5t-40.5 18.5
t-46.5 6q-54 0 -94 -26.5t-54 -80.5h-61q6 39 26.5 67.5t49.5 47t64 27.5t71 9zM404 266l-9 -5q-8 -5 -21 -9t-28 -7.5t-30.5 -5.5t-27.5 -4q-15 -2 -30.5 -4t-30.5 -4t-29 -5.5t-27 -8.5q-27 -12 -42.5 -35t-17.5 -48t11 -47.5t43 -32.5q29 -9 54 -9q33 0 66.5 11.5
t59.5 32.5t42.5 50.5t16.5 65.5v65zM177 657h45q0 -11 1 -20t5 -20q8 -17 22 -25.5t29 -8.5q33 0 44.5 23t11.5 51h45q0 -23 -7 -45q-14 -29 -38 -45.5t-56 -16.5q-11 0 -21 1.5t-19 6.5q-19 7 -32 22q-17 15 -23.5 35.5t-6.5 41.5z" />
    <glyph glyph-name="Aogonek" unicode="&#x104;" horiz-adv-x="706" 
d="M403 700l297 -700h-74l-52 185h-412l-53 -185h-74l297 700h71zM184 228h367l-141 334l-42 95zM653 45l-6 -44q-18 -2 -31 -16t-13 -33q0 -20 15 -35t35 -15t35 15t15 35h43q0 -19 -7.5 -36t-20 -29.5t-29.5 -20t-36 -7.5t-36 7.5t-29.5 20t-20 29.5t-7.5 36t7.5 36
t20 29.5t29.5 20t36 7.5z" />
    <glyph glyph-name="aogonek" unicode="&#x105;" horiz-adv-x="496" 
d="M280 500q38 0 69.5 -7.5t54 -24.5t35.5 -45.5t13 -69.5v-353l-70 1l28 96l-20 -26q-31 -42 -75.5 -60.5t-95.5 -18.5q-31 0 -59.5 8t-50.5 24.5t-35 42.5t-13 61q0 121 166 143l79 10q9 1 21 3t24.5 5t23.5 7t17 10q15 12 15 49q-1 26 -12.5 45t-29.5 31.5t-40.5 18.5
t-46.5 6q-54 0 -94 -26.5t-54 -80.5h-61q6 39 26.5 67.5t49.5 47t64 27.5t71 9zM404 266l-9 -5q-8 -5 -21 -9t-28 -7.5t-30.5 -5.5t-27.5 -4q-15 -2 -30.5 -4t-30.5 -4t-29 -5.5t-27 -8.5q-27 -12 -42.5 -35t-17.5 -48t11 -47.5t43 -32.5q29 -9 54 -9q33 0 66.5 11.5
t59.5 32.5t42.5 50.5t16.5 65.5v65zM452 45l-6 -44q-18 -2 -31 -16t-13 -33q0 -20 15 -35t35 -15t35 15t15 35h43q0 -19 -7.5 -36t-20 -29.5t-29.5 -20t-36 -7.5t-36 7.5t-29.5 20t-20 29.5t-7.5 36t7.5 36t20 29.5t29.5 20t36 7.5z" />
    <glyph glyph-name="Cacute" unicode="&#x106;" horiz-adv-x="702" 
d="M384 -11q-81 0 -143 27t-104 75.5t-63.5 116t-21.5 148.5q0 75 23 138.5t66 109t104.5 71t138.5 25.5q48 0 95 -13t85.5 -39t65.5 -64.5t35 -88.5h-62q-4 31 -21.5 58t-43.5 48t-56.5 34t-59.5 16q-19 3 -38 3q-61 0 -111.5 -21.5t-86.5 -61t-56 -94.5t-22 -121
q-1 -70 16.5 -129t53 -101.5t87.5 -66t119 -23.5q49 0 89 15t69.5 42.5t49 66t26.5 84.5h57q-18 -118 -92.5 -186.5t-198.5 -68.5zM414 851l-67 -102h-59l68 102h58z" />
    <glyph glyph-name="cacute" unicode="&#x107;" horiz-adv-x="521" 
d="M270 462q-46 -1 -78 -19t-51.5 -47t-28 -66.5t-8.5 -77.5q0 -42 9 -79.5t28.5 -66t51.5 -45.5t77 -17q62 0 104.5 33.5t56.5 93.5h55q-17 -82 -76 -126.5t-140 -44.5q-58 0 -100 20t-68.5 54.5t-39 80t-12.5 97.5q0 51 14.5 97t42 81t68.5 55.5t95 20.5q84 0 139.5 -36.5
t76.5 -119.5h-60q-11 50 -50 82t-106 30zM334 652l-67 -102h-59l68 102h58z" />
    <glyph glyph-name="Ccircumflex" unicode="&#x108;" horiz-adv-x="702" 
d="M384 -11q-81 0 -143 27t-104 75.5t-63.5 116t-21.5 148.5q0 75 23 138.5t66 109t104.5 71t138.5 25.5q48 0 95 -13t85.5 -39t65.5 -64.5t35 -88.5h-62q-4 31 -21.5 58t-43.5 48t-56.5 34t-59.5 16q-19 3 -38 3q-61 0 -111.5 -21.5t-86.5 -61t-56 -94.5t-22 -121
q-1 -70 16.5 -129t53 -101.5t87.5 -66t119 -23.5q49 0 89 15t69.5 42.5t49 66t26.5 84.5h57q-18 -118 -92.5 -186.5t-198.5 -68.5zM365 882l115 -132h-62l-66 82l-68 -82h-61l115 132h27z" />
    <glyph glyph-name="ccircumflex" unicode="&#x109;" horiz-adv-x="521" 
d="M270 462q-46 -1 -78 -19t-51.5 -47t-28 -66.5t-8.5 -77.5q0 -42 9 -79.5t28.5 -66t51.5 -45.5t77 -17q62 0 104.5 33.5t56.5 93.5h55q-17 -82 -76 -126.5t-140 -44.5q-58 0 -100 20t-68.5 54.5t-39 80t-12.5 97.5q0 51 14.5 97t42 81t68.5 55.5t95 20.5q84 0 139.5 -36.5
t76.5 -119.5h-60q-11 50 -50 82t-106 30zM274 700l115 -132h-62l-66 82l-68 -82h-61l115 132h27z" />
    <glyph glyph-name="Cdotaccent" unicode="&#x10a;" horiz-adv-x="702" 
d="M384 -11q-81 0 -143 27t-104 75.5t-63.5 116t-21.5 148.5q0 75 23 138.5t66 109t104.5 71t138.5 25.5q48 0 95 -13t85.5 -39t65.5 -64.5t35 -88.5h-62q-4 31 -21.5 58t-43.5 48t-56.5 34t-59.5 16q-19 3 -38 3q-61 0 -111.5 -21.5t-86.5 -61t-56 -94.5t-22 -121
q-1 -70 16.5 -129t53 -101.5t87.5 -66t119 -23.5q49 0 89 15t69.5 42.5t49 66t26.5 84.5h57q-18 -118 -92.5 -186.5t-198.5 -68.5zM391 843v-93h-79v93h79z" />
    <glyph glyph-name="cdotaccent" unicode="&#x10b;" horiz-adv-x="521" 
d="M270 462q-46 -1 -78 -19t-51.5 -47t-28 -66.5t-8.5 -77.5q0 -42 9 -79.5t28.5 -66t51.5 -45.5t77 -17q62 0 104.5 33.5t56.5 93.5h55q-17 -82 -76 -126.5t-140 -44.5q-58 0 -100 20t-68.5 54.5t-39 80t-12.5 97.5q0 51 14.5 97t42 81t68.5 55.5t95 20.5q84 0 139.5 -36.5
t76.5 -119.5h-60q-11 50 -50 82t-106 30zM300 700v-93h-79v93h79z" />
    <glyph glyph-name="Ccaron" unicode="&#x10c;" horiz-adv-x="702" 
d="M384 -11q-81 0 -143 27t-104 75.5t-63.5 116t-21.5 148.5q0 75 23 138.5t66 109t104.5 71t138.5 25.5q48 0 95 -13t85.5 -39t65.5 -64.5t35 -88.5h-62q-4 31 -21.5 58t-43.5 48t-56.5 34t-59.5 16q-19 3 -38 3q-61 0 -111.5 -21.5t-86.5 -61t-56 -94.5t-22 -121
q-1 -70 16.5 -129t53 -101.5t87.5 -66t119 -23.5q49 0 89 15t69.5 42.5t49 66t26.5 84.5h57q-18 -118 -92.5 -186.5t-198.5 -68.5zM338 749l-115 132h61l68 -82l66 82h62l-115 -132h-27z" />
    <glyph glyph-name="ccaron" unicode="&#x10d;" horiz-adv-x="521" 
d="M270 462q-46 -1 -78 -19t-51.5 -47t-28 -66.5t-8.5 -77.5q0 -42 9 -79.5t28.5 -66t51.5 -45.5t77 -17q62 0 104.5 33.5t56.5 93.5h55q-17 -82 -76 -126.5t-140 -44.5q-58 0 -100 20t-68.5 54.5t-39 80t-12.5 97.5q0 51 14.5 97t42 81t68.5 55.5t95 20.5q84 0 139.5 -36.5
t76.5 -119.5h-60q-11 50 -50 82t-106 30zM247 568l-115 132h61l68 -82l66 82h62l-115 -132h-27z" />
    <glyph glyph-name="Dcaron" unicode="&#x10e;" horiz-adv-x="662" 
d="M290 0h-259v699l259 1q174 -5 261 -89.5t87 -260.5t-87 -260.5t-261 -89.5zM85 43h168q85 0 147 17t102 54t59 95.5t19 140.5q0 88 -21.5 147t-63 94.5t-102.5 50.5t-140 15h-168v-614zM288 749l-115 132h61l68 -82l66 82h62l-115 -132h-27z" />
    <glyph glyph-name="Dcroat" unicode="&#x110;" horiz-adv-x="662" 
d="M290 0h-259v340h-50v49h50v310l259 1q174 -5 261 -89.5t87 -260.5t-87 -260.5t-261 -89.5zM85 43h168q85 0 147 17t102 54t59 95.5t19 140.5q0 88 -21.5 147t-63 94.5t-102.5 50.5t-140 15h-168v-268h171v-49h-171v-297z" />
    <glyph glyph-name="dcroat" unicode="&#x111;" horiz-adv-x="615" 
d="M481 121q-25 -66 -72 -97t-107 -31q-58 0 -98.5 20t-66 53.5t-37.5 78.5t-12 96q0 33 6 69q9 39 26 72.5t42 58t59 38.5t77 14q25 0 49.5 -5.5t46.5 -16.5t41 -27.5t32 -38.5l10 -19v195h-97v53h97v67h45v-67h50v-53h-50v-579h-68zM309 36q43 3 70 23q23 15 39 36.5
t26 46t14.5 51.5t4.5 53q0 39 -8 75t-26 64t-47.5 45.5t-72.5 18.5q-44 0 -76.5 -18.5t-53.5 -48.5t-31.5 -68t-10.5 -77q0 -37 10 -73.5t30 -64.5t50 -45.5t71 -17.5h11z" />
    <glyph glyph-name="Emacron" unicode="&#x112;" horiz-adv-x="568" 
d="M564 700v-45h-464v-272h434v-54l-434 23v-307h469v-45h-524v700h519zM405 803v-53h-192v53h192z" />
    <glyph glyph-name="emacron" unicode="&#x113;" horiz-adv-x="500" 
d="M24 251q0 51 14.5 97.5t42.5 82t69 56.5t95 21q61 0 101 -22t64 -58.5t34.5 -83.5t11.5 -98h-382v-6q0 -40 11.5 -75.5t34 -62t54.5 -41.5t74 -15q26 0 48 7q12 3 23 8.5t21 11.5q22 15 37 35q7 10 12 21.5t10 23.5h61q-10 -36 -31 -64.5t-50 -48t-63.5 -30t-70.5 -10.5
q-55 0 -96.5 19t-69.5 53t-41.5 79.5t-13.5 99.5zM81 293l322 -8v7q0 36 -11.5 66.5t-32.5 52.5t-50.5 34.5t-65.5 12.5q-35 0 -63 -12.5t-48 -34.5t-32.5 -50.5t-17.5 -60.5zM346 634v-53h-192v53h192z" />
    <glyph glyph-name="Ebreve" unicode="&#x114;" horiz-adv-x="568" 
d="M564 700v-45h-464v-272h434v-54l-434 23v-307h469v-45h-524v700h519zM250 864q0 -14 3 -28t10 -25t18.5 -17.5t28.5 -6.5t28.5 6.5t18 17.5t9.5 25t3 28h46q0 -33 -15.5 -62t-48.5 -41q-19 -9 -41 -9q-20 0 -40.5 8.5t-34.5 23.5q-17 15 -24.5 36.5t-7.5 43.5h47z" />
    <glyph glyph-name="ebreve" unicode="&#x115;" horiz-adv-x="500" 
d="M24 251q0 51 14.5 97.5t42.5 82t69 56.5t95 21q61 0 101 -22t64 -58.5t34.5 -83.5t11.5 -98h-382v-6q0 -40 11.5 -75.5t34 -62t54.5 -41.5t74 -15q26 0 48 7q12 3 23 8.5t21 11.5q22 15 37 35q7 10 12 21.5t10 23.5h61q-10 -36 -31 -64.5t-50 -48t-63.5 -30t-70.5 -10.5
q-55 0 -96.5 19t-69.5 53t-41.5 79.5t-13.5 99.5zM81 293l322 -8v7q0 36 -11.5 66.5t-32.5 52.5t-50.5 34.5t-65.5 12.5q-35 0 -63 -12.5t-48 -34.5t-32.5 -50.5t-17.5 -60.5zM149 657h45q0 -11 1 -20t5 -20q8 -17 22 -25.5t29 -8.5q33 0 44.5 23t11.5 51h45q0 -23 -7 -45
q-14 -29 -38 -45.5t-56 -16.5q-11 0 -21 1.5t-19 6.5q-19 7 -32 22q-17 15 -23.5 35.5t-6.5 41.5z" />
    <glyph glyph-name="Edotaccent" unicode="&#x116;" horiz-adv-x="568" 
d="M564 700v-45h-464v-272h434v-54l-434 23v-307h469v-45h-524v700h519zM349 843v-93h-79v93h79z" />
    <glyph glyph-name="edotaccent" unicode="&#x117;" horiz-adv-x="500" 
d="M24 251q0 51 14.5 97.5t42.5 82t69 56.5t95 21q61 0 101 -22t64 -58.5t34.5 -83.5t11.5 -98h-382v-6q0 -40 11.5 -75.5t34 -62t54.5 -41.5t74 -15q26 0 48 7q12 3 23 8.5t21 11.5q22 15 37 35q7 10 12 21.5t10 23.5h61q-10 -36 -31 -64.5t-50 -48t-63.5 -30t-70.5 -10.5
q-55 0 -96.5 19t-69.5 53t-41.5 79.5t-13.5 99.5zM81 293l322 -8v7q0 36 -11.5 66.5t-32.5 52.5t-50.5 34.5t-65.5 12.5q-35 0 -63 -12.5t-48 -34.5t-32.5 -50.5t-17.5 -60.5zM290 700v-93h-79v93h79z" />
    <glyph glyph-name="Eogonek" unicode="&#x118;" horiz-adv-x="568" 
d="M564 700v-45h-464v-272h434v-54l-434 23v-307h469v-45h-524v700h519zM476 44l-6 -44q-18 -2 -31 -16t-13 -33q0 -20 15 -35t35 -15t35 15t15 35h43q0 -19 -7.5 -36t-20 -29.5t-29.5 -20t-36 -7.5t-36 7.5t-29.5 20t-20 29.5t-7.5 36t7.5 36t20 29.5t29.5 20t36 7.5z" />
    <glyph glyph-name="eogonek" unicode="&#x119;" horiz-adv-x="500" 
d="M24 251q0 51 14.5 97.5t42.5 82t69 56.5t95 21q61 0 101 -22t64 -58.5t34.5 -83.5t11.5 -98h-382v-6q0 -40 11.5 -75.5t34 -62t54.5 -41.5t74 -15q26 0 48 7q12 3 23 8.5t21 11.5q22 15 37 35q7 10 12 21.5t10 23.5h61q-10 -36 -31 -64.5t-50 -48t-63.5 -30t-70.5 -10.5
q-55 0 -96.5 19t-69.5 53t-41.5 79.5t-13.5 99.5zM81 293l322 -8v7q0 36 -11.5 66.5t-32.5 52.5t-50.5 34.5t-65.5 12.5q-35 0 -63 -12.5t-48 -34.5t-32.5 -50.5t-17.5 -60.5zM377 80l-6 -44q-18 -2 -31 -16t-13 -33q0 -20 15 -35t35 -15t35 15t15 35h43q0 -19 -7.5 -36
t-20 -29.5t-29.5 -20t-36 -7.5t-36 7.5t-29.5 20t-20 29.5t-7.5 36t7.5 36t20 29.5t29.5 20t36 7.5z" />
    <glyph glyph-name="Ecaron" unicode="&#x11a;" horiz-adv-x="568" 
d="M564 700v-45h-464v-272h434v-54l-434 23v-307h469v-45h-524v700h519zM296 749l-115 132h61l68 -82l66 82h62l-115 -132h-27z" />
    <glyph glyph-name="ecaron" unicode="&#x11b;" horiz-adv-x="500" 
d="M24 251q0 51 14.5 97.5t42.5 82t69 56.5t95 21q61 0 101 -22t64 -58.5t34.5 -83.5t11.5 -98h-382v-6q0 -40 11.5 -75.5t34 -62t54.5 -41.5t74 -15q26 0 48 7q12 3 23 8.5t21 11.5q22 15 37 35q7 10 12 21.5t10 23.5h61q-10 -36 -31 -64.5t-50 -48t-63.5 -30t-70.5 -10.5
q-55 0 -96.5 19t-69.5 53t-41.5 79.5t-13.5 99.5zM81 293l322 -8v7q0 36 -11.5 66.5t-32.5 52.5t-50.5 34.5t-65.5 12.5q-35 0 -63 -12.5t-48 -34.5t-32.5 -50.5t-17.5 -60.5zM237 568l-115 132h61l68 -82l66 82h62l-115 -132h-27z" />
    <glyph glyph-name="Gcircumflex" unicode="&#x11c;" horiz-adv-x="712" 
d="M27 346q0 77 23.5 142t67 112t105.5 73.5t139 26.5q53 0 102 -13.5t88 -40.5t66.5 -67.5t38.5 -94.5h-54q-3 29 -17 52t-33 45q-42 38 -88 57.5t-103 19.5q-70 0 -122.5 -25t-87.5 -67.5t-53 -99t-18 -120.5q0 -63 16 -114.5t56 -100.5q17 -20 39 -37.5t47.5 -30t52 -19
t52.5 -5.5q62 3 102.5 25t64 57t32 82t7.5 99h-176v41h294l-4 -341h-68l39 300h-38q2 -62 -10.5 -117.5t-41 -97.5t-74 -67.5t-109.5 -28.5q-77 0 -139 26.5t-105.5 74t-67 112.5t-23.5 142zM370 882l115 -132h-62l-66 82l-68 -82h-61l115 132h27z" />
    <glyph glyph-name="gcircumflex" unicode="&#x11d;" horiz-adv-x="575" 
d="M509 488v-442q0 -119 -53 -182t-176 -63q-31 0 -67.5 7.5t-68.5 23.5t-56.5 40.5t-32.5 58.5h63q8 -23 26 -39.5t42 -27t50.5 -15.5t51.5 -5q15 0 28.5 2t24.5 5q41 12 65 35t36.5 55t16 72t3.5 86l-11 -19q-28 -45 -74.5 -67.5t-98.5 -22.5q-56 0 -97 21.5t-67.5 57
t-39.5 81.5t-13 96q0 56 13 102.5t40 80.5t68.5 53t98.5 19q58 0 103.5 -25t74.5 -76l-21 88h71zM288 45q43 0 75 16.5t53.5 44t32 63t10.5 74.5q0 14 -1.5 28t-3.5 29q-7 32 -20 60.5t-33 49.5t-48 33.5t-65 12.5q-59 0 -105.5 -33.5t-59.5 -92.5q-9 -39 -9 -85
q0 -44 10 -80.5t31.5 -63t54.5 -41.5t78 -15zM301 700l115 -132h-62l-66 82l-68 -82h-61l115 132h27z" />
    <glyph glyph-name="Gbreve" unicode="&#x11e;" horiz-adv-x="712" 
d="M27 346q0 77 23.5 142t67 112t105.5 73.5t139 26.5q53 0 102 -13.5t88 -40.5t66.5 -67.5t38.5 -94.5h-54q-3 29 -17 52t-33 45q-42 38 -88 57.5t-103 19.5q-70 0 -122.5 -25t-87.5 -67.5t-53 -99t-18 -120.5q0 -63 16 -114.5t56 -100.5q17 -20 39 -37.5t47.5 -30t52 -19
t52.5 -5.5q62 3 102.5 25t64 57t32 82t7.5 99h-176v41h294l-4 -341h-68l39 300h-38q2 -62 -10.5 -117.5t-41 -97.5t-74 -67.5t-109.5 -28.5q-77 0 -139 26.5t-105.5 74t-67 112.5t-23.5 142zM297 864q0 -14 3 -28t10 -25t18.5 -17.5t28.5 -6.5t28.5 6.5t18 17.5t9.5 25t3 28
h46q0 -33 -15.5 -62t-48.5 -41q-19 -9 -41 -9q-20 0 -40.5 8.5t-34.5 23.5q-17 15 -24.5 36.5t-7.5 43.5h47z" />
    <glyph glyph-name="gbreve" unicode="&#x11f;" horiz-adv-x="575" 
d="M509 488v-442q0 -119 -53 -182t-176 -63q-31 0 -67.5 7.5t-68.5 23.5t-56.5 40.5t-32.5 58.5h63q8 -23 26 -39.5t42 -27t50.5 -15.5t51.5 -5q15 0 28.5 2t24.5 5q41 12 65 35t36.5 55t16 72t3.5 86l-11 -19q-28 -45 -74.5 -67.5t-98.5 -22.5q-56 0 -97 21.5t-67.5 57
t-39.5 81.5t-13 96q0 56 13 102.5t40 80.5t68.5 53t98.5 19q58 0 103.5 -25t74.5 -76l-21 88h71zM288 45q43 0 75 16.5t53.5 44t32 63t10.5 74.5q0 14 -1.5 28t-3.5 29q-7 32 -20 60.5t-33 49.5t-48 33.5t-65 12.5q-59 0 -105.5 -33.5t-59.5 -92.5q-9 -39 -9 -85
q0 -44 10 -80.5t31.5 -63t54.5 -41.5t78 -15zM186 657h45q0 -11 1 -20t5 -20q8 -17 22 -25.5t29 -8.5q33 0 44.5 23t11.5 51h45q0 -23 -7 -45q-14 -29 -38 -45.5t-56 -16.5q-11 0 -21 1.5t-19 6.5q-19 7 -32 22q-17 15 -23.5 35.5t-6.5 41.5z" />
    <glyph glyph-name="Gdotaccent" unicode="&#x120;" horiz-adv-x="712" 
d="M27 346q0 77 23.5 142t67 112t105.5 73.5t139 26.5q53 0 102 -13.5t88 -40.5t66.5 -67.5t38.5 -94.5h-54q-3 29 -17 52t-33 45q-42 38 -88 57.5t-103 19.5q-70 0 -122.5 -25t-87.5 -67.5t-53 -99t-18 -120.5q0 -63 16 -114.5t56 -100.5q17 -20 39 -37.5t47.5 -30t52 -19
t52.5 -5.5q62 3 102.5 25t64 57t32 82t7.5 99h-176v41h294l-4 -341h-68l39 300h-38q2 -62 -10.5 -117.5t-41 -97.5t-74 -67.5t-109.5 -28.5q-77 0 -139 26.5t-105.5 74t-67 112.5t-23.5 142zM396 843v-93h-79v93h79z" />
    <glyph glyph-name="gdotaccent" unicode="&#x121;" horiz-adv-x="575" 
d="M509 488v-442q0 -119 -53 -182t-176 -63q-31 0 -67.5 7.5t-68.5 23.5t-56.5 40.5t-32.5 58.5h63q8 -23 26 -39.5t42 -27t50.5 -15.5t51.5 -5q15 0 28.5 2t24.5 5q41 12 65 35t36.5 55t16 72t3.5 86l-11 -19q-28 -45 -74.5 -67.5t-98.5 -22.5q-56 0 -97 21.5t-67.5 57
t-39.5 81.5t-13 96q0 56 13 102.5t40 80.5t68.5 53t98.5 19q58 0 103.5 -25t74.5 -76l-21 88h71zM288 45q43 0 75 16.5t53.5 44t32 63t10.5 74.5q0 14 -1.5 28t-3.5 29q-7 32 -20 60.5t-33 49.5t-48 33.5t-65 12.5q-59 0 -105.5 -33.5t-59.5 -92.5q-9 -39 -9 -85
q0 -44 10 -80.5t31.5 -63t54.5 -41.5t78 -15zM327 700v-93h-79v93h79z" />
    <glyph glyph-name="uni0122" unicode="&#x122;" horiz-adv-x="712" 
d="M27 346q0 77 23.5 142t67 112t105.5 73.5t139 26.5q53 0 102 -13.5t88 -40.5t66.5 -67.5t38.5 -94.5h-54q-3 29 -17 52t-33 45q-42 38 -88 57.5t-103 19.5q-70 0 -122.5 -25t-87.5 -67.5t-53 -99t-18 -120.5q0 -63 16 -114.5t56 -100.5q17 -20 39 -37.5t47.5 -30t52 -19
t52.5 -5.5q62 3 102.5 25t64 57t32 82t7.5 99h-176v41h294l-4 -341h-68l39 300h-38q2 -62 -10.5 -117.5t-41 -97.5t-74 -67.5t-109.5 -28.5q-77 0 -139 26.5t-105.5 74t-67 112.5t-23.5 142zM385 -60l-67 -102h-59l68 102h58z" />
    <glyph glyph-name="uni0123" unicode="&#x123;" horiz-adv-x="575" 
d="M509 488v-442q0 -119 -53 -182t-176 -63q-31 0 -67.5 7.5t-68.5 23.5t-56.5 40.5t-32.5 58.5h63q8 -23 26 -39.5t42 -27t50.5 -15.5t51.5 -5q15 0 28.5 2t24.5 5q41 12 65 35t36.5 55t16 72t3.5 86l-11 -19q-28 -45 -74.5 -67.5t-98.5 -22.5q-56 0 -97 21.5t-67.5 57
t-39.5 81.5t-13 96q0 56 13 102.5t40 80.5t68.5 53t98.5 19q58 0 103.5 -25t74.5 -76l-21 88h71zM288 45q43 0 75 16.5t53.5 44t32 63t10.5 74.5q0 14 -1.5 28t-3.5 29q-7 32 -20 60.5t-33 49.5t-48 33.5t-65 12.5q-59 0 -105.5 -33.5t-59.5 -92.5q-9 -39 -9 -85
q0 -44 10 -80.5t31.5 -63t54.5 -41.5t78 -15zM381 652l-67 -102h-59l68 102h58z" />
    <glyph glyph-name="Itilde" unicode="&#x128;" horiz-adv-x="117" 
d="M26 699v-700v700zM29 700h51v-700h-51v700zM-3 800q-20 0 -24 -12.5t-4 -28.5h-45q0 40 18.5 63t53.5 23q26 0 43 -7.5t29.5 -17t23 -17t23.5 -7.5q18 0 23.5 12t5.5 35h48q0 -45 -20.5 -69t-59.5 -24q-22 0 -38 8t-29 17t-24 17t-24 8z" />
    <glyph glyph-name="itilde" unicode="&#x129;" horiz-adv-x="186" 
d="M69 502h51v-502h-51v502zM31 617q-20 0 -23.5 -13t-3.5 -28h-45q0 40 18.5 57.5t53.5 17.5q26 0 43 -7.5t29.5 -16.5t22.5 -16.5t23 -7.5q18 0 24 11.5t6 34.5h47q0 -38 -20 -60t-59 -22q-22 0 -38 8t-28.5 17t-24 17t-25.5 8z" />
    <glyph glyph-name="Imacron" unicode="&#x12a;" horiz-adv-x="117" 
d="M26 699v-700v700zM29 700h51v-700h-51v700zM154 803v-53h-192v53h192z" />
    <glyph glyph-name="imacron" unicode="&#x12b;" horiz-adv-x="186" 
d="M69 502h51v-502h-51v502zM189 634v-53h-192v53h192z" />
    <glyph glyph-name="Iogonek" unicode="&#x12e;" horiz-adv-x="117" 
d="M26 699v-700v700zM29 700h51v-700h-51v700zM79 44l-6 -44q-18 -2 -31 -16t-13 -33q0 -20 15 -35t35 -15t35 15t15 35h43q0 -19 -7.5 -36t-20 -29.5t-29.5 -20t-36 -7.5t-36 7.5t-29.5 20t-20 29.5t-7.5 36t7.5 36t20 29.5t29.5 20t36 7.5z" />
    <glyph glyph-name="iogonek" unicode="&#x12f;" horiz-adv-x="186" 
d="M61 639h67v-65h-67v65zM69 502h51v-502h-51v502zM113 44l-6 -44q-18 -2 -31 -16t-13 -33q0 -20 15 -35t35 -15t35 15t15 35h43q0 -19 -7.5 -36t-20 -29.5t-29.5 -20t-36 -7.5t-36 7.5t-29.5 20t-20 29.5t-7.5 36t7.5 36t20 29.5t29.5 20t36 7.5z" />
    <glyph glyph-name="dotlessi" unicode="&#x131;" horiz-adv-x="186" 
d="M69 502h51v-502h-51v502z" />
    <glyph glyph-name="uni0136" unicode="&#x136;" horiz-adv-x="643" 
d="M105 700l-1 -360l415 357h81l-252 -215l269 -482h-67l-238 450l-209 -182l1 -267h-56v699h57zM375 -61l-67 -102h-59l68 102h58z" />
    <glyph glyph-name="uni0137" unicode="&#x137;" horiz-adv-x="487" 
d="M113 700v-451l260 252l65 -3l-186 -179l211 -319h-62l-183 279l-105 -99l20 -180h-67v700h47zM307 -61l-67 -102h-59l68 102h58z" />
    <glyph glyph-name="kgreenlandic" unicode="&#x138;" horiz-adv-x="487" 
d="M113 700v-451l260 252l65 -3l-186 -179l211 -319h-62l-183 279l-105 -99l20 -180h-67v700h47z" />
    <glyph glyph-name="uni013B" unicode="&#x13b;" horiz-adv-x="545" 
d="M85 700v-666l436 26v-60h-491v700h55zM335 -60l-67 -102h-59l68 102h58z" />
    <glyph glyph-name="uni013C" unicode="&#x13c;" horiz-adv-x="217" 
d="M88 700h51v-700h-51v700zM146 -61l-67 -102h-59l68 102h58z" />
    <glyph glyph-name="Nacute" unicode="&#x143;" horiz-adv-x="650" 
d="M624 700v-700h-71l-477 650l16 -650h-62v700h71l477 -650l-17 650h63zM438 851l-67 -102h-59l68 102h58z" />
    <glyph glyph-name="nacute" unicode="&#x144;" horiz-adv-x="487" 
d="M443 376q3 -27 3 -60v-319h-49v308q0 32 -7.5 59t-23.5 47t-40 31.5t-57 11.5q-42 0 -72.5 -16.5t-51 -44t-30 -63t-9.5 -72.5v-258h-50v488h67l-29 -99l20 28q59 81 158 81q49 -2 85 -16q15 -6 29.5 -17t26.5 -25t20 -30.5t10 -33.5zM347 652l-67 -102h-59l68 102h58z
" />
    <glyph glyph-name="uni0145" unicode="&#x145;" horiz-adv-x="650" 
d="M624 700v-700h-71l-477 650l16 -650h-62v700h71l477 -650l-17 650h63zM388 -61l-67 -102h-59l68 102h58z" />
    <glyph glyph-name="uni0146" unicode="&#x146;" horiz-adv-x="487" 
d="M443 376q3 -27 3 -60v-319h-49v308q0 32 -7.5 59t-23.5 47t-40 31.5t-57 11.5q-42 0 -72.5 -16.5t-51 -44t-30 -63t-9.5 -72.5v-258h-50v488h67l-29 -99l20 28q59 81 158 81q49 -2 85 -16q15 -6 29.5 -17t26.5 -25t20 -30.5t10 -33.5zM307 -61l-67 -102h-59l68 102h58z
" />
    <glyph glyph-name="Ncaron" unicode="&#x147;" horiz-adv-x="650" 
d="M624 700v-700h-71l-477 650l16 -650h-62v700h71l477 -650l-17 650h63zM312 749l-115 132h61l68 -82l66 82h62l-115 -132h-27z" />
    <glyph glyph-name="ncaron" unicode="&#x148;" horiz-adv-x="487" 
d="M443 376q3 -27 3 -60v-319h-49v308q0 32 -7.5 59t-23.5 47t-40 31.5t-57 11.5q-42 0 -72.5 -16.5t-51 -44t-30 -63t-9.5 -72.5v-258h-50v488h67l-29 -99l20 28q59 81 158 81q49 -2 85 -16q15 -6 29.5 -17t26.5 -25t20 -30.5t10 -33.5zM230 568l-115 132h61l68 -82l66 82
h62l-115 -132h-27z" />
    <glyph glyph-name="Omacron" unicode="&#x14c;" horiz-adv-x="704" 
d="M702 350q0 -77 -23 -141t-66 -110.5t-104 -72.5t-138 -26q-79 0 -140.5 27t-104 74t-65 111t-22.5 138q0 77 23 141.5t66 111t104.5 72t138.5 25.5q78 0 139 -26.5t104 -73.5t65.5 -111t22.5 -139zM646 350q0 65 -18 121t-53 97.5t-86.5 65t-117.5 23.5
q-69 0 -120.5 -24.5t-86 -66.5t-52 -97.5t-17.5 -118.5q0 -65 18 -121t53.5 -97.5t87 -65.5t117.5 -24q68 0 119.5 24.5t86 66.5t52 98t17.5 119zM458 803v-53h-192v53h192z" />
    <glyph glyph-name="omacron" unicode="&#x14d;" horiz-adv-x="508" 
d="M48 136q-18 51 -18 112q0 53 14.5 99t42.5 80t69.5 54t95.5 20q57 0 99 -20.5t69.5 -55t40.5 -80.5t13 -97q0 -52 -14.5 -98.5t-42.5 -81t-69.5 -54.5t-95.5 -20q-76 2 -125.5 37t-78.5 105zM88 195q15 -66 54.5 -108.5t109.5 -42.5q62 0 104.5 36t54.5 96q5 18 7.5 37
t2.5 39q0 58 -18.5 109.5t-71.5 81.5l-1 1q-34 16 -78 16q-43 0 -73.5 -16.5t-56.5 -48.5q-5 -8 -9 -16l-8 -16t-6 -17.5t-4 -17.5q-12 -36 -12 -76q0 -14 1.5 -28.5t3.5 -28.5zM350 634v-53h-192v53h192z" />
    <glyph glyph-name="Obreve" unicode="&#x14e;" horiz-adv-x="704" 
d="M702 350q0 -77 -23 -141t-66 -110.5t-104 -72.5t-138 -26q-79 0 -140.5 27t-104 74t-65 111t-22.5 138q0 77 23 141.5t66 111t104.5 72t138.5 25.5q78 0 139 -26.5t104 -73.5t65.5 -111t22.5 -139zM646 350q0 65 -18 121t-53 97.5t-86.5 65t-117.5 23.5
q-69 0 -120.5 -24.5t-86 -66.5t-52 -97.5t-17.5 -118.5q0 -65 18 -121t53.5 -97.5t87 -65.5t117.5 -24q68 0 119.5 24.5t86 66.5t52 98t17.5 119zM303 864q0 -14 3 -28t10 -25t18.5 -17.5t28.5 -6.5t28.5 6.5t18 17.5t9.5 25t3 28h46q0 -33 -15.5 -62t-48.5 -41
q-19 -9 -41 -9q-20 0 -40.5 8.5t-34.5 23.5q-17 15 -24.5 36.5t-7.5 43.5h47z" />
    <glyph glyph-name="obreve" unicode="&#x14f;" horiz-adv-x="508" 
d="M48 136q-18 51 -18 112q0 53 14.5 99t42.5 80t69.5 54t95.5 20q57 0 99 -20.5t69.5 -55t40.5 -80.5t13 -97q0 -52 -14.5 -98.5t-42.5 -81t-69.5 -54.5t-95.5 -20q-76 2 -125.5 37t-78.5 105zM88 195q15 -66 54.5 -108.5t109.5 -42.5q62 0 104.5 36t54.5 96q5 18 7.5 37
t2.5 39q0 58 -18.5 109.5t-71.5 81.5l-1 1q-34 16 -78 16q-43 0 -73.5 -16.5t-56.5 -48.5q-5 -8 -9 -16l-8 -16t-6 -17.5t-4 -17.5q-12 -36 -12 -76q0 -14 1.5 -28.5t3.5 -28.5zM153 657h45q0 -11 1 -20t5 -20q8 -17 22 -25.5t29 -8.5q33 0 44.5 23t11.5 51h45q0 -23 -7 -45
q-14 -29 -38 -45.5t-56 -16.5q-11 0 -21 1.5t-19 6.5q-19 7 -32 22q-17 15 -23.5 35.5t-6.5 41.5z" />
    <glyph glyph-name="Ohungarumlaut" unicode="&#x150;" horiz-adv-x="704" 
d="M702 350q0 -77 -23 -141t-66 -110.5t-104 -72.5t-138 -26q-79 0 -140.5 27t-104 74t-65 111t-22.5 138q0 77 23 141.5t66 111t104.5 72t138.5 25.5q78 0 139 -26.5t104 -73.5t65.5 -111t22.5 -139zM646 350q0 65 -18 121t-53 97.5t-86.5 65t-117.5 23.5
q-69 0 -120.5 -24.5t-86 -66.5t-52 -97.5t-17.5 -118.5q0 -65 18 -121t53.5 -97.5t87 -65.5t117.5 -24q68 0 119.5 24.5t86 66.5t52 98t17.5 119zM396 852l-67 -102h-59l68 102h58zM515 852l-67 -102h-59l68 102h58z" />
    <glyph glyph-name="ohungarumlaut" unicode="&#x151;" horiz-adv-x="508" 
d="M48 136q-18 51 -18 112q0 53 14.5 99t42.5 80t69.5 54t95.5 20q57 0 99 -20.5t69.5 -55t40.5 -80.5t13 -97q0 -52 -14.5 -98.5t-42.5 -81t-69.5 -54.5t-95.5 -20q-76 2 -125.5 37t-78.5 105zM88 195q15 -66 54.5 -108.5t109.5 -42.5q62 0 104.5 36t54.5 96q5 18 7.5 37
t2.5 39q0 58 -18.5 109.5t-71.5 81.5l-1 1q-34 16 -78 16q-43 0 -73.5 -16.5t-56.5 -48.5q-5 -8 -9 -16l-8 -16t-6 -17.5t-4 -17.5q-12 -36 -12 -76q0 -14 1.5 -28.5t3.5 -28.5zM288 652l-67 -102h-59l68 102h58zM407 652l-67 -102h-59l68 102h58z" />
    <glyph glyph-name="oe" unicode="&#x153;" horiz-adv-x="888" 
d="M52 136q-18 51 -18 112q0 53 14.5 99t42.5 80t69.5 54t95.5 20q57 0 99 -20.5t69.5 -55t40.5 -80.5t13 -97q0 -52 -14.5 -98.5t-42.5 -81t-69.5 -54.5t-95.5 -20q-76 2 -125.5 37t-78.5 105zM92 195q15 -66 54.5 -108.5t109.5 -42.5q62 0 104.5 36t54.5 96q5 18 7.5 37
t2.5 39q0 58 -18.5 109.5t-71.5 81.5l-1 1q-34 16 -78 16q-43 0 -73.5 -16.5t-56.5 -48.5q-5 -8 -9 -16l-8 -16t-6 -17.5t-4 -17.5q-12 -36 -12 -76q0 -14 1.5 -28.5t3.5 -28.5zM429 245q0 51 14.5 97.5t42.5 82t69 56.5t95 21q61 0 101 -22t64 -58.5t34.5 -83.5t11.5 -98
h-382v-6q0 -40 11.5 -75.5t34 -62t54.5 -41.5t74 -15q26 0 48 7q12 3 23 8.5t21 11.5q22 15 37 35q7 10 12 21.5t10 23.5h61q-10 -36 -31 -64.5t-50 -48t-63.5 -30t-70.5 -10.5q-55 0 -96.5 19t-69.5 53t-41.5 79.5t-13.5 99.5zM486 287l322 -8v7q0 36 -11.5 66.5
t-32.5 52.5t-50.5 34.5t-65.5 12.5q-35 0 -63 -12.5t-48 -34.5t-32.5 -50.5t-17.5 -60.5z" />
    <glyph glyph-name="Racute" unicode="&#x154;" horiz-adv-x="612" 
d="M24 700h347q41 0 84 -9.5t76 -33.5v-1q35 -22 51 -58t16 -76q0 -45 -17 -83.5t-55 -64.5l-20 -14h92v-360h-66l31 318h-484v-318h-55v700zM369 361q33 0 65 9t57 27.5t40 46t15 63.5q0 42 -14 71t-38 46.5t-56 25t-69 7.5h-290v-296h290zM390 851l-67 -102h-59l68 102h58
z" />
    <glyph glyph-name="racute" unicode="&#x155;" horiz-adv-x="320" 
d="M115 398q26 57 70.5 80t104.5 23v-52q-25 0 -41 -4q-19 -3 -36 -12t-31.5 -22.5t-24.5 -30t-16 -34.5q-8 -26 -12 -48.5t-4 -53.5v-244h-50v480h60zM223 652l-67 -102h-59l68 102h58z" />
    <glyph glyph-name="Rcaron" unicode="&#x158;" horiz-adv-x="617" 
d="M24 700h347q41 0 84 -9.5t76 -33.5v-1q35 -22 51 -58t16 -76q0 -45 -17 -83.5t-55 -64.5l-20 -14h92v-360h-66l31 318h-484v-318h-55v700zM369 361q33 0 65 9t57 27.5t40 46t15 63.5q0 42 -14 71t-38 46.5t-56 25t-69 7.5h-290v-296h290zM314 749l-115 132h61l68 -82
l66 82h62l-115 -132h-27z" />
    <glyph glyph-name="rcaron" unicode="&#x159;" horiz-adv-x="320" 
d="M115 398q26 57 70.5 80t104.5 23v-52q-25 0 -41 -4q-19 -3 -36 -12t-31.5 -22.5t-24.5 -30t-16 -34.5q-8 -26 -12 -48.5t-4 -53.5v-244h-50v480h60zM146 568l-115 132h61l68 -82l66 82h62l-115 -132h-27z" />
    <glyph glyph-name="Sacute" unicode="&#x15a;" horiz-adv-x="627" 
d="M136 54q-40 31 -63 66.5t-33 85.5l64 1q5 -44 26.5 -76t53.5 -52.5t71.5 -30.5t79.5 -10q34 0 71.5 8t69 26t52 46.5t20.5 68.5q0 32 -15 54t-37.5 37t-50 24.5t-53.5 15.5l-161 37q-33 9 -61.5 20.5t-50 29.5t-33.5 44.5t-12 63.5q0 46 22.5 86.5t63.5 63.5
q71 35 152 35q47 0 95 -13t88 -39t67.5 -64t34.5 -89l-61 -1q-6 42 -27.5 73.5t-53 51.5t-70 30t-77.5 10q-23 0 -47 -3.5t-46 -12t-40.5 -22.5t-30.5 -36q-14 -23 -17 -49t5 -49.5t25.5 -42.5t43.5 -28l42 -12l177 -42q34 -7 66.5 -20t58 -34t41 -50t15.5 -68
q0 -36 -13 -69q-17 -35 -44.5 -58.5t-61.5 -38t-71 -20.5t-73 -6q-57 0 -105.5 13.5t-96.5 44.5zM377 851l-67 -102h-59l68 102h58z" />
    <glyph glyph-name="sacute" unicode="&#x15b;" horiz-adv-x="447" 
d="M123 373q-1 -24 7 -38.5t21.5 -24t30.5 -16t34 -12.5q19 -6 38.5 -10t39.5 -9q9 -2 17 -4l16 -4q46 -13 73 -39.5t27 -76.5q-2 -35 -15.5 -64t-45.5 -46q-13 -8 -27.5 -13.5t-30.5 -9.5q-33 -6 -67 -6q-55 0 -104 23.5t-78 71.5q-16 29 -19 61h55q6 -29 22 -50.5
t37.5 -35.5t48 -20.5t54.5 -6.5q20 0 39 4t35 13t28 23.5t17 35.5q9 31 -10 62q-10 17 -31 27t-39 15q-19 5 -38 8.5t-38 7.5q-29 6 -56 14t-47.5 22.5t-33 37t-12.5 55.5q0 35 14 60t37 41t52.5 23.5t60.5 7.5q52 0 99.5 -17t77.5 -62q15 -26 21 -61h-57q-11 55 -49.5 78.5
t-91.5 23.5q-20 0 -40 -5.5t-35.5 -16.5t-25.5 -27.5t-11 -39.5zM287 652l-67 -102h-59l68 102h58z" />
    <glyph glyph-name="Scircumflex" unicode="&#x15c;" horiz-adv-x="627" 
d="M136 54q-40 31 -63 66.5t-33 85.5l64 1q5 -44 26.5 -76t53.5 -52.5t71.5 -30.5t79.5 -10q34 0 71.5 8t69 26t52 46.5t20.5 68.5q0 32 -15 54t-37.5 37t-50 24.5t-53.5 15.5l-161 37q-33 9 -61.5 20.5t-50 29.5t-33.5 44.5t-12 63.5q0 46 22.5 86.5t63.5 63.5
q71 35 152 35q47 0 95 -13t88 -39t67.5 -64t34.5 -89l-61 -1q-6 42 -27.5 73.5t-53 51.5t-70 30t-77.5 10q-23 0 -47 -3.5t-46 -12t-40.5 -22.5t-30.5 -36q-14 -23 -17 -49t5 -49.5t25.5 -42.5t43.5 -28l42 -12l177 -42q34 -7 66.5 -20t58 -34t41 -50t15.5 -68
q0 -36 -13 -69q-17 -35 -44.5 -58.5t-61.5 -38t-71 -20.5t-73 -6q-57 0 -105.5 13.5t-96.5 44.5zM327 882l115 -132h-62l-66 82l-68 -82h-61l115 132h27z" />
    <glyph glyph-name="scircumflex" unicode="&#x15d;" horiz-adv-x="447" 
d="M123 373q-1 -24 7 -38.5t21.5 -24t30.5 -16t34 -12.5q19 -6 38.5 -10t39.5 -9q9 -2 17 -4l16 -4q46 -13 73 -39.5t27 -76.5q-2 -35 -15.5 -64t-45.5 -46q-13 -8 -27.5 -13.5t-30.5 -9.5q-33 -6 -67 -6q-55 0 -104 23.5t-78 71.5q-16 29 -19 61h55q6 -29 22 -50.5
t37.5 -35.5t48 -20.5t54.5 -6.5q20 0 39 4t35 13t28 23.5t17 35.5q9 31 -10 62q-10 17 -31 27t-39 15q-19 5 -38 8.5t-38 7.5q-29 6 -56 14t-47.5 22.5t-33 37t-12.5 55.5q0 35 14 60t37 41t52.5 23.5t60.5 7.5q52 0 99.5 -17t77.5 -62q15 -26 21 -61h-57q-11 55 -49.5 78.5
t-91.5 23.5q-20 0 -40 -5.5t-35.5 -16.5t-25.5 -27.5t-11 -39.5zM237 700l115 -132h-62l-66 82l-68 -82h-61l115 132h27z" />
    <glyph glyph-name="Scedilla" unicode="&#x15e;" horiz-adv-x="627" 
d="M136 54q-40 31 -63 66.5t-33 85.5l64 1q5 -44 26.5 -76t53.5 -52.5t71.5 -30.5t79.5 -10q34 0 71.5 8t69 26t52 46.5t20.5 68.5q0 32 -15 54t-37.5 37t-50 24.5t-53.5 15.5l-161 37q-33 9 -61.5 20.5t-50 29.5t-33.5 44.5t-12 63.5q0 46 22.5 86.5t63.5 63.5
q71 35 152 35q47 0 95 -13t88 -39t67.5 -64t34.5 -89l-61 -1q-6 42 -27.5 73.5t-53 51.5t-70 30t-77.5 10q-23 0 -47 -3.5t-46 -12t-40.5 -22.5t-30.5 -36q-14 -23 -17 -49t5 -49.5t25.5 -42.5t43.5 -28l42 -12l177 -42q34 -7 66.5 -20t58 -34t41 -50t15.5 -68
q0 -36 -13 -69q-14 -29 -35 -50t-47 -35t-55.5 -22.5t-59.5 -11.5q16 -24 16 -52q0 -19 -7.5 -36t-20 -29.5t-29.5 -20t-36 -7.5t-36 7.5t-29.5 20t-20 29.5t-7.5 36h43q0 -20 15 -35t35 -15t35 15t15 35q0 18 -12.5 32.5t-29.5 16.5q-53 2 -97.5 15t-88.5 42z" />
    <glyph glyph-name="scedilla" unicode="&#x15f;" horiz-adv-x="447" 
d="M123 373q-1 -24 7 -38.5t21.5 -24t30.5 -16t34 -12.5q19 -6 38.5 -10t39.5 -9q9 -2 17 -4l16 -4q46 -13 73 -39.5t27 -76.5q-2 -35 -15.5 -64t-45.5 -46q-13 -8 -27.5 -13.5t-30.5 -9.5q-33 -6 -67 -6q-55 0 -104 23.5t-78 71.5q-16 29 -19 61h55q6 -29 22 -50.5
t37.5 -35.5t48 -20.5t54.5 -6.5q20 0 39 4t35 13t28 23.5t17 35.5q9 31 -10 62q-10 17 -31 27t-39 15q-19 5 -38 8.5t-38 7.5q-29 6 -56 14t-47.5 22.5t-33 37t-12.5 55.5q0 35 14 60t37 41t52.5 23.5t60.5 7.5q52 0 99.5 -17t77.5 -62q15 -26 21 -61h-57q-11 55 -49.5 78.5
t-91.5 23.5q-20 0 -40 -5.5t-35.5 -16.5t-25.5 -27.5t-11 -39.5zM224 45q19 0 36 -7.5t29.5 -20t20 -29.5t7.5 -36t-7.5 -36t-20 -29.5t-29.5 -20t-36 -7.5t-36 7.5t-29.5 20t-20 29.5t-7.5 36h43q0 -20 15 -35t35 -15t35 15t15 35q0 19 -13 33t-31 16z" />
    <glyph glyph-name="Scaron" unicode="&#x160;" horiz-adv-x="627" 
d="M136 54q-40 31 -63 66.5t-33 85.5l64 1q5 -44 26.5 -76t53.5 -52.5t71.5 -30.5t79.5 -10q34 0 71.5 8t69 26t52 46.5t20.5 68.5q0 32 -15 54t-37.5 37t-50 24.5t-53.5 15.5l-161 37q-33 9 -61.5 20.5t-50 29.5t-33.5 44.5t-12 63.5q0 46 22.5 86.5t63.5 63.5
q71 35 152 35q47 0 95 -13t88 -39t67.5 -64t34.5 -89l-61 -1q-6 42 -27.5 73.5t-53 51.5t-70 30t-77.5 10q-23 0 -47 -3.5t-46 -12t-40.5 -22.5t-30.5 -36q-14 -23 -17 -49t5 -49.5t25.5 -42.5t43.5 -28l42 -12l177 -42q34 -7 66.5 -20t58 -34t41 -50t15.5 -68
q0 -36 -13 -69q-17 -35 -44.5 -58.5t-61.5 -38t-71 -20.5t-73 -6q-57 0 -105.5 13.5t-96.5 44.5zM300 749l-115 132h61l68 -82l66 82h62l-115 -132h-27z" />
    <glyph glyph-name="scaron" unicode="&#x161;" horiz-adv-x="447" 
d="M123 373q-1 -24 7 -38.5t21.5 -24t30.5 -16t34 -12.5q19 -6 38.5 -10t39.5 -9q9 -2 17 -4l16 -4q46 -13 73 -39.5t27 -76.5q-2 -35 -15.5 -64t-45.5 -46q-13 -8 -27.5 -13.5t-30.5 -9.5q-33 -6 -67 -6q-55 0 -104 23.5t-78 71.5q-16 29 -19 61h55q6 -29 22 -50.5
t37.5 -35.5t48 -20.5t54.5 -6.5q20 0 39 4t35 13t28 23.5t17 35.5q9 31 -10 62q-10 17 -31 27t-39 15q-19 5 -38 8.5t-38 7.5q-29 6 -56 14t-47.5 22.5t-33 37t-12.5 55.5q0 35 14 60t37 41t52.5 23.5t60.5 7.5q52 0 99.5 -17t77.5 -62q15 -26 21 -61h-57q-11 55 -49.5 78.5
t-91.5 23.5q-20 0 -40 -5.5t-35.5 -16.5t-25.5 -27.5t-11 -39.5zM210 568l-115 132h61l68 -82l66 82h62l-115 -132h-27z" />
    <glyph glyph-name="Tcaron" unicode="&#x164;" horiz-adv-x="650" 
d="M627 700v-58l-272 25v-667h-58v667l-272 -25v58h602zM312 749l-115 132h61l68 -82l66 82h62l-115 -132h-27z" />
    <glyph glyph-name="Utilde" unicode="&#x168;" horiz-adv-x="605" 
d="M522 164q12 22 15 49q4 23 4 57v430h55v-444q0 -66 -20.5 -114.5t-57.5 -80t-88 -46.5t-111 -15q-63 0 -114 16.5t-87 48.5t-55.5 80t-19.5 111v444h55v-430q0 -34 4 -57q5 -42 31 -77.5t61 -56.5q53 -31 125 -31q70 0 120.5 25.5t82.5 90.5zM252 800q-20 0 -24 -12.5
t-4 -28.5h-45q0 40 18.5 63t53.5 23q26 0 43 -7.5t29.5 -17t23 -17t23.5 -7.5q18 0 23.5 12t5.5 35h48q0 -45 -20.5 -69t-59.5 -24q-22 0 -38 8t-29 17t-24 17t-24 8z" />
    <glyph glyph-name="utilde" unicode="&#x169;" horiz-adv-x="483" 
d="M351 93q20 29 27.5 64t7.5 70v276h52v-502h-70l30 108l-23 -38q-25 -43 -66.5 -61.5t-89.5 -18.5q-88 0 -130 45.5t-42 132.5v334h53l-5 -331q0 -60 35 -97.5t96 -37.5q40 0 69.5 12.5t55.5 43.5zM180 617q-20 0 -23.5 -13t-3.5 -28h-45q0 40 18.5 57.5t53.5 17.5
q26 0 43 -7.5t29.5 -16.5t22.5 -16.5t23 -7.5q18 0 24 11.5t6 34.5h47q0 -38 -20 -60t-59 -22q-22 0 -38 8t-28.5 17t-24 17t-25.5 8z" />
    <glyph glyph-name="Umacron" unicode="&#x16a;" horiz-adv-x="605" 
d="M522 164q12 22 15 49q4 23 4 57v430h55v-444q0 -66 -20.5 -114.5t-57.5 -80t-88 -46.5t-111 -15q-63 0 -114 16.5t-87 48.5t-55.5 80t-19.5 111v444h55v-430q0 -34 4 -57q5 -42 31 -77.5t61 -56.5q53 -31 125 -31q70 0 120.5 25.5t82.5 90.5zM409 803v-53h-192v53h192z
" />
    <glyph glyph-name="umacron" unicode="&#x16b;" horiz-adv-x="483" 
d="M351 93q20 29 27.5 64t7.5 70v276h52v-502h-70l30 108l-23 -38q-25 -43 -66.5 -61.5t-89.5 -18.5q-88 0 -130 45.5t-42 132.5v334h53l-5 -331q0 -60 35 -97.5t96 -37.5q40 0 69.5 12.5t55.5 43.5zM338 634v-53h-192v53h192z" />
    <glyph glyph-name="Ubreve" unicode="&#x16c;" horiz-adv-x="605" 
d="M522 164q12 22 15 49q4 23 4 57v430h55v-444q0 -66 -20.5 -114.5t-57.5 -80t-88 -46.5t-111 -15q-63 0 -114 16.5t-87 48.5t-55.5 80t-19.5 111v444h55v-430q0 -34 4 -57q5 -42 31 -77.5t61 -56.5q53 -31 125 -31q70 0 120.5 25.5t82.5 90.5zM254 864q0 -14 3 -28t10 -25
t18.5 -17.5t28.5 -6.5t28.5 6.5t18 17.5t9.5 25t3 28h46q0 -33 -15.5 -62t-48.5 -41q-19 -9 -41 -9q-20 0 -40.5 8.5t-34.5 23.5q-17 15 -24.5 36.5t-7.5 43.5h47z" />
    <glyph glyph-name="ubreve" unicode="&#x16d;" horiz-adv-x="483" 
d="M351 93q20 29 27.5 64t7.5 70v276h52v-502h-70l30 108l-23 -38q-25 -43 -66.5 -61.5t-89.5 -18.5q-88 0 -130 45.5t-42 132.5v334h53l-5 -331q0 -60 35 -97.5t96 -37.5q40 0 69.5 12.5t55.5 43.5zM140 657h45q0 -11 1 -20t5 -20q8 -17 22 -25.5t29 -8.5q33 0 44.5 23
t11.5 51h45q0 -23 -7 -45q-14 -29 -38 -45.5t-56 -16.5q-11 0 -21 1.5t-19 6.5q-19 7 -32 22q-17 15 -23.5 35.5t-6.5 41.5z" />
    <glyph glyph-name="Uring" unicode="&#x16e;" horiz-adv-x="605" 
d="M522 164q12 22 15 49q4 23 4 57v430h55v-444q0 -66 -20.5 -114.5t-57.5 -80t-88 -46.5t-111 -15q-63 0 -114 16.5t-87 48.5t-55.5 80t-19.5 111v444h55v-430q0 -34 4 -57q5 -42 31 -77.5t61 -56.5q53 -31 125 -31q70 0 120.5 25.5t82.5 90.5zM216 846q0 42 27 69t70 27
t70 -27t27 -69q0 -45 -27 -71.5t-70 -26.5t-70 26.5t-27 71.5zM260 845q0 -23 15 -38t38 -15t38 15t15 38q0 24 -15 38.5t-38 14.5t-38 -14.5t-15 -38.5z" />
    <glyph glyph-name="uring" unicode="&#x16f;" horiz-adv-x="483" 
d="M351 93q20 29 27.5 64t7.5 70v276h52v-502h-70l30 108l-23 -38q-25 -43 -66.5 -61.5t-89.5 -18.5q-88 0 -130 45.5t-42 132.5v334h53l-5 -331q0 -60 35 -97.5t96 -37.5q40 0 69.5 12.5t55.5 43.5zM165 679q0 33 21.5 54.5t55.5 21.5t55.5 -21.5t21.5 -54.5
q0 -35 -21.5 -56.5t-55.5 -21.5t-55.5 21.5t-21.5 56.5zM200 678q0 -18 11.5 -30t30.5 -12q18 0 30 12t12 30q0 19 -12 30.5t-30 11.5q-19 0 -30.5 -11.5t-11.5 -30.5z" />
    <glyph glyph-name="Uhungarumlaut" unicode="&#x170;" horiz-adv-x="605" 
d="M522 164q12 22 15 49q4 23 4 57v430h55v-444q0 -66 -20.5 -114.5t-57.5 -80t-88 -46.5t-111 -15q-63 0 -114 16.5t-87 48.5t-55.5 80t-19.5 111v444h55v-430q0 -34 4 -57q5 -42 31 -77.5t61 -56.5q53 -31 125 -31q70 0 120.5 25.5t82.5 90.5zM346 852l-67 -102h-59
l68 102h58zM465 852l-67 -102h-59l68 102h58z" />
    <glyph glyph-name="uhungarumlaut" unicode="&#x171;" horiz-adv-x="483" 
d="M351 93q20 29 27.5 64t7.5 70v276h52v-502h-70l30 108l-23 -38q-25 -43 -66.5 -61.5t-89.5 -18.5q-88 0 -130 45.5t-42 132.5v334h53l-5 -331q0 -60 35 -97.5t96 -37.5q40 0 69.5 12.5t55.5 43.5zM265 652l-67 -102h-59l68 102h58zM384 652l-67 -102h-59l68 102h58z" />
    <glyph glyph-name="Uogonek" unicode="&#x172;" horiz-adv-x="625" 
d="M522 164q12 22 15 49q4 23 4 57v430h55v-444q0 -66 -20.5 -114.5t-57.5 -80t-88 -46.5t-111 -15q-63 0 -114 16.5t-87 48.5t-55.5 80t-19.5 111v444h55v-430q0 -34 4 -57q5 -42 31 -77.5t61 -56.5q53 -31 125 -31q70 0 120.5 25.5t82.5 90.5zM483 83l-6 -44
q-18 -2 -31 -16t-13 -33q0 -20 15 -35t35 -15t35 15t15 35h43q0 -19 -7.5 -36t-20 -29.5t-29.5 -20t-36 -7.5t-36 7.5t-29.5 20t-20 29.5t-7.5 36t7.5 36t20 29.5t29.5 20t36 7.5z" />
    <glyph glyph-name="uogonek" unicode="&#x173;" horiz-adv-x="483" 
d="M351 93q20 29 27.5 64t7.5 70v276h52v-502h-70l30 108l-23 -38q-25 -43 -66.5 -61.5t-89.5 -18.5q-88 0 -130 45.5t-42 132.5v334h53l-5 -331q0 -60 35 -97.5t96 -37.5q40 0 69.5 12.5t55.5 43.5zM437 45l-6 -44q-18 -2 -31 -16t-13 -33q0 -20 15 -35t35 -15t35 15t15 35
h43q0 -19 -7.5 -36t-20 -29.5t-29.5 -20t-36 -7.5t-36 7.5t-29.5 20t-20 29.5t-7.5 36t7.5 36t20 29.5t29.5 20t36 7.5z" />
    <glyph glyph-name="Wcircumflex" unicode="&#x174;" horiz-adv-x="874" 
d="M419 680h48l258 -623l9 643h62l-23 -700h-81l-247 620l-254 -620h-78l-25 700h62l10 -626zM451 882l115 -132h-62l-66 82l-68 -82h-61l115 132h27z" />
    <glyph glyph-name="wcircumflex" unicode="&#x175;" horiz-adv-x="786" 
d="M741 502l-163 -502h-54l-116 438l-121 -438h-64l-153 502h55l129 -448l125 445h57l118 -442l130 445h57zM407 700l115 -132h-62l-66 82l-68 -82h-61l115 132h27z" />
    <glyph glyph-name="Ycircumflex" unicode="&#x176;" horiz-adv-x="672" 
d="M622 700l-287 -421v-279h-52v279l-284 421h71l240 -370l239 370h73zM350 882l115 -132h-62l-66 82l-68 -82h-61l115 132h27z" />
    <glyph glyph-name="ycircumflex" unicode="&#x177;" horiz-adv-x="510" 
d="M123 500l158 -430l159 430h58l-186 -478q-9 -22 -17 -44t-16 -45q-12 -31 -25 -56q-14 -23 -32 -41t-44 -28q-23 -10 -57 -10h-15v47q41 0 67.5 12.5t46.5 48.5q4 8 7.5 17t7.5 17q3 9 6 18.5t6 17.5q2 10 5 17.5t5 14.5l1 2l-195 490h60zM269 700l115 -132h-62l-66 82
l-68 -82h-61l115 132h27z" />
    <glyph glyph-name="Ydieresis" unicode="&#x178;" horiz-adv-x="672" 
d="M272 702v-83h-79v83h79zM622 700l-287 -421v-279h-52v279l-284 421h71l240 -370l239 370h73zM432 700v-83h-79v83h79z" />
    <glyph glyph-name="Zacute" unicode="&#x179;" horiz-adv-x="640" 
d="M602 700v-50l-518 -613l530 26v-63h-588v50l518 612l-483 -25v63h541zM383 851l-67 -102h-59l68 102h58z" />
    <glyph glyph-name="zacute" unicode="&#x17a;" horiz-adv-x="491" 
d="M444 500v-44l-340 -418l363 11v-49h-427v44l339 418l-327 -11v49h392zM309 652l-67 -102h-59l68 102h58z" />
    <glyph glyph-name="Zdotaccent" unicode="&#x17b;" horiz-adv-x="640" 
d="M602 700v-50l-518 -613l530 26v-63h-588v50l518 612l-483 -25v63h541zM360 843v-93h-79v93h79z" />
    <glyph glyph-name="zdotaccent" unicode="&#x17c;" horiz-adv-x="491" 
d="M444 500v-44l-340 -418l363 11v-49h-427v44l339 418l-327 -11v49h392zM285 700v-93h-79v93h79z" />
    <glyph glyph-name="Zcaron" unicode="&#x17d;" horiz-adv-x="640" 
d="M602 700v-50l-518 -613l530 26v-63h-588v50l518 612l-483 -25v63h541zM307 749l-115 132h61l68 -82l66 82h62l-115 -132h-27z" />
    <glyph glyph-name="zcaron" unicode="&#x17e;" horiz-adv-x="491" 
d="M444 500v-44l-340 -418l363 11v-49h-427v44l339 418l-327 -11v49h392zM232 568l-115 132h61l68 -82l66 82h62l-115 -132h-27z" />
    <glyph glyph-name="uni0218" unicode="&#x218;" horiz-adv-x="627" 
d="M136 54q-40 31 -63 66.5t-33 85.5l64 1q5 -44 26.5 -76t53.5 -52.5t71.5 -30.5t79.5 -10q34 0 71.5 8t69 26t52 46.5t20.5 68.5q0 32 -15 54t-37.5 37t-50 24.5t-53.5 15.5l-161 37q-33 9 -61.5 20.5t-50 29.5t-33.5 44.5t-12 63.5q0 46 22.5 86.5t63.5 63.5
q71 35 152 35q47 0 95 -13t88 -39t67.5 -64t34.5 -89l-61 -1q-6 42 -27.5 73.5t-53 51.5t-70 30t-77.5 10q-23 0 -47 -3.5t-46 -12t-40.5 -22.5t-30.5 -36q-14 -23 -17 -49t5 -49.5t25.5 -42.5t43.5 -28l42 -12l177 -42q34 -7 66.5 -20t58 -34t41 -50t15.5 -68
q0 -36 -13 -69q-17 -35 -44.5 -58.5t-61.5 -38t-71 -20.5t-73 -6q-57 0 -105.5 13.5t-96.5 44.5zM377 -61l-67 -102h-59l68 102h58z" />
    <glyph glyph-name="uni0219" unicode="&#x219;" horiz-adv-x="447" 
d="M123 373q-1 -24 7 -38.5t21.5 -24t30.5 -16t34 -12.5q19 -6 38.5 -10t39.5 -9q9 -2 17 -4l16 -4q46 -13 73 -39.5t27 -76.5q-2 -35 -15.5 -64t-45.5 -46q-13 -8 -27.5 -13.5t-30.5 -9.5q-33 -6 -67 -6q-55 0 -104 23.5t-78 71.5q-16 29 -19 61h55q6 -29 22 -50.5
t37.5 -35.5t48 -20.5t54.5 -6.5q20 0 39 4t35 13t28 23.5t17 35.5q9 31 -10 62q-10 17 -31 27t-39 15q-19 5 -38 8.5t-38 7.5q-29 6 -56 14t-47.5 22.5t-33 37t-12.5 55.5q0 35 14 60t37 41t52.5 23.5t60.5 7.5q52 0 99.5 -17t77.5 -62q15 -26 21 -61h-57q-11 55 -49.5 78.5
t-91.5 23.5q-20 0 -40 -5.5t-35.5 -16.5t-25.5 -27.5t-11 -39.5zM287 -61l-67 -102h-59l68 102h58z" />
    <glyph glyph-name="uni021A" unicode="&#x21a;" horiz-adv-x="650" 
d="M627 700v-58l-272 25v-667h-58v667l-272 -25v58h602zM358 -61l-67 -102h-59l68 102h58z" />
    <glyph glyph-name="uni021B" unicode="&#x21b;" horiz-adv-x="299" 
d="M170 631v-129h91v-51l-91 12v-371q0 -10 2 -18.5t5 -16.5q4 -6 11 -12t21 -6q10 0 23 3v-38q-12 -4 -27 -4q-39 0 -62 16.5t-23 58.5v388l-88 -12v51h88v129h50zM213 -61l-67 -102h-59l68 102h58z" />
    <glyph glyph-name="uni0237" unicode="&#x237;" horiz-adv-x="220" 
d="M134 -223q-4 -8 -12 -14t-18 -11q-24 -8 -58 -8q-11 0 -19.5 1t-15.5 2v44q3 -1 7 -1h11q23 0 38.5 5t24.5 28q5 13 5 26q2 6 2 12v11v628h52v-618q0 -26 -3 -54t-14 -51z" />
    <glyph glyph-name="circumflex" unicode="&#x2c6;" horiz-adv-x="400" 
d="M226 700l115 -132h-62l-66 82l-68 -82h-61l115 132h27z" />
    <glyph glyph-name="caron" unicode="&#x2c7;" horiz-adv-x="418" 
d="M199 568l-115 132h61l68 -82l66 82h62l-115 -132h-27z" />
    <glyph glyph-name="uni02C9" unicode="&#x2c9;" horiz-adv-x="377" 
d="M289 803v-53h-192v53h192z" />
    <glyph glyph-name="breve" unicode="&#x2d8;" 
d="M51 657h45q0 -11 1 -20t5 -20q8 -17 22 -25.5t29 -8.5q33 0 44.5 23t11.5 51h45q0 -23 -7 -45q-14 -29 -38 -45.5t-56 -16.5q-11 0 -21 1.5t-19 6.5q-19 7 -32 22q-17 15 -23.5 35.5t-6.5 41.5z" />
    <glyph glyph-name="dotaccent" unicode="&#x2d9;" 
d="M182 700v-93h-79v93h79z" />
    <glyph glyph-name="ring" unicode="&#x2da;" 
d="M60 679q0 33 21.5 54.5t55.5 21.5t55.5 -21.5t21.5 -54.5q0 -35 -21.5 -56.5t-55.5 -21.5t-55.5 21.5t-21.5 56.5zM95 678q0 -18 11.5 -30t30.5 -12q18 0 30 12t12 30q0 19 -12 30.5t-30 11.5q-19 0 -30.5 -11.5t-11.5 -30.5z" />
    <glyph glyph-name="ogonek" unicode="&#x2db;" 
d="M188 41l-6 -44q-18 -2 -31 -16t-13 -33q0 -20 15 -35t35 -15t35 15t15 35h43q0 -19 -7.5 -36t-20 -29.5t-29.5 -20t-36 -7.5t-36 7.5t-29.5 20t-20 29.5t-7.5 36t7.5 36t20 29.5t29.5 20t36 7.5z" />
    <glyph glyph-name="tilde" unicode="&#x2dc;" horiz-adv-x="299" 
d="M90 617q-20 0 -23.5 -13t-3.5 -28h-45q0 40 18.5 57.5t53.5 17.5q26 0 43 -7.5t29.5 -16.5t22.5 -16.5t23 -7.5q18 0 24 11.5t6 34.5h47q0 -38 -20 -60t-59 -22q-22 0 -38 8t-28.5 17t-24 17t-25.5 8z" />
    <glyph glyph-name="hungarumlaut" unicode="&#x2dd;" horiz-adv-x="378" 
d="M205 652l-67 -102h-59l68 102h58zM324 652l-67 -102h-59l68 102h58z" />
    <glyph glyph-name="uni0326" unicode="&#x326;" 
d="M201 -61l-67 -102h-59l68 102h58z" />
    <glyph glyph-name="uni03BC" unicode="&#x3bc;" horiz-adv-x="623" 
d="M445 500h47v-489h-57l10 73q-26 -44 -70 -68t-92 -24q-37 0 -72.5 14.5t-64.5 46.5v-253h-47v700h47v-330q0 -34 12 -61t31.5 -45t45 -27.5t51.5 -9.5q37 0 71 20q24 13 41 33t27.5 44.5t15 51t4.5 52.5v272z" />
    <glyph glyph-name="pi" unicode="&#x3c0;" horiz-adv-x="588" 
d="M510 441l-88 10v-381q0 -23 10.5 -30t23.5 -7q7 0 13 1t11 3l-1 -44q-11 -4 -27 -4q-31 0 -53 17q-23 16 -23 58v387l-169 -1v-448h-49l1 448q-28 0 -48 -8.5t-28 -40.5h-62q14 51 50.5 70t91.5 19h347v-49z" />
    <glyph glyph-name="Wgrave" unicode="&#x1e80;" horiz-adv-x="874" 
d="M419 680h48l258 -623l9 643h62l-23 -700h-81l-247 620l-254 -620h-78l-25 700h62l10 -626zM392 852l68 -102h-59l-67 102h58z" />
    <glyph glyph-name="wgrave" unicode="&#x1e81;" horiz-adv-x="786" 
d="M741 502l-163 -502h-54l-116 438l-121 -438h-64l-153 502h55l129 -448l125 445h57l118 -442l130 445h57zM358 652l68 -102h-59l-67 102h58z" />
    <glyph glyph-name="Wacute" unicode="&#x1e82;" horiz-adv-x="874" 
d="M419 680h48l258 -623l9 643h62l-23 -700h-81l-247 620l-254 -620h-78l-25 700h62l10 -626zM560 851l-67 -102h-59l68 102h58z" />
    <glyph glyph-name="wacute" unicode="&#x1e83;" horiz-adv-x="786" 
d="M741 502l-163 -502h-54l-116 438l-121 -438h-64l-153 502h55l129 -448l125 445h57l118 -442l130 445h57zM516 652l-67 -102h-59l68 102h58z" />
    <glyph glyph-name="Wdieresis" unicode="&#x1e84;" horiz-adv-x="874" 
d="M419 680h48l258 -623l9 643h62l-23 -700h-81l-247 620l-254 -620h-78l-25 700h62l10 -626zM335 834v-83h-79v83h79zM634 834v-83h-79v83h79z" />
    <glyph glyph-name="wdieresis" unicode="&#x1e85;" horiz-adv-x="786" 
d="M741 502l-163 -502h-54l-116 438l-121 -438h-64l-153 502h55l129 -448l125 445h57l118 -442l130 445h57zM300 647h76v-75h-76v75zM440 647h76v-75h-76v75z" />
    <glyph glyph-name="endash" unicode="&#x2013;" horiz-adv-x="1917" 
d="M1703 338v-48h-1448v48h1448z" />
    <glyph glyph-name="emdash" unicode="&#x2014;" horiz-adv-x="1917" 
d="M1703 338v-48h-1448v48h1448z" />
    <glyph glyph-name="quoteleft" unicode="&#x2018;" horiz-adv-x="170" 
d="M131 700v-93h-79v93h79z" />
    <glyph glyph-name="quoteright" unicode="&#x2019;" horiz-adv-x="170" 
d="M131 700v-93h-79v93h79z" />
    <glyph glyph-name="quotedblleft" unicode="&#x201c;" horiz-adv-x="408" 
d="M191 700v-93h-79v93h79zM318 700v-93h-79v93h79z" />
    <glyph glyph-name="quotedblright" unicode="&#x201d;" horiz-adv-x="408" 
d="M191 700v-93h-79v93h79zM318 700v-93h-79v93h79z" />
    <glyph glyph-name="dagger" unicode="&#x2020;" horiz-adv-x="512" 
d="M286 700v-182h167v-42h-167v-476h-47v476h-167v42h167v182h47z" />
    <glyph glyph-name="bullet" unicode="&#x2022;" horiz-adv-x="339" 
d="M214 316v-93h-79v93h79z" />
    <glyph glyph-name="ellipsis" unicode="&#x2026;" horiz-adv-x="467" 
d="M144 78v-78h-82v78h82zM269 78v-78h-82v78h82zM393 78v-78h-81v78h81z" />
    <glyph glyph-name="perthousand" unicode="&#x2030;" horiz-adv-x="988" 
d="M587 713h54l-471 -713h-59zM106 519q0 51 30.5 81.5t81.5 30.5t82 -30.5t31 -81.5t-31 -82t-82 -31t-81.5 31t-30.5 82zM218 593q-33 0 -53 -20.5t-20 -53.5q0 -34 20 -54t53 -20q34 0 54 20t20 54q0 33 -20 53.5t-54 20.5zM449 227q0 51 30.5 81.5t81.5 30.5t82 -30.5
t31 -81.5t-31 -82t-82 -31t-81.5 31t-30.5 82zM724 227q0 51 30.5 81.5t81.5 30.5t82 -30.5t31 -81.5t-31 -82t-82 -31t-81.5 31t-30.5 82zM561 301q-33 0 -53 -20.5t-20 -53.5q0 -34 20 -54t53 -20q34 0 54 20t20 54q0 33 -20 53.5t-54 20.5zM836 301q-33 0 -53 -20.5
t-20 -53.5q0 -34 20 -54t53 -20q34 0 54 20t20 54q0 33 -20 53.5t-54 20.5z" />
    <glyph glyph-name="guilsinglleft" unicode="&#x2039;" horiz-adv-x="445" 
d="M324 469l36 -36l-198 -198l198 -198l-34 -34l-234 234z" />
    <glyph glyph-name="guilsinglright" unicode="&#x203a;" horiz-adv-x="464" 
d="M420 236l-233 -233l-34 34l197 197l-198 199l36 36z" />
    <glyph glyph-name="fraction" unicode="&#x2044;" horiz-adv-x="609" 
d="M514 713h64l-471 -713h-69z" />
    <glyph glyph-name="Euro" unicode="&#x20ac;" horiz-adv-x="879" 
d="M138 249l-1 4h-69v46h61l-1 7q0 4 -1 5v12q-1 1 -1 5v38q0 10 1 15l1 6h-60v47h66l1 4q68 262 339 262q54 0 104 -13t91 -39.5t70 -67t41 -95.5h-59q-3 27 -17 50q-20 38 -56.5 63.5t-75.5 41.5q-21 8 -46 12t-52 4q-100 0 -171 -48.5t-101 -145.5l-2 -6t-1 -5l-1 -1v-2
l-1 -5v-2l-2 -7h385v-47h-393l-1 -5v-4l-1 -8v-4v-16q0 -22 3 -45l1 -6h391v-46h-382l4 -15q31 -98 101 -146t171 -48q36 0 77.5 11.5t77.5 33.5t62 54t30 72h59q-13 -57 -42.5 -97.5t-70 -66.5t-90 -38.5t-103.5 -12.5q-127 0 -214.5 62t-121.5 187z" />
    <glyph glyph-name="trademark" unicode="&#x2122;" horiz-adv-x="1603" 
d="M779 401q0 -73 -27.5 -137t-75 -111.5t-111 -75t-135.5 -27.5q-73 0 -137 28t-111.5 75.5t-75 111.5t-27.5 136q0 73 28 136.5t76 111t111.5 74.5t135.5 27t135.5 -27t111 -74.5t75 -111t27.5 -136.5zM1543 401q0 -73 -27.5 -137t-74.5 -111.5t-111 -75t-136 -27.5
q-73 0 -137 28t-111.5 76t-75 111.5t-27.5 135.5t28 136t76 111t112 74.5t135 27.5q74 0 137.5 -27.5t110.5 -75t74 -111t27 -135.5zM1194 711q-66 0 -121.5 -24.5t-96 -66.5t-63 -98.5t-22.5 -120.5q0 -65 23 -122t63.5 -99t96 -66.5t120.5 -24.5q66 0 121.5 24.5t95.5 67
t62.5 99.5t22.5 121q0 65 -22.5 121.5t-63 98.5t-96 66t-120.5 24zM430 89q67 0 122.5 24.5t95 67t61.5 99.5t22 121q0 65 -23 121.5t-63 98.5t-95 66t-120 24q-66 0 -121.5 -24.5t-96 -66.5t-63 -98.5t-22.5 -120.5t22.5 -121t62.5 -99.5t95.5 -67t122.5 -24.5zM1195 280h6
l113 316h59v-375h-39l10 332h-8l-125 -332h-29l-125 332h-8l10 -332h-39v375h58zM247 577h365v-40h-163v-337h-40v337h-162v40z" />
    <glyph glyph-name="arrowleft" unicode="&#x2190;" horiz-adv-x="753" 
d="M360 468l-146 -147h420v-45l-422 -1l147 -147l-29 -29l-200 200l199 199z" />
    <glyph glyph-name="arrowright" unicode="&#x2192;" horiz-adv-x="747" 
d="M435 498l199 -199l-200 -200l-29 29l148 147l-423 1v45h420l-146 147z" />
    <glyph glyph-name="uni2196" unicode="&#x2196;" horiz-adv-x="651" 
d="M449 701v-50l-236 1l340 -339l-35 -37l-342 340v-237h-47v322h320z" />
    <glyph glyph-name="uni2197" unicode="&#x2197;" horiz-adv-x="651" 
d="M512 701v-322h-47v237l-342 -340l-35 37l340 339l-236 -1v50h320z" />
    <glyph glyph-name="uni2198" unicode="&#x2198;" horiz-adv-x="650" 
d="M192 0v50l236 -1l-340 340l35 36l342 -340v237h47v-322h-320z" />
    <glyph glyph-name="uni2199" unicode="&#x2199;" horiz-adv-x="650" 
d="M137 323h50l-1 -236l340 340l36 -35l-340 -342h237v-47h-322v320z" />
    <glyph glyph-name="minus" unicode="&#x2212;" horiz-adv-x="950" 
d="M788 339v-49h-565v49h565z" />
    <glyph glyph-name="uni2215" unicode="&#x2215;" horiz-adv-x="609" 
d="M519 713h59l-471 -713h-64z" />
    <glyph glyph-name="uni2219" unicode="&#x2219;" horiz-adv-x="339" 
d="M214 316v-93h-79v93h79z" />
    <glyph glyph-name="infinity" unicode="&#x221e;" horiz-adv-x="802" 
d="M78 293q0 39 12.5 71t35 54.5t54 34.5t70.5 12q48 0 85 -18t63 -58q26 40 63 58t85 18q39 0 71 -12t54.5 -34.5t34.5 -54.5t12 -71t-12 -70.5t-34.5 -54t-54.5 -35t-71 -12.5q-48 0 -85 18t-63 58q-26 -40 -63 -58t-85 -18q-78 0 -125 47t-47 125zM250 417
q-57 0 -90.5 -33.5t-33.5 -90.5t33.5 -90.5t90.5 -33.5t90.5 33.5t33.5 90.5t-33.5 90.5t-90.5 33.5zM546 417q-57 0 -90.5 -33.5t-33.5 -90.5t33.5 -90.5t90.5 -33.5t90.5 33.5t33.5 90.5t-33.5 90.5t-90.5 33.5z" />
    <glyph glyph-name="notequal" unicode="&#x2260;" horiz-adv-x="748" 
d="M258 181h-155v54h197l121 150h-318v54h361l125 156h64l-124 -156h119v-54h-161l-120 -150h281v-54h-323l-143 -179h-69z" />
    <glyph glyph-name="uni2601" unicode="&#x2601;" horiz-adv-x="1040" 
d="M812 173q-12 -5 -24 -6.5t-25 -1.5h-531q-30 0 -57 11.5t-47.5 31t-32 46t-11.5 56.5q0 54 32.5 93t84.5 51q2 0 4 2q5 72 40.5 120t105.5 69q11 3 23.5 5t26.5 2q45 0 89.5 -21.5t77.5 -72.5q38 21 76 21q55 0 94.5 -34.5t50.5 -88.5q51 -12 86 -46.5t38 -88.5
q0 -51 -25 -91t-76 -57zM740 408v26q0 40 -27.5 67.5t-67.5 27.5q-41 0 -73 -32l-22 -22q-3 7 -5.5 13t-4.5 11q-18 46 -52.5 74.5t-86.5 28.5q-30 0 -58.5 -12t-50.5 -38q-36 -39 -36 -89q0 -12 1.5 -28t4.5 -27h-28q-42 0 -71.5 -27.5t-29.5 -69.5q0 -45 31 -70.5
t73 -25.5h526q44 0 72 27.5t28 71.5q0 21 -8.5 38.5t-22.5 29.5t-32.5 19t-38.5 7h-21z" />
    <glyph glyph-name="uni2639" unicode="&#x2639;" horiz-adv-x="870" 
d="M436 700q73 0 136.5 -27.5t111 -75t74.5 -111t27 -135.5q0 -73 -27.5 -137t-75 -111.5t-111 -75t-135.5 -27.5q-73 0 -137 28t-111.5 75.5t-75 111.5t-27.5 136q0 73 28 136.5t76 111t111.5 74.5t135.5 27zM140 351q0 -64 22.5 -119.5t62 -97t93.5 -65t118 -23.5
q65 0 119 24.5t93 66t60.5 97t21.5 117.5q0 63 -22.5 118.5t-61.5 96.5t-93 64.5t-117 23.5t-117.5 -23.5t-94 -64.5t-62 -96t-22.5 -119zM318 426v-65h-61v65h61zM614 426v-65h-62v65h62zM612 187q-8 70 -55.5 111.5t-119.5 41.5t-121.5 -41t-57.5 -112h-51q4 44 24 81
t50.5 64.5t70 43t82.5 15.5q45 0 84 -15.5t69.5 -42.5t50.5 -64.5t26 -81.5h-52z" />
    <glyph glyph-name="smileface" unicode="&#x263a;" horiz-adv-x="870" 
d="M436 700q73 0 136.5 -27.5t111 -75t74.5 -111t27 -135.5q0 -73 -27.5 -137t-75 -111.5t-111 -75t-135.5 -27.5q-73 0 -137 28t-111.5 75.5t-75 111.5t-27.5 136q0 73 28 136.5t76 111t111.5 74.5t135.5 27zM140 351q0 -64 22.5 -119.5t62 -97t93.5 -65t118 -23.5
q65 0 119 24.5t93 66t60.5 97t21.5 117.5q0 63 -22.5 118.5t-61.5 96.5t-93 64.5t-117 23.5t-117.5 -23.5t-94 -64.5t-62 -96t-22.5 -119zM318 426v-65h-61v65h61zM614 426v-65h-62v65h62zM205 361h51q0 -40 11 -75t33 -60.5t55.5 -40t77.5 -14.5t77.5 14t56.5 39t35 60
t12 77h50q0 -27 -3 -51t-14 -49q-12 -32 -34 -58t-50 -44.5t-60.5 -28.5t-66.5 -10q-51 0 -93.5 19t-73 51.5t-47.5 76.5t-17 94z" />
    <glyph glyph-name="sun" unicode="&#x263c;" horiz-adv-x="1123" 
d="M512 748h52v-138h-52v138zM215 604l37 36l98 -97l-37 -37zM763 505l-36 37l97 97l37 -36zM312 318q0 52 16.5 94.5t46.5 72.5t72.5 46.5t94.5 16.5t94 -16.5t72 -46.5t46.5 -72.5t16.5 -94.5t-16.5 -94.5t-46.5 -72.5t-72 -46.5t-94 -16.5t-94.5 16.5t-72.5 46.5
t-46.5 72.5t-16.5 94.5zM542 492q-39 0 -71.5 -12.5t-55 -35.5t-35 -55t-12.5 -71t12.5 -71t35 -55t55 -35.5t71.5 -12.5t71 12.5t54.5 35.5t35 55t12.5 71t-12.5 71t-35 55t-54.5 35.5t-71 12.5zM107 291v52h138v-52h-138zM831 290v52h138v-52h-138zM252 -6l-37 37l98 98
l37 -37zM727 91l36 37l98 -98l-37 -37zM512 25h52v-138h-52v138z" />
    <glyph glyph-name="uni26C6" unicode="&#x26c6;" horiz-adv-x="993" 
d="M538 201q-78 0 -130 -0.5t-78 -0.5h-26l-52 1q-24 0 -44.5 2t-38 8.5t-33.5 18.5t-31 33t-21 42t-6 41q0 53 33 93t84 51q3 0 4 1q5 72 40.5 120t105.5 69q21 7 51 7q43 0 88.5 -21.5t77.5 -71.5q38 21 77 21q55 0 94 -34.5t50 -88.5q51 -13 86 -47.5t38 -88.5
q0 -34 -11 -62.5t-30.5 -49t-47.5 -32t-61 -11.5h-219zM256 443h-33q-20 0 -37.5 -7.5t-30.5 -21t-20.5 -30.5t-7.5 -37q0 -22 8.5 -39.5t22.5 -30.5t33 -20t40 -7q133 1 262.5 1h263.5q45 0 72.5 27t27.5 72q0 18 -8 35t-21 30t-30 20.5t-35 7.5h-29v27q0 40 -27.5 67.5
t-67.5 27.5q-41 0 -73 -32l-22 -22q-3 7 -5.5 13t-4.5 11q-17 45 -52.5 74t-86.5 29q-30 0 -58.5 -12.5t-50.5 -38.5q-36 -39 -36 -88q0 -13 1.5 -28.5t4.5 -27.5zM591 -71l83 209l46 -18l-83 -210zM491 -90l-46 19l83 209l47 -18zM429 120q-21 -54 -41.5 -105t-41.5 -105
l-47 18l84 210zM154 -72l83 210l46 -18l-83 -210z" />
    <glyph glyph-name="uni2745" unicode="&#x2745;" horiz-adv-x="978" 
d="M557 702l31 31l101 -101v140h49v-143l102 102l34 -35l-101 -101h147v-44h-150l109 -109l-32 -31l-109 110v-160h-49v150l-105 -105l-35 34l111 111h-151v44h154zM146 361l31 31l101 -101v140h49v-143l102 102l34 -35l-101 -101h147v-44h-150l109 -109l-32 -31l-109 110
v-160h-49v150l-105 -105l-35 34l111 111h-151v44h154z" />
    <glyph glyph-name="u1F400" unicode="&#x1f400;" horiz-adv-x="1209" 
d="M128 74q-16 0 -21 18v2l-1 2v2q0 8 3 15t6 15q18 54 42 99.5t63 87.5q-10 4 -20 17t-17.5 28.5t-12 31t-4.5 24.5q0 40 27.5 60t64.5 20q17 0 33 -7t29.5 -18.5t22.5 -26.5t11 -32q63 28 137 28q91 0 152.5 -50.5t91.5 -134.5q5 -12 9.5 -29.5t7.5 -36.5t5 -37t2 -30
q91 1 181 1.5t181 0.5q8 0 14.5 -6.5t6.5 -14.5q0 -11 -14 -19q-2 -1 -23 -1.5t-46 -0.5h-76q-137 0 -269.5 -1.5t-269.5 -3.5q3 -12 8.5 -25t11.5 -25t10 -21.5t4 -14.5q0 -19 -17 -19q-14 0 -20 13.5t-10 24.5q-6 15 -14 32t-11 34h-25v-30t2 -30q2 -8 3.5 -14.5
t1.5 -14.5t-6.5 -14t-14.5 -6q-9 0 -14 6.5t-7.5 15.5t-3 18.5t-0.5 15.5q-3 26 -3 50v2h-34q0 -5 -0.5 -8.5t-0.5 -5.5v-2l1 -3v-2q0 -5 1 -7l1 -5q0 -1 1 -9t2 -17.5t2 -17.5t1 -9q0 -9 -6 -15t-14 -6q-9 0 -13 3.5t-5.5 8.5t-1.5 11.5t-1 12.5q-2 17 -5.5 32t-3.5 32v7
q-34 -1 -67.5 -1h-67.5zM245 340q34 31 70 52q-4 7 -4 19q0 5 -4.5 12t-11 13.5t-13.5 11.5t-12 6h-3l-6 1q-20 0 -37 -8t-17 -31q0 -12 5 -23t11 -20.5t12.5 -18t9.5 -14.5zM490 399q-57 0 -108.5 -21t-94.5 -56t-75 -82t-49 -99l-4 -12t-4 -13q22 0 51.5 0.5t57.5 0.5h79
q35 1 70 1.5t70 0.5l94 1h17.5t17.5 1h70q9 1 17.5 1h17.5q-1 51 -15 100.5t-41.5 89t-70 63.5t-100.5 24zM472 315q-19 0 -30 -1t-19 -5.5t-15.5 -12.5t-19.5 -22q-6 -7 -16 -7q-8 0 -14.5 6t-6.5 14q0 10 9.5 19.5t15.5 16.5q20 23 43 28.5t52 5.5q15 0 29 -7t24 -18
t16 -25.5t6 -29.5q0 -7 -5.5 -21t-14 -27.5t-18 -23.5t-18.5 -10q-8 0 -14 6.5t-6 14.5q0 6 5.5 14t12 16.5t12 17.5t5.5 17q0 10 -11.5 22t-21.5 12zM258 212q0 29 29 29t29 -29t-29 -29t-29 29z" />
    <glyph glyph-name="u1F408" unicode="&#x1f408;" horiz-adv-x="1231" 
d="M643 96q-48 0 -91.5 18t-85.5 39q-14 7 -20 15.5t-13 22.5q-8 -5 -14.5 -11.5t-13.5 -11.5q-11 -9 -23.5 -15.5t-24.5 -13.5q-26 -16 -52 -31t-53 -27q-24 -11 -48.5 -18.5t-48.5 -17.5q-7 -2 -19 -8t-19 -6t-12 5t-5 13t10 15t23 12t26 9t20 6q43 15 83 35.5t79 44.5
l22 12t22 14q8 5 16.5 13.5t19.5 15.5v25q-72 -7 -141.5 -16t-141.5 -20h-3q-18 0 -18 18q0 7 4.5 11t10.5 6q11 3 23.5 4.5t23.5 3.5q13 2 25.5 3.5t25.5 3.5l34 4q13 2 25.5 3.5t25.5 3.5q26 3 53 7t53 5l1 23h-5l-11 1h-70q-8 1 -16 1h-16q-17 0 -32.5 -0.5t-32.5 -1.5
q-25 -1 -49.5 -3.5t-48.5 -2.5q-19 0 -19 17q0 16 17 18q11 2 21.5 2t21.5 1q26 2 52.5 3.5t52.5 1.5h78q15 0 31 -0.5t27 -0.5q0 38 -3.5 74t-9.5 74v3q0 18 18 18q6 0 11 -4q2 -2 9.5 -12.5t16 -23t16 -24t10.5 -16.5q12 8 29 13.5t35 9t35.5 5t32.5 1.5q46 0 80.5 -11
t76.5 -25q2 20 11.5 40t18.5 37q4 8 9.5 19.5t16.5 11.5t17 -9q2 -2 4 -19t5 -40.5t5.5 -51t4.5 -52t3.5 -42t1.5 -22.5l47 8q23 4 46 4.5t46 0.5q6 0 18 -0.5t23.5 -3t20.5 -7t9 -13.5q0 -7 -4.5 -12.5t-12.5 -5.5q-7 0 -10 1q-19 3 -36.5 4t-36.5 1q-34 0 -69 -6
q-11 -2 -20.5 -4t-20.5 -3q0 -6 -0.5 -11.5t-1.5 -11.5q24 -3 64 -10t80 -16t73.5 -18t43.5 -15q11 -6 11 -16q0 -8 -5.5 -13t-12.5 -5l-8 2q-19 8 -53 17.5t-72 18t-74 14.5t-57 6q-2 -5 -5 -9t-6 -9q1 -2 2 -3.5t2 -3.5q32 -42 68 -79t72 -73q11 -11 25 -20.5t23 -22.5
q4 -5 4 -11q0 -18 -18 -18q-6 0 -19.5 11t-32 28.5t-39.5 40t-41.5 45t-38.5 43.5t-30 36q-17 -16 -40 -28.5t-48.5 -20.5t-51 -12.5t-48.5 -4.5zM456 228q0 -2 2.5 -7.5t6 -12t6.5 -12t4 -7.5q5 -5 12 -7.5t13 -5.5q34 -17 69 -31t74 -14q24 0 53 6t56.5 17.5t49.5 29
t32 41.5q5 11 6.5 26t1.5 28q0 46 -5 91t-11 91q-5 -11 -7 -22t-4 -23q-1 -9 -5.5 -18t-15.5 -9q-3 0 -10.5 2t-16 5t-16 6t-11.5 4q-31 11 -57.5 17t-59.5 6q-21 0 -47 -3.5t-46 -10.5q-4 -1 -10 -4.5t-12.5 -7t-12 -6.5t-8.5 -3q-11 0 -18.5 12l-12.5 20q2 -24 2 -48v-48
l-2 -68v-34zM776 307q-11 0 -18 12.5t-7 20.5t5.5 13t12.5 5q11 0 17.5 -11.5t6.5 -21.5q0 -8 -5 -13t-12 -5zM488 322q0 7 4.5 12.5t12.5 5.5q9 0 15 -7t6 -16q11 -5 11 -16q0 -18 -18 -18q-10 0 -19 9.5t-9 19.5q-1 3 -2 5.5t-1 4.5zM641 259q-19 0 -19 17q0 7 4 11t10 6
t12 2.5t10 0.5t10.5 -0.5t12.5 -0.5q10 0 17.5 -3.5t15.5 -3.5q18 -2 18 -18q0 -8 -6 -13t-14 -5t-15.5 4t-16.5 4h-10l-19 -1h-10z" />
    <glyph glyph-name="colon.1" horiz-adv-x="299" 
d="M200 0q0 -27 -21 -45q-10 -12 -28.5 -19.5t-33.5 -9.5v23q12 3 26 13.5t16 23.5q2 5 2 8v6h-40v84h79v-84z" />
    <glyph glyph-name="hyphen.1" horiz-adv-x="950" 
d="M789 339v-49h-565v49h565z" />
    <glyph glyph-name="emdash.2" horiz-adv-x="1917" 
d="M1703 338v-48h-1448v48h1448z" />
    <glyph glyph-name="dieresis.case" horiz-adv-x="382" 
d="M85 834v-83h-79v83h79zM384 834v-83h-79v83h79z" />
    <glyph glyph-name="globe" horiz-adv-x="842" 
d="M68 349q0 77 29.5 145t80 118t118.5 79t144 29q77 0 145 -29.5t118 -80t79 -118t29 -144.5t-29.5 -144.5t-80 -118t-118.5 -79.5t-145 -29t-144.5 29.5t-117.5 80t-79 118.5t-29 144zM418 672q-16 -5 -31 -18.5t-28 -31t-23 -36.5t-16 -34q24 -6 48 -9.5t50 -4.5v134z
M461 538q26 1 50 4.5t48 9.5q-7 14 -17 32.5t-22.5 36.5t-27 32.5t-31.5 18.5v-134zM333 659q-13 -4 -30 -12t-33 -17.5t-30 -20t-22 -19.5q4 -3 12.5 -7.5t17.5 -8t17.5 -6.5t12.5 -3q11 26 24.5 48.5t30.5 45.5zM662 590q-26 23 -54.5 40.5t-61.5 27.5q17 -21 30 -45
t25 -49q16 5 31 11.5t30 14.5zM641 371q6 -1 25.5 -1h41t39 0.5t19.5 0.5q-2 48 -21 98t-52 88q-20 -9 -39 -17.5t-38 -17.5q5 -21 9 -39.5t7 -36t5 -35.5t4 -40zM112 371q5 -1 24.5 -1h41t39.5 0.5t20 0.5q2 20 4 39t5 38t7.5 37.5t8.5 36.5q-5 2 -9.5 4.5t-9.5 4.5l-38 17
q-5 2 -9.5 4.5t-9.5 4.5q-32 -38 -52 -86.5t-22 -99.5zM597 370q-3 72 -24 141q-28 -8 -55.5 -11t-55.5 -5q-1 -3 -1 -23v-81q0 -19 1 -21h135zM417 370v125q-29 2 -57.5 5.5t-54.5 10.5q-21 -70 -24 -141h136zM693 140q32 38 52 87t22 100h-127q-1 -40 -7.5 -77.5
t-17.5 -74.5zM282 327q0 -11 2 -31t5.5 -41.5t8 -40t8.5 -27.5q28 7 55.5 10.5t55.5 5.5q1 5 1 24v40.5t-0.5 39.5t-1.5 20h-134zM263 175q-22 70 -25 152h-126q7 -106 73 -187zM573 186q21 71 24 141h-135q-1 -3 -1 -23v-80q0 -20 1 -21q28 -2 55.5 -5.5t55.5 -11.5z
M417 160q-25 -2 -49 -5t-48 -9q6 -16 16 -34t22.5 -35t27.5 -31t31 -21v135zM461 25q10 4 17.5 9.5t15.5 11.5q21 21 37 46.5t28 52.5q-24 8 -48.5 10.5t-49.5 2.5v-133zM278 134q-16 -6 -31.5 -12.5t-29.5 -14.5q26 -23 54 -40t61 -28q-17 22 -30 45.5t-24 49.5zM601 134
q-13 -26 -26 -49.5t-29 -46.5q63 22 116 69q-15 8 -30 14.5t-31 12.5z" />
    <glyph glyph-name="macron.case" 
d="M235 803v-53h-192v53h192z" />
    <glyph glyph-name="acute.case" 
d="M219 851l-67 -102h-59l68 102h58z" />
    <glyph glyph-name="grave.case" 
d="M149 852l68 -102h-59l-67 102h58z" />
    <glyph glyph-name="circumflex.case" 
d="M153 882l115 -132h-62l-66 82l-68 -82h-61l115 132h27z" />
    <glyph glyph-name="caron.case" 
d="M126 749l-115 132h61l68 -82l66 82h62l-115 -132h-27z" />
    <glyph glyph-name="tilde.case" 
d="M80 800q-20 0 -24 -12.5t-4 -28.5h-45q0 40 18.5 63t53.5 23q26 0 43 -7.5t29.5 -17t23 -17t23.5 -7.5q18 0 23.5 12t5.5 35h48q0 -45 -20.5 -69t-59.5 -24q-22 0 -38 8t-29 17t-24 17t-24 8z" />
    <glyph glyph-name="dotaccent.case" 
d="M182 843v-93h-79v93h79z" />
    <glyph glyph-name="ring.case" 
d="M42 846q0 42 27 69t70 27t70 -27t27 -69q0 -45 -27 -71.5t-70 -26.5t-70 26.5t-27 71.5zM86 845q0 -23 15 -38t38 -15t38 15t15 38q0 24 -15 38.5t-38 14.5t-38 -14.5t-15 -38.5z" />
    <glyph glyph-name="hyphen.1.1" horiz-adv-x="950" 
d="M789 338v-47h-565v47h565z" />
    <glyph glyph-name="breve.case" 
d="M90 864q0 -14 3 -28t10 -25t18.5 -17.5t28.5 -6.5t28.5 6.5t18 17.5t9.5 25t3 28h46q0 -33 -15.5 -62t-48.5 -41q-19 -9 -41 -9q-20 0 -40.5 8.5t-34.5 23.5q-17 15 -24.5 36.5t-7.5 43.5h47z" />
    </font>
</defs>
</svg>
